<svg width="959" height="796" viewBox="0 0 959 796" fill="none" xmlns="http://www.w3.org/2000/svg">
<path d="M101.627 43.9481C174.406 63.3711 248.251 81.2274 322.709 92.859C330.69 94.1058 341.671 93.5798 349.666 96.6198C353.955 98.2509 358.245 99.8821 362.534 101.513C368.374 103.734 364.746 109.573 363.918 114.794C355.716 166.517 348.457 220.001 352.078 272.374C353.194 288.521 354.433 304.525 352.288 320.649C351.855 323.901 351.808 323.878 348.782 323.041C335.122 319.262 321.477 315.443 307.739 311.948C257.237 299.101 206.443 291.576 154.695 285.806C124.129 282.398 92.3615 281.109 62.2359 274.575C58.2761 273.716 48.9312 270.59 47.7692 266.76C46.2775 261.842 48.2558 251.789 48.7273 247.767C52.2917 217.369 57.2739 187.136 61.6303 156.847C66.4116 123.603 70.5248 90.1875 76.204 57.0802C76.3117 56.4526 78.7226 39.3467 81.6066 39.6081C89.1913 40.2954 98.071 45.0385 105.118 47.5327C112.347 50.0917 119.522 52.7846 126.69 55.5102" stroke="white" stroke-width="15" stroke-linecap="round"/>
<path d="M211.691 107.134C191.841 115.029 174.522 132.651 158.476 146.155C150.579 152.801 143.551 160.301 135.292 166.46" stroke="white" stroke-width="15" stroke-linecap="round"/>
<path d="M210.59 104.684C228.118 122.31 241.876 142.661 258.637 160.879C266.173 169.071 277.624 176.638 283.228 186.145" stroke="white" stroke-width="15" stroke-linecap="round"/>
<path d="M160.966 141.684C158.116 151.005 158.674 161.797 158.36 171.394C157.955 183.745 157.586 195.984 156.189 208.267C155.276 216.305 154.816 224.177 154.523 232.239C154.457 234.059 154.025 234.283 155.655 233.121" stroke="white" stroke-width="15" stroke-linecap="round"/>
<path d="M262.429 166.045C255.992 185.355 249.394 204.94 244.624 224.74C243.684 228.644 242.732 232.864 242.167 236.842C242.074 237.495 242.626 242.358 241.801 242.403C240.764 242.46 239.817 241.787 238.836 241.445C230.058 238.379 221.196 235.539 212.259 232.975C196.068 228.329 179.922 224.291 163.079 223.246C155.861 222.799 148.643 222.478 141.419 222.177C138.404 222.052 141.614 222.076 142.593 222.059" stroke="white" stroke-width="15" stroke-linecap="round"/>
<path d="M187.592 223.933C187.636 220.898 190.097 208.183 192.814 206.788C195.943 205.18 203.44 206.548 206.835 206.871C211.5 207.314 208.57 208.966 207.285 213.701C206.054 218.235 206.818 221.017 202.379 222.446" stroke="white" stroke-width="15" stroke-linecap="round"/>
<path d="M108.166 96.2101C114.343 98.5589 122.537 103.727 128.916 103.085" stroke="white" stroke-width="15" stroke-linecap="round"/>
<path d="M90.9171 221.71C97.2015 221.907 103.562 220.335 109.748 221.759C113.283 222.573 115.721 222.629 119.142 222.284" stroke="white" stroke-width="15" stroke-linecap="round"/>
<path d="M118.603 98.1476C117.542 100.645 105.885 123.559 106.704 124.098C109.192 125.735 113.431 125.993 116.329 125.5C123.236 124.326 119.927 108.278 120.803 103.048" stroke="white" stroke-width="15" stroke-linecap="round"/>
<path d="M105.955 214.222C104.577 213.096 105.096 210.18 104.87 208.617C104.357 205.079 103.345 201.064 101.542 197.927C100.472 196.066 106.815 197.697 109.105 197.925C120.943 199.106 103.357 211.713 105.83 217.222" stroke="white" stroke-width="15" stroke-linecap="round"/>
<path d="M120.591 100.935C118.466 109.161 115.504 117.463 113.611 125.821C110.794 138.258 110.495 149.312 110.067 162.003C109.703 172.768 106.408 183.152 106.086 193.842C105.91 199.676 98.8724 216.577 103.592 220.435" stroke="white" stroke-width="15" stroke-linecap="round"/>
<path d="M80.8464 628.916C94.4184 626.7 107.864 624.276 121.342 621.514C147.843 616.085 174.733 612.925 201.22 607.444C220.165 603.524 239.979 600.632 258.399 594.547C264.662 592.479 270.789 590.024 277.016 587.86C280.195 586.755 283.197 585.401 286.503 584.69C288.91 584.172 296.566 583.042 297.95 581.274C298.381 580.723 296.745 580.557 296.187 580.135C293.751 578.292 291.688 575.866 289.513 573.73C282.97 567.304 276.678 560.575 270.297 553.989C267.828 551.441 265.502 549.003 263.521 546.123C262.601 544.784 260.847 545.574 259.48 545.72C245.136 547.26 230.799 548.729 216.536 550.93C200.671 553.377 183.742 555.771 168.745 561.843C154.941 567.432 141.843 572.702 127.399 576.455C120.591 578.225 113.823 580.242 106.816 581.058C103.429 581.453 95.5108 580.426 94.6142 584.248C91.0037 599.636 85.6965 614.316 80.2389 629.047M262.617 549.142C257.337 521.007 254.749 492.523 248.867 464.516C246.353 452.548 242.563 441.815 238.15 430.445C236.676 426.648 234.775 422.633 233.917 418.642M61.4001 455.742C65.7659 462.643 67.1224 470.529 68.8169 478.409C70.7961 487.612 72.2078 496.909 74.1401 506.117C77.3666 521.492 79.4929 536.918 82.783 552.218C84.5737 560.545 85.7342 569.503 88.5528 577.57C88.8468 578.411 92.2555 587.399 91.2692 582.813M61.2237 451.966C62.3605 452.7 64.1843 452.454 65.3805 452.414C73.4445 452.142 81.5263 451.3 89.5583 450.569C99.9125 449.628 109.956 447.843 120.103 445.66C136.107 442.219 151.456 436.375 167.502 432.924C184.543 429.26 201.215 424.403 218.267 420.736L234.263 417.296M163.814 470.525C155.973 481.752 147.744 492.858 140.777 504.671C139.154 507.425 139.022 508.035 138.308 510.45M164.395 470.059C176.666 473.649 189.253 476.821 201.054 481.82C202.504 482.434 203.88 483.222 205.446 483.395M145.444 497.662C148.867 506.663 152.892 515.668 155.695 524.897C155.792 525.217 155.799 526.094 156.314 526.014C161.232 525.256 166.112 523.907 170.978 522.861L186.401 519.544C190.001 518.77 193.851 518.141 196.892 515.924C197.308 515.62 196.673 513.94 196.624 513.708L194.015 501.577C192.412 494.126 190.907 486.749 188.263 479.588M168.058 510.872C168.251 511.476 170.607 520.292 171.324 519.717M167.848 509.894C171.577 509.116 175.308 508.426 179.066 507.804C179.716 507.696 179.759 507.5 179.68 507.842C179.2 509.927 180.465 513.123 181.117 515.054C181.614 516.525 182.364 517.89 183.149 519.22M107.332 482.032C107.389 482.491 108.221 493.424 108.582 493.418C109.516 493.405 110.486 493.292 111.42 493.24C111.738 493.222 112.109 493.229 112.505 493.242M112.505 493.242C113.685 493.283 115.089 493.383 115.985 493.061C116.349 492.931 111.521 483.716 111.229 483.208C110.628 482.161 110.02 481.095 109.328 480.1M112.505 493.242C112.222 492.052 111.959 490.856 111.727 489.648C111.136 486.575 110.621 483.004 109.328 480.1M112.505 493.242C113.68 498.179 115.207 502.997 116.348 507.96C117.386 512.474 118.541 516.951 119.616 521.451M109.328 480.1C109.253 479.993 109.178 479.886 109.101 479.781C108.897 479.499 109.229 479.883 109.255 479.94C109.28 479.993 109.304 480.046 109.328 480.1ZM119.616 521.451C120.072 523.355 120.513 525.263 120.925 527.18C121.41 529.435 121.468 531.71 121.935 533.882C121.996 534.167 121.982 533.299 121.987 533.007C122.038 529.532 121.904 526.051 122.033 522.577C122.055 521.978 122.556 520.654 121.97 520.78C121.306 520.923 120.692 521.252 120.016 521.392C119.942 521.408 119.804 521.427 119.616 521.451ZM119.616 521.451C118.12 521.637 113.484 522.065 113.455 522.491C113.44 522.716 113.64 523.008 113.725 523.189C114.366 524.555 114.93 525.939 115.838 527.159C117.346 529.187 118.124 531.591 119.675 533.576C120.106 534.127 120.396 533.979 119.793 533.959" stroke="white" stroke-width="15" stroke-linecap="round"/>
<path d="M403.5 551.613C395.429 552.978 394.307 552.753 386.914 556.827C373.731 564.094 364.084 576.951 356.797 589.686C339.075 620.657 330.87 657.643 327.378 692.819C324.282 723.996 322.811 757.761 331.952 788.113" stroke="white" stroke-width="15" stroke-linecap="round"/>
<path d="M416 636.113C406.457 638.063 402.139 644.211 398.337 652.985C390.214 671.736 386.163 692.891 383.215 713C380.454 731.827 378.853 751.518 380.983 770.511C381.287 773.224 381.366 773.539 383.445 772.707" stroke="white" stroke-width="15" stroke-linecap="round"/>
<path d="M420 631.113C425.261 674.188 430.995 717.196 436.484 760.241C437.511 768.296 437.72 780.511 441 788.113" stroke="white" stroke-width="15" stroke-linecap="round"/>
<path d="M541 784.113C537.521 743.777 533.074 703.781 533.074 663.231C533.074 657.933 532.833 652.567 533.221 647.283C533.447 644.189 534.395 639.531 534.395 637.113" stroke="white" stroke-width="15" stroke-linecap="round"/>
<path d="M585.583 674.271C573.403 683.047 564.243 697.133 574.3 711.402C581.12 721.078 591.19 725.341 600.035 715.578C604.807 710.31 607.176 703.405 606.99 696.443C606.75 687.474 601.672 678.796 593.388 674.726C589.085 672.612 587.94 672.049 586.974 676.321" stroke="white" stroke-width="15" stroke-linecap="round"/>
<path d="M589 671.843C574.384 670.73 559.302 670.618 544.872 673.462C542.608 673.907 540.325 673.999 538.067 674.37C536.95 674.553 535.995 674.525 535 675.113" stroke="white" stroke-width="15" stroke-linecap="round"/>
<path d="M593 723.113C583.207 725.833 573.228 726.763 563.244 728.247C561.609 728.491 560.003 728.97 558.35 729.092C556.614 729.219 554.874 728.736 553.133 728.695C548.647 728.589 545.27 726.005 541 725.284" stroke="white" stroke-width="15" stroke-linecap="round"/>
<path d="M584.957 665.113C584.957 647.308 585.812 628.795 579.899 611.703C570.601 584.827 551.03 560.597 527.548 544.815C523.51 542.101 520.701 539.767 515 542.613" stroke="white" stroke-width="15" stroke-linecap="round"/>
<path d="M366.836 409.277C381.952 404.387 396.256 396.964 411.063 391.242C440.068 380.032 469.92 370.99 500.691 366.149C518.429 363.359 543.173 358.54 559.424 369.442C566.178 373.974 549.813 377.969 547.74 378.774C535.171 383.653 522.583 388.561 509.865 393.045C507.666 393.821 503.705 395.163 501.632 395.163" stroke="white" stroke-width="15" stroke-linecap="round"/>
<path d="M372.482 412.1C388.105 409.383 403.632 406.454 419.375 404.415C448.036 400.703 476.818 399.562 505.553 396.809C513.983 396.002 522.542 394.948 530.567 392.104C531.184 391.886 531.683 391.52 531.273 392.34" stroke="white" stroke-width="15" stroke-linecap="round"/>
<path d="M366.13 408.572C367.272 396.777 369.904 384.834 375.148 374.147C385.459 353.136 402.917 340.475 425.138 334.156C440.333 329.834 453.235 328.763 466.266 338.704C471.453 342.66 476.051 347.25 480.852 351.642C482.18 352.858 483.043 353.817 484.694 354.23" stroke="white" stroke-width="15" stroke-linecap="round"/>
<path d="M421.884 340.821C421.427 348.362 420.24 353.707 423.295 360.581" stroke="white" stroke-width="15" stroke-linecap="round"/>
<path d="M445.173 337.292C444.914 341.979 444.467 346.708 444.467 351.407" stroke="white" stroke-width="15" stroke-linecap="round"/>
<path d="M406.357 355.641L407.063 364.816" stroke="white" stroke-width="15" stroke-linecap="round"/>
<path d="M407.063 409.983C400.239 417.97 396.069 421.845 391.38 431.469C385.629 443.272 383.115 456.731 383.029 469.774C382.946 482.429 385.428 495.156 388.165 507.453C390.802 519.302 393.97 531.12 399.574 541.955C406.278 554.916 415.899 567.051 431.529 568.068C447.653 569.116 464.275 564.719 479.283 559.403C495.889 553.521 512.638 545.608 526.411 534.428C539.25 524.006 550.217 508.277 551.504 491.378C553.078 470.703 542.239 450.331 530.959 433.86C522.92 422.122 513.637 411.181 503.043 401.671C502.356 401.054 497.543 395.865 495.672 396.613C493.338 397.547 491.372 403.253 490.34 405.043" stroke="white" stroke-width="15" stroke-linecap="round"/>
<path d="M486.105 444.564C489.534 456.05 492.693 467.62 495.986 479.145" stroke="white" stroke-width="15" stroke-linecap="round"/>
<path d="M445.173 452.327C447.676 461.809 448.698 471.442 450.662 481.027C450.962 482.492 451.211 488.32 453.642 488.32" stroke="white" stroke-width="15" stroke-linecap="round"/>
<path d="M427.321 512.7C433.05 517.869 438.784 522.649 445.821 525.96C448.728 527.328 450.951 527.93 453.949 526.744C456.309 525.811 458.6 524.731 461.007 523.928" stroke="white" stroke-width="15" stroke-linecap="round"/>
<path d="M652.377 363.899C651.587 396.276 650.493 431.302 638.029 461.673C637.339 463.353 630.725 470.569 634.092 470.181C639.034 469.61 644.327 467.453 649.076 466.244C662.069 462.936 675.036 459.701 687.804 455.578C704.714 450.117 719.519 443.379 730.088 428.659C738.824 416.491 742.07 401.626 748.246 388.152C751.049 382.036 753.714 375.613 756.119 369.359C758.27 363.766 777.839 374.405 780.88 375.327C799.653 381.024 818.552 385.281 838.274 385.486C863.777 385.75 898.756 385.609 917.699 365.423C929.919 352.402 934.836 332.875 939.032 316.092C945.115 291.759 949.563 266.278 950.46 241.174C952.348 188.293 934.575 131.533 903.351 88.7365C871.583 45.1965 821.504 24.8577 768.817 24.0408C733.424 23.4921 699.667 28.4623 666.091 39.7862C625.921 53.334 591.023 72.2936 569.206 109.942C545.206 151.357 544.86 200.958 544.064 247.46C543.845 260.287 543.907 272.907 549.016 284.919C555.065 299.139 565.189 312.678 576.634 323.012C589.731 334.838 605.971 340.978 623.045 344.345C629.891 345.694 637.458 349.043 644.377 349.043" stroke="white" stroke-width="15" stroke-linecap="round"/>
<path d="M616.54 196.105C643.791 174.829 670.846 153.285 698.299 132.267C708.471 124.48 718.637 117.361 729.609 110.815C735.675 107.197 743.61 104.016 748.54 99.1049" stroke="white" stroke-width="15" stroke-linecap="round"/>
<path d="M752.54 100.105C767.584 122.056 787.517 142.91 812.366 153.376C825.665 158.977 837.543 165.056 848.095 175.079C858.043 184.527 869.324 193.998 881.54 200.105" stroke="white" stroke-width="15" stroke-linecap="round"/>
<path d="M638.569 182.105C638.569 189.209 638.441 196.325 638.725 203.425C639.48 222.278 643.616 240.515 645.91 259.169C647.073 268.626 647.94 277.546 647.94 287.041C647.94 289.262 647.8 291.535 647.992 293.749C648.307 297.364 664.149 295.461 665.746 295.517C681.224 296.062 698.982 299.105 713.54 299.105" stroke="white" stroke-width="15" stroke-linecap="round"/>
<path d="M720.54 296.105C715.906 273.661 712.54 251.097 712.54 228.105" stroke="white" stroke-width="15" stroke-linecap="round"/>
<path d="M715.54 228.105H744.54" stroke="white" stroke-width="15" stroke-linecap="round"/>
<path d="M750.54 228.105C750.54 250.441 751.54 272.813 751.54 295.105" stroke="white" stroke-width="15" stroke-linecap="round"/>
<path d="M718.54 300.773C734.488 300.006 750.103 299.439 765.953 301.779C777.92 303.546 789.966 304.124 802.032 304.573C805.81 304.714 818.227 306.753 820.54 301.779" stroke="white" stroke-width="15" stroke-linecap="round"/>
<path d="M832.54 169.105C831.172 199.77 830.54 230.392 830.54 261.082C830.54 270.094 831.362 279.594 830.318 288.592C829.946 291.796 828.54 293.435 828.54 297.105" stroke="white" stroke-width="15" stroke-linecap="round"/>
<path d="M806.54 150.105C806.54 132.952 806.101 115.329 799.54 99.1049" stroke="white" stroke-width="15" stroke-linecap="round"/>
<path d="M801.54 99.1049C810.521 101.381 821.081 105.105 830.54 105.105" stroke="white" stroke-width="15" stroke-linecap="round"/>
<path d="M830.54 106.105C830.54 119.577 831.087 132.797 834.984 145.832C836.041 149.365 836.873 152.328 837.54 156.105" stroke="white" stroke-width="15" stroke-linecap="round"/>
</svg>
