<svg width="512" height="799" viewBox="0 0 512 799" fill="none" xmlns="http://www.w3.org/2000/svg">
<g clip-path="url(#clip0_1342_3853)">
<path d="M153.24 474.858C157.64 500.372 160.346 516.156 165.631 528.953C169.928 539.356 179.715 556.708 186.454 567.312C195.769 581.972 212.669 588.128 231.318 594.347C247.282 599.67 262.925 598.379 291.086 596.633C310.161 595.45 319.86 584.622 323.62 581.529C340.909 567.305 339.87 537.565 340.976 526.887C341.203 521.568 341.643 516.649 342.529 507.158C342.976 499.866 343.416 487.548 343.869 474.858" stroke="white" stroke-width="15" stroke-linecap="round"/>
<path d="M130.578 461.527C130.578 459.767 130.578 458.008 141.136 445.443C151.694 432.879 172.81 409.564 188.967 396.673C212.783 377.671 229.199 380.21 238.917 381.31C257.605 383.425 277.136 389.515 290.673 393.734C299.198 396.391 316.181 401.486 337.943 410.364C353.033 416.52 358.053 424.174 366.058 431.286C371.055 435.727 373.196 445.903 375.409 455.715C376.004 458.353 375.862 461.9 369.704 464.373C352.2 471.401 335.457 470.405 325.512 472.398C308.263 475.855 291.933 477.51 270.077 479.95C253.565 481.793 225.786 481.949 208.649 482.183C176.788 482.616 164.412 477.977 156.6 476.417C143.962 473.551 131.925 467.752 128.825 465.766C127.046 464.22 124.846 461.58 122.58 460.194" stroke="white" stroke-width="15" stroke-linecap="round"/>
<path d="M243.527 385.561C248.077 409.392 250.745 414.207 254.229 418.366C255.147 419.462 256.628 420.106 257.975 419.057C262.279 410.228 262.817 404.071 262.552 399.791C262.287 397.899 261.756 396.572 260.406 393.598" stroke="white" stroke-width="15" stroke-linecap="round"/>
<path d="M193.695 580.067C189.958 610.304 186.47 618.904 184.866 620.644C184.151 621.421 183.263 621.589 181.792 621.062C177.986 619.7 174.687 616.517 166.975 606.816C160.421 598.572 149.184 583.057 142.115 572.878C135.046 562.698 132.659 558.189 128.644 552.021C124.629 545.852 119.059 538.16 114.996 532.076C108.234 521.949 102.639 512.866 94.6296 499.536C89.515 491.024 84.4984 477.718 79.7724 462.934C75.0463 448.149 71.333 431.969 69.2875 421.91C67.242 411.852 66.9767 408.403 66.0444 403.046C65.112 397.69 63.5206 390.528 61.881 383.15" stroke="white" stroke-width="15" stroke-linecap="round"/>
<path d="M62.6846 383.954C63.2151 382.362 65.0798 372.259 67.0932 357.53C68.0117 350.811 65.1039 347.271 62.0416 342.862C57.7118 336.629 50.6445 335.198 45.8462 334.792C37.8407 334.115 29.2328 338.654 21.0868 343.859C11.1309 350.219 5.892 355.814 4.82302 357.683C2.29578 362.101 2.67702 366.786 3.99516 381.462C5.373 396.803 13.3749 406.177 15.7821 408.452C17.6588 409.931 20.8658 411.273 25.2783 412.478C27.3038 412.888 28.8952 412.888 28.1236 412.888" stroke="white" stroke-width="15" stroke-linecap="round"/>
<path d="M327.117 581.675C333 590.5 336.215 596.383 340.093 603.348C342.292 607.297 344.791 609.533 346.395 610.071C347.161 610.328 347.998 609.549 349.071 608.347C350.144 607.146 351.47 605.289 362.233 577.942C372.995 550.594 393.153 497.812 403.935 468.5C414.717 439.187 415.513 434.943 417.779 427.187C420.046 419.431 423.759 408.291 426.203 399.9C431.945 380.178 431.604 374.084 432.404 368.566C432.938 366.03 433.211 363.603 433.344 361.465C433.477 360.388 433.742 359.327 434.015 358.234" stroke="white" stroke-width="15" stroke-linecap="round"/>
<path d="M430.8 365.467C425.487 360.693 415.537 345.165 414.597 335.661C414.235 332.006 414.982 330.665 416.847 329.054C421.481 325.049 431.805 323.142 443.443 323.267C456.821 323.41 460.78 330.087 466.145 334.238C471.796 338.611 473.382 345.615 475.135 350.715C476.481 354.633 478.478 359.279 479.157 365.311C480.369 376.07 479.298 392.763 475.159 399.337C472.884 401.089 469.934 402.166 465.663 402.97C463.247 403.244 460.33 403.244 457.324 403.244" stroke="white" stroke-width="15" stroke-linecap="round"/>
<path d="M457.324 404.851C456.263 410.686 455.451 415.549 453.988 420.882C451.57 429.696 447.687 438.568 441.044 457.858C435.707 473.355 424.322 499.693 418.454 514.55C412.587 529.407 412.057 531.794 407.407 544.032C402.757 556.269 394.005 578.283 389.23 590.685C382.357 608.539 380.711 615.657 379.766 621.975C378.776 628.602 376.949 634.69 376.282 638.994C376.145 640.067 376.145 641.393 375.88 642.474C375.615 643.555 375.084 644.351 374.538 645.975" stroke="white" stroke-width="15" stroke-linecap="round"/>
<path d="M24.1049 425.748C28.0834 437.684 32.0619 449.62 36.8965 464.654C41.731 479.688 47.3009 497.458 59.0557 525.71C70.8105 553.962 88.5813 592.156 100.654 615.147C112.726 638.138 118.561 644.769 122.23 648.583C128.794 655.405 131.791 658.288 135.142 662.7C138.481 667.096 141.436 670.601 147.323 675.428C151.158 678.572 154.826 682.915 159.652 686.821C160.734 687.496 161.529 688.026 162.072 688.698C162.614 689.369 162.88 690.164 163.957 690.984" stroke="white" stroke-width="15" stroke-linecap="round"/>
<path d="M374.538 651.601C367.577 669.54 364.909 673.816 360.766 680.23C354.525 688.734 348.834 695.26 346.025 697.133C344.807 697.945 344.012 698.475 343.192 699.022" stroke="white" stroke-width="15" stroke-linecap="round"/>
<path d="M165.564 688.573C166.36 695.212 169.567 712.364 171.845 724.802C175.171 742.954 180.554 757.398 182.828 762.614C185.384 771.327 188.053 780.972 191.939 797.549C192.883 801.347 193.679 803.203 194.499 805.116" stroke="white" stroke-width="15" stroke-linecap="round"/>
<path d="M343.192 700.629C341.6 713.891 339.985 723.64 338.647 729.255C337.453 734.262 335.974 741.837 332.635 754.38C328.083 771.472 327.117 783.929 326.984 787.807C326.586 790.89 325.783 793.848 324.979 798.248C324.706 801.057 324.706 805.036 324.706 809.135" stroke="white" stroke-width="15" stroke-linecap="round"/>
</g>
<path d="M213.111 35.5614C232.586 44.5864 247.606 51.6106 259.913 56.3966C276.21 62.7346 288.182 65.0545 291.414 67.4511C296.509 71.2302 301.374 72.7408 306.286 74.6552C315.457 78.2297 320.317 80.4128 323.933 82.2156C324.657 82.5767 325.369 82.8166 325.973 83.8889C327.526 86.6436 327.542 92.3813 327.661 98.8477C327.754 103.901 328.262 111.079 327.668 121.604C327.014 133.199 324.663 144.422 324.901 153.764C325.079 160.765 325.865 172.454 325.624 186.363C325.461 195.805 327.053 204.402 327.661 209.116C328.414 214.956 328.737 222.668 327.913 242.517C327.745 246.572 324.707 246.432 322.774 246.076C319.086 245.396 315.092 243.798 308.406 241.891C297.678 238.83 290.608 235.399 288.337 234.445C285.074 233.075 278.891 228.943 270.625 224.989C258.273 219.079 246.721 212.376 242.154 209.976C237.975 207.779 232.082 204.704 228.955 203.135C227.47 202.39 226.073 201.811 224.518 201.573C219.729 200.842 217.918 188.914 217.31 183.232C217.14 181.643 216.709 178.565 216.591 174.491C216.513 171.82 215.99 160.414 216.108 144.106C216.189 132.978 216.947 125.293 217.307 110.791C217.643 97.2429 217.429 71.1143 217.192 55.756C216.954 40.3978 216.479 36.5978 216.234 33.9277C215.99 31.2576 215.99 29.8326 215.27 27.6448" stroke="white" stroke-width="15" stroke-linecap="round"/>
<path d="M213.111 34.8417C206.9 37.4614 200.171 42.7439 195.978 45.8638C189.379 50.7754 185.777 53.784 182.416 57.1378C177.039 62.5035 180.25 76.5552 179.886 81.6038C179.712 84.0169 179.285 87.1203 179.166 90.4741C179.08 92.9026 177.853 105.494 176.892 123.602C176.499 131.011 177.601 137.225 178.677 146.923C179.575 155.016 180.725 161.717 180.843 166.87C180.913 169.905 181.444 177.039 181.326 187.107C181.15 201.98 180.962 220.264 181.678 223.024C181.925 223.976 182.869 223.646 183.711 223.049C187.461 220.389 190.066 217.658 192.711 215.373C195.109 213.302 197.508 210.462 200.98 207.46C205.366 203.67 208.778 200.861 212.139 198.82C212.866 198.22 213.341 197.507 213.942 196.784C214.543 196.06 215.255 195.348 215.99 194.614" stroke="white" stroke-width="15" stroke-linecap="round"/>
<path d="M185.043 224.841C187.663 225.791 196.745 231.52 205.403 236.698C214.332 242.038 219.084 246.662 224.004 249.775C232.532 255.172 242.302 261.747 251.827 267.526C258.936 271.839 267.779 273.766 272.111 276.529C275.692 278.813 279.308 279.768 282.191 281.571C286.507 284.27 294.422 281.941 297.661 281.341C300.338 280.844 304.246 278.825 310.223 276.321C323.922 266.605 330.4 258.465 333.638 252.351C334.739 250.037 334.739 249.325 334.739 248.591" stroke="white" stroke-width="15" stroke-linecap="round"/>
<path d="M269.762 109.69C263.572 113.727 253.928 122.637 254.047 124.073C254.856 133.852 280.758 137.038 286.991 136.682C289.446 136.542 290.374 135.613 291.1 134.177C296.828 122.863 284.645 106.581 282.612 105.973C280.341 107.977 278.168 110.402 276.372 112.076C275.526 113.036 274.814 114.224 274.08 115.447" stroke="white" stroke-width="15" stroke-linecap="round"/>
<path d="M276.239 83.0613L275.519 90.9779" stroke="white" stroke-width="15" stroke-linecap="round"/>
<path d="M262.565 152.872C253.216 173.484 250.819 178.766 250.092 182.124C249.855 183.322 249.38 184.984 249.135 186.435C248.89 187.885 248.89 189.072 248.89 190.296" stroke="white" stroke-width="15" stroke-linecap="round"/>
<path d="M281.277 157.19C281.277 179.004 281.752 185.229 281.28 189.443C280.802 191.001 280.557 193.16 280.676 196.032C280.794 197.478 281.032 198.903 281.277 201.091" stroke="white" stroke-width="15" stroke-linecap="round"/>
<path d="M359.875 12.0728C360.47 16.0426 360.777 19.2786 360.331 23.4153C360.011 26.3776 358.991 31.0257 358.332 33.9248C357.439 37.8569 355.28 41.4194 351.534 46.6192C344.653 56.1708 341.533 56.1798 340.585 56.6295C339.956 56.9281 338.943 57.1783 340.566 57.3317C342.188 57.4851 346.456 57.4851 350.143 57.7332C356.834 58.1834 360.272 59.2865 361.568 60.7301C364.159 63.6156 365.884 67.0968 367.828 70.9358C371.236 77.6655 373.408 82.6393 373.508 83.5941C373.685 85.3006 374.705 76.1733 375.956 69.1629C376.464 66.312 376.909 64.9315 378.156 62.4789C379.402 60.0264 381.486 56.5528 383.155 54.2175C387.157 48.619 390.34 47.6688 392.297 46.6117C395.117 45.0878 396.963 45.3561 398.011 45.2057C398.657 45.113 399.555 45.1546 395.996 43.0704C392.436 40.9863 384.398 36.818 379.859 34.2737C372.994 30.4246 372.314 27.4227 371.257 24.3642C370.268 21.504 368.801 18.3944 367.35 13.8968C366.401 11.7901 365.791 10.5721 365.541 9.87285C365.391 9.47136 365.192 8.97513 364.988 8.46387" stroke="white" stroke-width="15" stroke-linecap="round"/>
<path d="M144.027 214.153C143.449 218.49 141.85 225.927 138.289 237.137C136.346 243.252 132.848 249.792 129.909 254.662C124.982 262.828 120.386 266.415 118.054 268.165C116.366 269.431 114.977 270.217 113.956 271.091C113.482 271.497 113.224 271.965 113.509 272.188C114.432 272.913 119.169 271.544 126.812 270.013C135.086 268.356 140.803 268.903 142.989 269.777C147.179 271.452 151.018 275.46 156.055 284.057C159.768 290.393 159.503 295.325 159.794 297.075C159.992 298.266 161.824 291.466 165.896 277.118C167.954 269.864 171.702 263.204 173.559 259.487C175.648 255.308 176.582 254.457 177.674 253.727C179.539 252.483 182.127 252.7 185.48 253.427C186.355 253.617 187.086 253.576 186.735 253.359C182.813 250.933 177.922 251.246 174.483 250.659C169.911 249.878 167.111 245.998 164.26 243.51C161.182 240.825 158.929 236.072 156.303 232.058C152.888 226.838 153.664 223.658 152.937 219.425C152.498 217.079 151.912 213.592 151.548 211.021C151.473 210.509 151.473 209.93 151.035 208.897" stroke="white" stroke-width="15" stroke-linecap="round"/>
<defs>
<clipPath id="clip0_1342_3853">
<rect width="512" height="512" fill="white" transform="translate(0 287)"/>
</clipPath>
</defs>
</svg>
