<svg width="284" height="51" viewBox="0 0 284 51" fill="none" xmlns="http://www.w3.org/2000/svg">
<rect width="51" height="51" rx="25.5" fill="url(#paint0_linear_1321_3759)"/>
<path d="M16.8014 40.2902L16.32 35.69L20.5788 23.7369C21.0726 24.29 21.6404 24.7299 22.2824 25.0567C22.9243 25.3835 23.5662 25.5846 24.2081 25.66L20.1344 37.0851L16.8014 40.2902ZM33.6886 40.2902L30.3556 37.0851L26.2819 25.66C26.9238 25.5846 27.5658 25.3835 28.2077 25.0567C28.8496 24.7299 29.4174 24.29 29.9112 23.7369L34.17 35.69L33.6886 40.2902ZM25.245 24.2271C23.7884 24.2271 22.5416 23.6992 21.5047 22.6434C20.4677 21.5876 19.9493 20.3182 19.9493 18.835C19.9493 17.6284 20.2702 16.5852 20.9121 15.7054C21.554 14.8256 22.3194 14.2097 23.2082 13.8578V10.2002H27.2818V13.8578C28.1706 14.2097 28.936 14.8256 29.5779 15.7054C30.2198 16.5852 30.5408 17.6284 30.5408 18.835C30.5408 20.3182 30.0223 21.5876 28.9854 22.6434C27.9484 23.6992 26.7016 24.2271 25.245 24.2271ZM25.245 20.0417C25.566 20.0417 25.8437 19.9223 26.0783 19.6834C26.3128 19.4446 26.4301 19.1618 26.4301 18.835C26.4301 18.5083 26.3128 18.2255 26.0783 17.9866C25.8437 17.7478 25.566 17.6284 25.245 17.6284C24.9241 17.6284 24.6463 17.7478 24.4118 17.9866C24.1772 18.2255 24.0599 18.5083 24.0599 18.835C24.0599 19.1618 24.1772 19.4446 24.4118 19.6834C24.6463 19.9223 24.9241 20.0417 25.245 20.0417Z" fill="white"/>
<path d="M64 23.6361C64 21.0861 64.5007 18.8662 65.5021 16.9765C66.5035 15.0868 67.8919 13.6183 69.6671 12.571C71.4651 11.5237 73.5476 11 75.9146 11C78.3954 11 80.5234 11.5578 82.2986 12.6734C84.0739 13.789 85.4849 15.36 86.5319 17.3863L81.6158 19.9477C80.9786 18.7183 80.1934 17.8075 79.2602 17.2156C78.3498 16.6009 77.246 16.2935 75.9487 16.2935C74.6742 16.2935 73.5704 16.6009 72.6372 17.2156C71.7268 17.8075 71.0099 18.6499 70.4865 19.7428C69.9857 20.8356 69.7354 22.122 69.7354 23.6019C69.7354 25.1046 69.9857 26.4023 70.4865 27.4952C71.0099 28.588 71.7268 29.4418 72.6372 30.0566C73.5704 30.6485 74.6742 30.9445 75.9487 30.9445C77.2688 30.9445 78.384 30.6485 79.2944 30.0566C80.2275 29.4418 81.0127 28.5197 81.65 27.2903L86.566 29.8517C85.5191 31.9007 84.0966 33.4831 82.2986 34.5987C80.5006 35.6916 78.384 36.238 75.9487 36.238C73.5817 36.238 71.4992 35.7143 69.7012 34.667C67.9033 33.6197 66.5035 32.1512 65.5021 30.2615C64.5007 28.3718 64 26.1633 64 23.6361Z" fill="white"/>
<path d="M88.1986 26.8463C88.1986 25.0021 88.5741 23.3742 89.3252 21.9626C90.0762 20.551 91.1345 19.4582 92.5001 18.6841C93.8657 17.8872 95.4475 17.4888 97.2455 17.4888C99.0662 17.4888 100.648 17.8872 101.991 18.6841C103.356 19.4582 104.415 20.551 105.166 21.9626C105.94 23.3742 106.326 25.0021 106.326 26.8463C106.326 28.7133 105.94 30.3525 105.166 31.7641C104.415 33.1757 103.356 34.28 101.991 35.0768C100.648 35.8509 99.0662 36.238 97.2455 36.238C95.4475 36.238 93.8657 35.8509 92.5001 35.0768C91.1345 34.28 90.0762 33.1757 89.3252 31.7641C88.5741 30.3525 88.1986 28.7133 88.1986 26.8463ZM93.7291 26.8463C93.7291 27.757 93.8657 28.5539 94.1388 29.2369C94.4347 29.8972 94.8443 30.4095 95.3678 30.7737C95.8913 31.138 96.5172 31.3202 97.2455 31.3202C97.9965 31.3202 98.6224 31.138 99.1231 30.7737C99.6466 30.4095 100.056 29.8972 100.352 29.2369C100.648 28.5539 100.796 27.757 100.796 26.8463C100.796 25.9356 100.648 25.1501 100.352 24.4899C100.056 23.8296 99.6466 23.3173 99.1231 22.953C98.6224 22.5888 97.9965 22.4066 97.2455 22.4066C96.5172 22.4066 95.8913 22.5888 95.3678 22.953C94.8443 23.3173 94.4347 23.8296 94.1388 24.4899C93.8657 25.1501 93.7291 25.9356 93.7291 26.8463Z" fill="white"/>
<path d="M109.155 17.9669H114.515V22.6798H113.49C113.741 21.5642 114.162 20.6307 114.754 19.8794C115.345 19.1053 116.039 18.5133 116.836 18.1035C117.655 17.6937 118.497 17.4888 119.362 17.4888C120.819 17.4888 122.025 17.8417 122.981 18.5475C123.937 19.2533 124.597 20.3917 124.961 21.9626H124.074C124.551 20.4144 125.325 19.2874 126.395 18.5816C127.465 17.8531 128.603 17.4888 129.809 17.4888C131.88 17.4888 133.439 18.1604 134.486 19.5037C135.533 20.8243 136.056 22.8051 136.056 25.4461V35.7599H130.594V25.4803C130.594 24.4329 130.378 23.6588 129.945 23.158C129.536 22.6571 128.91 22.4066 128.068 22.4066C127.544 22.4066 127.066 22.5546 126.634 22.8506C126.224 23.1238 125.906 23.5222 125.678 24.0459C125.45 24.5468 125.337 25.1501 125.337 25.8559V35.7599H119.874V25.4803C119.874 24.4329 119.658 23.6588 119.226 23.158C118.816 22.6571 118.19 22.4066 117.348 22.4066C116.802 22.4066 116.324 22.5546 115.914 22.8506C115.505 23.1238 115.186 23.5222 114.958 24.0459C114.731 24.5695 114.617 25.1843 114.617 25.8901V35.7599H109.155V17.9669Z" fill="white"/>
<path d="M139.56 17.9669H144.92V22.6798H143.896C144.305 21.0861 145.056 19.8225 146.149 18.889C147.264 17.9555 148.55 17.4888 150.007 17.4888C151.577 17.4888 152.92 17.8645 154.035 18.6158C155.173 19.3671 156.038 20.4486 156.63 21.8602C157.244 23.2718 157.551 24.9452 157.551 26.8805C157.551 28.793 157.244 30.455 156.63 31.8666C156.038 33.2782 155.173 34.3597 154.035 35.111C152.92 35.8623 151.577 36.238 150.007 36.238C148.504 36.238 147.207 35.7826 146.115 34.8719C145.022 33.9385 144.271 32.6976 143.861 31.1494H145.022V43H139.56V17.9669ZM144.988 26.8805C144.988 27.7684 145.136 28.5539 145.432 29.2369C145.728 29.8972 146.137 30.4095 146.661 30.7737C147.184 31.138 147.81 31.3202 148.539 31.3202C149.267 31.3202 149.881 31.138 150.382 30.7737C150.906 30.3867 151.304 29.863 151.577 29.2028C151.873 28.5197 152.021 27.7456 152.021 26.8805C152.021 25.9698 151.873 25.1843 151.577 24.524C151.304 23.8637 150.906 23.3515 150.382 22.9872C149.881 22.6001 149.267 22.4066 148.539 22.4066C147.81 22.4066 147.184 22.5888 146.661 22.953C146.137 23.3173 145.728 23.8296 145.432 24.4899C145.136 25.1501 144.988 25.947 144.988 26.8805Z" fill="white"/>
<path d="M170.809 25.5827C170.809 24.376 170.547 23.4767 170.023 22.8847C169.5 22.2928 168.703 21.9968 167.634 21.9968C166.928 21.9968 166.291 22.1448 165.722 22.4408C165.153 22.714 164.629 23.1352 164.151 23.7044L160.157 21.143C161.136 19.9363 162.296 19.0256 163.639 18.4109C165.005 17.7962 166.553 17.4888 168.282 17.4888C170.786 17.4888 172.698 18.1718 174.018 19.5379C175.338 20.8812 175.998 22.8734 175.998 25.5144V35.7599H170.809V25.5827ZM159.747 30.9104C159.747 28.9979 160.43 27.518 161.796 26.4707C163.161 25.4233 165.073 24.8997 167.531 24.8997H171.833V28.2807H167.838C166.883 28.2807 166.166 28.4514 165.688 28.793C165.21 29.1117 164.971 29.6012 164.971 30.2615C164.971 30.7851 165.141 31.1949 165.483 31.4909C165.847 31.7869 166.37 31.9349 167.053 31.9349C167.668 31.9349 168.259 31.7755 168.828 31.4568C169.397 31.138 169.864 30.6713 170.228 30.0566C170.615 29.4191 170.809 28.645 170.809 27.7343L172.106 29.3735C172.106 30.8762 171.787 32.1398 171.15 33.1644C170.535 34.1661 169.727 34.9289 168.726 35.4525C167.725 35.9762 166.621 36.238 165.415 36.238C164.299 36.238 163.321 36.0331 162.479 35.6233C161.636 35.2134 160.965 34.6215 160.464 33.8474C159.986 33.0505 159.747 32.0715 159.747 30.9104Z" fill="white"/>
<path d="M188.853 30.6713C188.853 30.3298 188.728 30.0679 188.478 29.8858C188.25 29.6809 187.818 29.5101 187.181 29.3735L184.723 28.793C182.72 28.3148 181.229 27.6204 180.25 26.7097C179.295 25.7762 178.817 24.5126 178.817 22.9189C178.817 21.735 179.147 20.7332 179.807 19.9136C180.467 19.0939 181.343 18.4906 182.435 18.1035C183.551 17.6937 184.78 17.4888 186.122 17.4888C187.92 17.4888 189.525 17.8758 190.936 18.6499C192.37 19.424 193.405 20.5852 194.043 22.1334L189.878 23.6361C189.559 22.9986 189.036 22.5318 188.307 22.2359C187.579 21.9399 186.862 21.7919 186.157 21.7919C185.519 21.7919 185.007 21.8943 184.62 22.0993C184.233 22.3042 184.04 22.6115 184.04 23.0213C184.04 23.3401 184.154 23.6019 184.381 23.8068C184.632 24.0117 185.053 24.1825 185.644 24.3191L188.102 24.8997C190.105 25.355 191.596 26.0494 192.575 26.9829C193.553 27.9164 194.043 29.1686 194.043 30.7396C194.043 32.4244 193.394 33.7677 192.097 34.7695C190.822 35.7485 189.013 36.238 186.669 36.238C184.575 36.238 182.777 35.8168 181.275 34.9744C179.772 34.1092 178.737 32.8684 178.168 31.2519L182.435 29.715C182.777 30.4892 183.323 31.0583 184.074 31.4226C184.848 31.7641 185.713 31.9349 186.669 31.9349C187.374 31.9349 187.909 31.8324 188.273 31.6275C188.66 31.4226 188.853 31.1039 188.853 30.6713Z" fill="white"/>
<path d="M206.156 30.6713C206.156 30.3298 206.031 30.0679 205.781 29.8858C205.553 29.6809 205.121 29.5101 204.484 29.3735L202.026 28.793C200.023 28.3148 198.532 27.6204 197.553 26.7097C196.597 25.7762 196.12 24.5126 196.12 22.9189C196.12 21.735 196.45 20.7332 197.11 19.9136C197.77 19.0939 198.646 18.4906 199.738 18.1035C200.854 17.6937 202.083 17.4888 203.425 17.4888C205.223 17.4888 206.828 17.8758 208.239 18.6499C209.673 19.424 210.708 20.5852 211.346 22.1334L207.181 23.6361C206.862 22.9986 206.339 22.5318 205.61 22.2359C204.882 21.9399 204.165 21.7919 203.459 21.7919C202.822 21.7919 202.31 21.8943 201.923 22.0993C201.536 22.3042 201.343 22.6115 201.343 23.0213C201.343 23.3401 201.457 23.6019 201.684 23.8068C201.935 24.0117 202.356 24.1825 202.947 24.3191L205.405 24.8997C207.408 25.355 208.899 26.0494 209.878 26.9829C210.856 27.9164 211.346 29.1686 211.346 30.7396C211.346 32.4244 210.697 33.7677 209.4 34.7695C208.125 35.7485 206.316 36.238 203.972 36.238C201.878 36.238 200.08 35.8168 198.578 34.9744C197.075 34.1092 196.04 32.8684 195.471 31.2519L199.738 29.715C200.08 30.4892 200.626 31.0583 201.377 31.4226C202.151 31.7641 203.016 31.9349 203.972 31.9349C204.677 31.9349 205.212 31.8324 205.576 31.6275C205.963 31.4226 206.156 31.1039 206.156 30.6713Z" fill="white"/>
<path d="M213.559 23.6361C213.559 21.0861 214.06 18.8662 215.061 16.9765C216.063 15.0868 217.451 13.6183 219.226 12.571C221.024 11.5237 223.107 11 225.474 11C227.954 11 230.082 11.5578 231.858 12.6734C233.633 13.789 235.044 15.36 236.091 17.3863L231.175 19.9477C230.538 18.7183 229.752 17.8075 228.819 17.2156C227.909 16.6009 226.805 16.2935 225.508 16.2935C224.233 16.2935 223.129 16.6009 222.196 17.2156C221.286 17.8075 220.569 18.6499 220.046 19.7428C219.545 20.8356 219.294 22.122 219.294 23.6019C219.294 25.1046 219.545 26.4023 220.046 27.4952C220.569 28.588 221.286 29.4418 222.196 30.0566C223.129 30.6485 224.233 30.9445 225.508 30.9445C226.828 30.9445 227.943 30.6485 228.853 30.0566C229.787 29.4418 230.572 28.5197 231.209 27.2903L236.125 29.8517C235.078 31.9007 233.656 33.4831 231.858 34.5987C230.06 35.6916 227.943 36.238 225.508 36.238C223.141 36.238 221.058 35.7143 219.26 34.667C217.462 33.6197 216.063 32.1512 215.061 30.2615C214.06 28.3718 213.559 26.1633 213.559 23.6361Z" fill="white"/>
<path d="M246.78 14.2102H249.443L242.376 35.7599H236.641L245.312 11.4781H251.184L259.855 35.7599H253.915L246.78 14.2102ZM254.871 31.4909H242.342V26.7097H254.871V31.4909Z" fill="white"/>
<path d="M278.23 23.6019C278.23 21.3707 277.639 19.6517 276.455 18.445C275.295 17.2383 273.633 16.635 271.471 16.635H268.091V30.603H271.471C273.633 30.603 275.295 29.9996 276.455 28.793C277.639 27.5863 278.23 25.8559 278.23 23.6019ZM282.532 30.159C281.576 31.9577 280.176 33.3465 278.333 34.3255C276.512 35.2818 274.327 35.7599 271.778 35.7599H262.458V11.4781H271.778C274.327 11.4781 276.512 11.9562 278.333 12.9125C280.176 13.8687 281.576 15.2576 282.532 17.079C283.511 18.8776 284 21.0519 284 23.6019C284 26.1519 283.511 28.3376 282.532 30.159Z" fill="white"/>
<defs>
<linearGradient id="paint0_linear_1321_3759" x1="0" y1="51" x2="51" y2="0" gradientUnits="userSpaceOnUse">
<stop stop-color="#00A3FF"/>
<stop offset="1" stop-color="#004369"/>
</linearGradient>
</defs>
</svg>
