<svg width="24" height="24" viewBox="0 0 24 24" fill="none" xmlns="http://www.w3.org/2000/svg">
<path d="M5.5893 17.0169V13.3386C5.58947 13.0454 5.8257 12.8074 6.11708 12.8074C6.40827 12.8076 6.64469 13.0455 6.64486 13.3386V17.0169C6.64487 17.9086 6.79688 18.3343 7.01698 18.5598C7.23438 18.7826 7.6434 18.9375 8.5096 18.9375H18.0797C18.9459 18.9375 19.3549 18.7826 19.5723 18.5598C19.7923 18.3342 19.9444 17.9083 19.9444 17.0169V11.418H9.10748C8.81599 11.418 8.5797 11.1802 8.5797 10.8868C8.57983 10.5935 8.81607 10.3555 9.10748 10.3555H19.9444V9.04816C19.9444 8.51469 19.8148 8.21207 19.6476 8.04065C19.482 7.87099 19.1919 7.74078 18.6776 7.74078H12.0979C11.8066 7.74063 11.5703 7.50266 11.5701 7.20953C11.5701 6.91622 11.8065 6.67843 12.0979 6.67828H18.6776C19.3595 6.67828 19.9675 6.85337 20.4001 7.29669C20.8309 7.73825 21 8.35566 21 9.04816V17.0169C21 17.964 20.8533 18.7642 20.3258 19.3048C19.7956 19.8482 19.0079 20 18.0797 20H8.5096C7.58145 20 6.79375 19.8482 6.26345 19.3048C5.73589 18.7642 5.58931 17.9641 5.5893 17.0169ZM5.5893 10.8868L5.58312 10.6492C5.52395 9.49118 5.03223 8.79601 4.4585 8.37268C3.90016 7.96087 3.23274 7.7855 2.73188 7.74805L2.52778 7.74078L2.4216 7.72937C2.18116 7.67991 2.00019 7.46613 2 7.20953C2 6.91613 2.23629 6.67828 2.52778 6.67828L2.75765 6.67206C3.87818 6.61211 4.55314 6.11337 4.96772 5.52344C5.42924 4.86654 5.5893 4.06112 5.5893 3.53125C5.5893 3.23785 5.8256 3 6.11708 3C6.372 3.0002 6.58439 3.18235 6.63352 3.42438L6.64486 3.53125L6.65207 3.74188C6.68887 4.25997 6.86153 4.94859 7.26541 5.52344C7.70756 6.15266 8.44609 6.67823 9.70535 6.67828C9.99683 6.67828 10.2331 6.91613 10.2331 7.20953C10.2329 7.50275 9.9967 7.74078 9.70535 7.74078C8.44619 7.74084 7.70758 8.26544 7.26541 8.89459C6.80395 9.55139 6.6449 10.3569 6.64486 10.8868L6.63352 10.9937C6.58447 11.2358 6.37208 11.4178 6.11708 11.418C5.86189 11.418 5.64866 11.2359 5.59961 10.9937L5.5893 10.8868ZM6.11605 5.66144C6.03232 5.82273 5.93781 5.98247 5.82948 6.13666C5.52907 6.56421 5.13319 6.9443 4.62961 7.22821C4.78348 7.31274 4.93607 7.40812 5.08317 7.51666C5.49482 7.82048 5.86101 8.21741 6.13563 8.72028C6.21472 8.57138 6.30343 8.42401 6.40365 8.28137C6.69715 7.86368 7.08137 7.49025 7.56847 7.2085C7.08156 6.92674 6.69705 6.55426 6.40365 6.13666C6.2952 5.98231 6.19984 5.82291 6.11605 5.66144Z" fill="#0080FF"/>
</svg>
