<svg width="296" height="64" viewBox="0 0 296 64" fill="none" xmlns="http://www.w3.org/2000/svg">
<path d="M35.5596 0.829099C30.4277 1.07812 25.4375 2.52832 21.2041 4.99902C17.3271 7.25488 14.1631 10.2285 11.7803 13.8369C11.292 14.5742 10.4863 15.9463 10.4863 16.0391C10.4863 16.0684 10.4033 16.1514 10.3008 16.2197C10.0371 16.3906 8.56738 17.5869 7.89844 18.1777C7.18555 18.7978 5.9502 20.0381 5.18359 20.8926C2.92773 23.417 2.03906 24.7012 1.34082 26.459C0.945312 27.4502 0.891602 27.7334 0.891602 28.998C0.891602 30.6826 0.974609 30.9902 1.65332 31.708C2.30273 32.4014 2.25391 32.3086 2.11719 32.6162C1.89746 33.124 1.5459 34.2764 1.43848 34.8721C1.3457 35.3945 1.33105 35.6338 1.33105 36.7861C1.33105 38.1826 1.38965 38.8369 1.62402 40.2041C1.89746 41.7812 2.28809 43.0312 2.89355 44.2812C3.17188 44.8477 3.91406 46.0732 4.27539 46.5566C5.22266 47.8164 6.91699 49.1103 8.11816 49.4863C8.30371 49.5449 8.40137 49.6133 8.48926 49.7402C8.69922 50.0527 9.5 50.8535 9.80762 51.0586C10.4375 51.4834 11.2041 51.6738 11.9365 51.5957C12.3125 51.5518 12.3174 51.5518 12.415 51.6836C13.3037 52.875 13.5723 53.2266 13.9482 53.6758C18.04 58.5879 23.416 61.8789 29.5293 63.2168C35.916 64.6182 42.7617 63.8125 49.6709 60.8584C51.5654 60.0478 54.0361 58.7148 55.9404 57.4795L56.6436 57.0205L57.0879 57.1719C58.7676 57.7529 60.4326 57.8115 62.0977 57.3623C63.2549 57.0449 64.8613 56.2246 65.0518 55.8535C65.1055 55.751 65.2373 55.6533 65.4814 55.5312C68.1523 54.1934 70.1299 51.5908 71.0283 48.2314C71.375 46.9228 71.541 45.6631 71.541 44.2568C71.541 42.0986 71.1162 40.043 70.3008 38.2168C70.1689 37.9238 70.0469 37.6162 70.0322 37.5283C69.9834 37.2891 69.5391 36.2588 69.2656 35.7363C69.1289 35.4824 68.8506 35.0137 68.6406 34.6963L68.2646 34.1201L68.3135 33.8955C68.3818 33.6074 68.2842 31.6934 68.1523 30.6826C68.0156 29.6377 67.7861 28.3437 67.6689 27.9727L67.5664 27.6553L67.7031 27.5576C67.957 27.3769 68.1719 27.1133 68.3184 26.8008C68.5088 26.4053 68.5088 26.1221 68.3232 25.1894C67.9326 23.2021 67.293 21.1367 66.5068 19.3301C66.1748 18.5635 65.2861 16.8301 64.8809 16.1562C61.668 10.79 56.8535 6.52734 50.9648 3.82715C46.1748 1.625 40.7695 0.575192 35.5596 0.829099ZM39.3438 2.29394C44.8027 2.66992 50.1494 4.48144 54.6514 7.47949C60.2129 11.1855 64.2803 16.4736 66.1846 22.4795C66.541 23.5977 66.9707 25.4189 67.0586 26.166L67.0879 26.4394L66.8486 26.5664C66.5361 26.7373 66.043 26.8691 65.1494 27.0156C62.7715 27.416 61.2041 27.4941 58.5088 27.3477C57.4883 27.2891 56.0039 27.2305 55.2129 27.2158C53.6309 27.1816 53.0498 27.1377 52.4395 26.9912C52.2148 26.9424 51.9561 26.8984 51.8633 26.8984C51.7461 26.8984 51.6875 26.874 51.668 26.8105C51.5898 26.5469 51.2139 25.8828 50.9062 25.4824C49.793 24.0127 48.3818 22.6748 46.7461 21.5469C45.374 20.5996 42.9863 19.3057 41.2236 18.5586C40.208 18.1289 38.6943 17.5625 37.3174 17.1035C31.8682 15.292 27.4541 14.5742 21.7412 14.5791C20.8281 14.5791 19.7393 14.6035 19.3242 14.6377C17.498 14.7744 14.793 15.1357 13.2256 15.4531C12.7617 15.5459 12.3711 15.6143 12.3564 15.6045C12.3467 15.5898 12.542 15.2578 12.791 14.8672C14.4072 12.3232 16.7266 9.84765 19.2852 7.93847C21.2188 6.49804 23.6064 5.18457 25.9453 4.27636C30.1445 2.6455 34.6855 1.97168 39.3438 2.29394ZM23.2305 16.0098C27.1758 16.1562 29.5293 16.4541 32.5322 17.1816C35.0859 17.8018 38.4697 18.9102 40.7256 19.8721C42.2441 20.5215 44.3877 21.6641 45.5938 22.4697C47.6885 23.8711 49.8125 25.9121 50.3496 27.0449C50.4961 27.3574 50.4961 27.3769 50.501 28.0947C50.501 29.6475 50.0859 30.9023 48.9385 32.8066C48.3574 33.7637 48.2061 33.9639 47.5762 34.5889C46.6826 35.4727 45.8672 36.0537 44.5049 36.7568C43.6357 37.2109 42.9619 37.4893 42.1709 37.7139C41.0771 38.0312 39.1191 38.4072 37.9766 38.5244C37.6689 38.5537 37.2881 38.6074 37.1367 38.6416L36.8535 38.7002V37.7139C36.8535 36.6592 36.6631 33.9541 36.541 33.2705C36.3945 32.4502 36.1406 31.9473 35.6377 31.4834C35.1396 31.0195 34.5586 30.8779 33.9727 31.0732C33.626 31.1904 33.2012 31.5908 32.9766 32.0205C32.7275 32.499 32.6299 32.9336 32.4785 34.2373C32.376 35.1602 32.3467 35.6728 32.3271 36.9912C32.3125 37.8848 32.293 38.6172 32.2832 38.6172C32.2734 38.6172 31.7559 38.5195 31.1309 38.3975C28.8896 37.9629 27.7568 37.7969 26.1602 37.665C25.6377 37.6211 24.749 37.5332 24.1826 37.46C23.6211 37.3916 22.9229 37.3232 22.6396 37.3135L22.1172 37.2891L22.127 35.5215C22.1318 33.6416 22.1074 33.3047 21.8779 32.2695C21.6387 31.1709 21.2871 30.541 20.6963 30.1406C20.5986 30.0723 20.4473 29.9648 20.3545 29.9014C19.7783 29.4814 19.041 30.126 18.6162 31.4199C18.1816 32.7529 18.0059 33.9004 17.9277 35.8926L17.8936 36.7617L17.4492 36.7373C16.5654 36.6885 16.4043 36.6689 15.4912 36.4932C14.1045 36.2344 13.543 36.0879 10.4814 35.2187C9.16309 34.8428 8.01562 34.3643 6.46777 33.5391C4.45117 32.46 3.4502 31.6934 2.62988 30.6094L2.3418 30.2236L2.30762 29.75C2.25879 29.1055 2.30762 28.0117 2.40527 27.6699C2.51758 27.2646 2.87402 26.4053 3.1377 25.8975C4.22168 23.832 7.41016 20.3213 10.8037 17.4453L11.0967 17.1963L11.585 17.167C11.873 17.1523 12.3955 17.0742 12.8545 16.9717C14.9492 16.5029 18.1328 16.0928 20.252 16.0146C21.6924 15.9561 21.834 15.9561 23.2305 16.0098ZM66.4482 28.2998C66.5605 28.5928 66.8828 31.6396 66.8828 32.4014V32.5723L66.6338 32.3477C65.5449 31.3711 64.124 30.624 62.7568 30.3164C62.0098 30.1504 62.0879 30.2285 61.9854 29.4863C61.9365 29.1348 61.9023 28.8369 61.9121 28.8271C61.9219 28.8174 62.2441 28.7832 62.6348 28.7539C63.8457 28.6611 65.4375 28.4121 66.0771 28.2217C66.3262 28.1436 66.3945 28.1582 66.4482 28.2998ZM52.4297 28.4316C53.0498 28.5537 53.8066 28.6123 55.4082 28.6465L56.9463 28.6807L56.9805 29.0713C57.0439 29.7402 57.1123 30.1699 57.1855 30.3066C57.2246 30.3799 57.2686 30.5361 57.2881 30.6582L57.3174 30.8779L56.8486 31.1172C55.0957 32.001 53.416 33.6123 52.2051 35.5703C51.1699 37.2402 50.3643 39.4033 50.0127 41.4492C49.6953 43.2852 49.6611 45.2871 49.9199 47.0644C50.1006 48.2949 50.5107 49.7988 50.9697 50.9023C51.8242 52.958 53.1914 54.7695 54.7734 55.9316C54.9736 56.0781 55.1592 56.2197 55.1787 56.2393C55.2031 56.2637 54.9395 56.4541 54.5928 56.6689C50.7256 59.0762 46.707 60.7705 42.7715 61.6592C40.3203 62.2109 38.1963 62.4551 35.7793 62.4551C34.3633 62.46 33.4111 62.4014 32.166 62.2451C24.7344 61.3076 18.2354 57.3721 13.7334 51.0879C11.043 47.3379 9.05566 42.7139 8.04004 37.8359C7.91309 37.2451 7.6543 35.834 7.6543 35.7559C7.6543 35.7168 7.8252 35.7705 8.1084 35.8877C8.77246 36.1758 9.51953 36.4199 11.0234 36.835C13.7822 37.6064 13.6943 37.5869 15.7842 37.8848C16.5361 37.9922 17.3174 38.1094 17.5176 38.1436L17.8838 38.207L17.8936 38.7637C17.9131 39.6719 18.0059 41.5176 18.0596 42.0742C18.1621 43.0801 18.416 43.7539 18.8701 44.2129C19.1631 44.5107 19.373 44.5937 19.7637 44.5644C20.1201 44.54 20.3643 44.3789 20.6328 43.998C21.2871 43.0605 21.7314 41.5225 21.9121 39.5693C21.9414 39.2471 21.9756 38.8857 21.9902 38.7686C22.0195 38.5293 21.9561 38.5391 22.6689 38.6807C23.167 38.7832 24.8809 38.9834 26.1113 39.0811C27.8105 39.2178 31.5068 39.7451 32.0098 39.9209L32.2637 40.0088L32.2832 40.7168C32.3271 42.1182 32.6787 43.6318 33.123 44.3398C33.3086 44.6328 33.7188 45.0527 33.9531 45.1894C34.5391 45.5312 35.3252 45.3799 35.8477 44.8184C36.4238 44.2031 36.6582 43.2021 36.7461 41C36.7656 40.4971 36.7949 40.0771 36.8096 40.0576C36.8291 40.043 37.1465 40.0088 37.5176 39.9844C39.0752 39.8721 41.5312 39.4033 42.9521 38.9492C43.6064 38.7393 44.1338 38.5195 44.9785 38.0947C46.4727 37.3477 47.6006 36.5615 48.5723 35.5898C49.251 34.916 49.5293 34.5498 50.1641 33.4902C51.2578 31.6738 51.7119 30.4531 51.8486 28.9834C51.9023 28.417 51.9219 28.3144 51.9854 28.334C52.0293 28.3486 52.2295 28.3926 52.4297 28.4316ZM59.9053 28.832L60.6182 28.8662L60.6768 29.3936C60.7061 29.6865 60.7451 29.9551 60.7598 29.9893C60.7793 30.043 60.6572 30.0723 60.2031 30.1162C59.8857 30.1504 59.3926 30.2236 59.1143 30.2871C58.7773 30.3652 58.5967 30.3848 58.5771 30.3506C58.5576 30.3262 58.5283 30.1553 58.5088 29.9795C58.4893 29.8037 58.4355 29.5352 58.3867 29.3887C58.3379 29.2422 58.2842 29.0322 58.2695 28.9297L58.2451 28.7393L58.7188 28.7686C58.9775 28.7881 59.5146 28.8174 59.9053 28.832ZM62.1221 31.6152C62.5566 31.6934 63.377 31.9375 63.5625 32.0498L63.6846 32.123L63.5625 32.0986C61.1943 31.6006 58.9141 32.1914 56.873 33.8369C53.25 36.7519 51.668 42.7676 53.1377 48.0508C54.29 52.1914 56.9512 55.1455 60.3398 56.0439L60.8525 56.1807L60.4619 56.2197C59.959 56.2686 59.0557 56.2246 58.5381 56.1221C56.8047 55.7852 55.125 54.6914 53.8408 53.0703C52.376 51.2148 51.4531 48.6904 51.209 45.8682C51.1357 45.0478 51.1748 43.2949 51.2773 42.4795C51.7168 39.1396 53.0791 36.1807 55.1201 34.125C57.1514 32.084 59.6611 31.1807 62.1221 31.6152ZM3.97754 33.7002C4.34863 33.9541 4.68066 34.1689 4.71484 34.1787C4.76367 34.1934 4.76855 34.2471 4.72461 34.4424C4.53906 35.2773 4.48535 36.332 4.57812 37.2402C4.66602 38.0557 4.91992 39.623 5.14453 40.7656C5.5791 42.9531 6.02344 44.4326 6.75098 46.1611C6.95605 46.6445 7.16602 47.1426 7.21484 47.2695L7.3125 47.5039L7.06836 47.3281C6.31641 46.7861 5.62305 46.0586 5.09082 45.2578C3.78223 43.2754 3.18164 41.542 2.83496 38.7637C2.72754 37.875 2.71289 35.4971 2.81055 34.8672C2.90332 34.2764 3.20605 33.2461 3.28418 33.2461C3.29395 33.2461 3.60645 33.4512 3.97754 33.7002ZM63.2695 33.4853C66.6533 34.2666 69.3096 37.7041 69.9834 42.1816C70.1494 43.2656 70.1592 45.126 70.0078 46.1855C69.4219 50.3311 67.1123 53.5879 64.0557 54.5791C63.4307 54.7842 62.9814 54.8476 62.2197 54.8476C61.3848 54.8525 60.9697 54.7891 60.252 54.5547C56.3701 53.29 53.6846 48.334 54.0312 43.0703C54.1533 41.1758 54.5928 39.5156 55.3643 37.9971C56.6045 35.5654 58.4746 33.9687 60.6328 33.4951C61.3018 33.3535 61.3164 33.3486 62.1221 33.3682C62.6201 33.3828 62.9863 33.417 63.2695 33.4853ZM6.14062 35.0918C6.16504 35.1943 6.18945 35.3408 6.18945 35.4287C6.18945 35.6045 6.37988 36.7324 6.55566 37.6162C7 39.8379 7.60059 41.9228 8.38672 44.0127C8.62598 44.6475 8.79199 45.0527 9.23145 46.0635C9.63672 47.001 10.5596 48.7588 11.2383 49.8721C11.4482 50.2187 11.4092 50.2529 10.9795 50.0918C10.3301 49.8525 9.6123 49.0469 9.06543 47.9482C8.71875 47.25 7.72266 44.8721 7.4541 44.0908C6.93164 42.5771 6.46289 40.4678 6.07227 37.8603C5.88672 36.625 5.83789 35.9414 5.89648 35.3945C5.9209 35.1406 5.94531 34.916 5.94531 34.8965C5.94531 34.8769 5.97949 34.8721 6.01855 34.8867C6.05762 34.9014 6.11133 34.9941 6.14062 35.0918Z" fill="white"/>
<path d="M24.7637 49.8037C24.085 49.8818 23.4453 50.1504 23.2402 50.4385C23.123 50.6094 22.9814 51.3906 22.9766 51.8984C22.9717 52.6943 23.2012 53.4316 23.6846 54.1543C24.1289 54.8232 24.6807 55.2627 25.5596 55.6533C26.8389 56.2148 27.7764 56.2881 28.8506 55.9072C29.9199 55.5264 30.7549 54.7842 31.2383 53.7832C31.5508 53.1338 31.6875 52.6602 31.6924 52.2207L31.6973 51.8301L31.3701 51.5273C30.8379 51.0342 30.0518 50.624 28.8945 50.2383C27.7422 49.8525 25.9551 49.6621 24.7637 49.8037ZM26.0137 51.1367C26.7266 51.1758 27.8594 51.3809 28.4941 51.5859C28.8066 51.6885 29.3291 51.9082 29.6514 52.0693C30.3496 52.4209 30.3398 52.3916 29.9736 53.1436C29.6709 53.7637 29.3633 54.0908 28.8164 54.374C28.2744 54.6572 27.8936 54.7451 27.3809 54.7158C26.917 54.6865 26.5947 54.5889 25.9355 54.2666C25.1982 53.9102 24.71 53.3877 24.4365 52.6602C24.3047 52.3135 24.2852 52.2012 24.2852 51.7666C24.2803 51.4443 24.2998 51.249 24.3389 51.21C24.3975 51.1514 25.1299 51.0781 25.4033 51.1025C25.4863 51.1074 25.7598 51.1269 26.0137 51.1367Z" fill="white"/>
<path d="M113.224 42.3464L112.997 48.7772L92.1339 48.8225L91.771 45.6071L101.658 32.0208L91 31.6585L91.2268 25.1371L112.135 25.6805L112.725 29.0771L103.155 42.3464H113.224Z" fill="white"/>
<path d="M141.965 36.9572C141.965 37.8327 141.905 38.814 141.784 39.9009L125.501 40.082C125.743 41.1991 126.333 42.12 127.27 42.8446C128.208 43.539 129.357 43.8862 130.717 43.8862C133.136 43.8862 135.404 43.071 137.52 41.4406L140.831 46.1958C139.622 47.4035 138.065 48.3395 136.16 49.0037C134.285 49.6679 132.274 50 130.128 50C126.378 50 123.355 48.898 121.057 46.694C118.759 44.4598 117.61 41.3652 117.61 37.41C117.61 33.7568 118.774 30.7829 121.102 28.4884C123.43 26.1636 126.393 25.0012 129.992 25.0012C133.771 25.0012 136.704 26.0881 138.79 28.2619C140.907 30.4055 141.965 33.304 141.965 36.9572ZM134.527 34.5116C134.315 33.4549 133.832 32.6095 133.076 31.9755C132.35 31.3415 131.398 31.0245 130.218 31.0245C128.979 31.0245 127.935 31.3717 127.089 32.0661C126.272 32.7303 125.758 33.5757 125.547 34.6022L134.527 34.5116Z" fill="white"/>
<path d="M172.129 49.0942H165.054L164.963 45.2901C163.119 48.0979 160.428 49.5018 156.89 49.5018C153.504 49.5018 150.797 48.3998 148.772 46.1958C146.746 43.9617 145.733 40.9274 145.733 37.093C145.733 33.4096 146.836 30.4357 149.044 28.1714C151.251 25.8768 154.048 24.7295 157.434 24.7295C160.609 24.7295 163.043 25.9825 164.736 28.4884V24.186L171.993 24.3672L172.129 49.0942ZM163.285 41.6218C164.313 40.4443 164.827 39.0102 164.827 37.3195C164.827 35.6287 164.298 34.2097 163.24 33.0624C162.212 31.9151 160.851 31.3415 159.158 31.3415C157.465 31.3415 156.074 31.9 154.985 33.0171C153.927 34.1342 153.398 35.5683 153.398 37.3195C153.398 39.131 153.927 40.5953 154.985 41.7124C156.043 42.8295 157.434 43.388 159.158 43.388C160.881 43.388 162.257 42.7993 163.285 41.6218Z" fill="white"/>
<path d="M204.394 35.8703C204.394 39.6744 204.212 43.9013 203.85 48.5508L196.547 48.3244C196.729 46.1506 196.82 42.3615 196.82 36.9572C196.82 35.206 196.427 33.8927 195.64 33.0171C194.884 32.1114 193.796 31.6585 192.375 31.6585C191.105 31.6585 189.926 32.1567 188.837 33.153C187.749 34.1493 186.857 35.4778 186.161 37.1383L186.343 49.0037L179.041 49.3207L178.723 23.2803L185.934 23.0991L186.025 29.2583C188.384 26.1485 191.211 24.5936 194.507 24.5936C197.712 24.5936 200.161 25.6051 201.854 27.6279C203.547 29.6206 204.394 32.368 204.394 35.8703Z" fill="white"/>
<path d="M234.649 47.0563L226.893 49.5471L218.503 40.3084L218.639 48.6867H211.155L210.475 13.1812H218.14L218.412 33.5153L227.075 24.5031L234.422 26.9033L224.444 36.5496L234.649 47.0563Z" fill="white"/>
<path d="M263.599 49.4565L256.342 49.4113L256.206 44.4749C253.969 47.645 251.066 49.2301 247.498 49.2301C244.716 49.2301 242.57 48.5055 241.058 47.0563C239.576 45.6071 238.73 43.539 238.518 40.8519C238.427 39.9461 238.382 38.7083 238.382 37.1383L238.518 25.3635L246.047 25.2277L245.956 37.6365C245.956 40.7462 247.271 42.3011 249.902 42.3011C251.111 42.3011 252.321 41.818 253.53 40.8519C254.77 39.8858 255.617 38.6781 256.07 37.2289L256.025 25.4088L263.554 25.59L263.599 49.4565Z" fill="white"/>
<path d="M295.856 35.8703C295.856 39.6744 295.675 43.9013 295.312 48.5508L288.01 48.3244C288.191 46.1506 288.282 42.3615 288.282 36.9572C288.282 35.206 287.889 33.8927 287.103 33.0171C286.347 32.1114 285.258 31.6585 283.837 31.6585C282.567 31.6585 281.388 32.1567 280.3 33.153C279.211 34.1493 278.319 35.4778 277.624 37.1383L277.805 49.0037L270.503 49.3207L270.185 23.2803L277.397 23.0991L277.488 29.2583C279.846 26.1485 282.673 24.5936 285.969 24.5936C289.174 24.5936 291.623 25.6051 293.316 27.6279C295.01 29.6206 295.856 32.368 295.856 35.8703Z" fill="white"/>
</svg>
