<svg width="24" height="24" viewBox="0 0 24 24" fill="none" xmlns="http://www.w3.org/2000/svg">
<path d="M18.6518 16.4446C19.5308 15.129 20 13.5823 20 12H17.7143C17.7143 13.1302 17.3791 14.235 16.7513 15.1747C16.1234 16.1144 15.2309 16.8468 14.1868 17.2793C13.1426 17.7118 11.9937 17.825 10.8852 17.6045C9.77674 17.384 8.75855 16.8398 7.95939 16.0406C7.16024 15.2415 6.616 14.2233 6.39552 13.1148C6.17503 12.0063 6.28819 10.8574 6.72069 9.81323C7.15319 8.7691 7.88561 7.87664 8.82532 7.24874C9.76503 6.62085 10.8698 6.28571 12 6.28571V4C10.4178 4 8.87103 4.46919 7.55544 5.34825C6.23985 6.2273 5.21447 7.47672 4.60897 8.93853C4.00347 10.4003 3.84504 12.0089 4.15372 13.5607C4.4624 15.1126 5.22433 16.538 6.34315 17.6569C7.46197 18.7757 8.88743 19.5376 10.4393 19.8463C11.9911 20.155 13.5997 19.9965 15.0615 19.391C16.5233 18.7855 17.7727 17.7601 18.6518 16.4446Z" fill="#E9E9E9"/>
</svg>

