<svg width="256" height="256" viewBox="0 0 256 256" fill="none" xmlns="http://www.w3.org/2000/svg">
<g clip-path="url(#clip0_512_284)">
<path d="M210.647 63.2033L149.568 0H46V256H210.647V63.2033Z" fill="url(#paint0_linear_512_284)"/>
<g filter="url(#filter0_d_512_284)">
<path d="M149.568 62.6722V0L210.647 62.6722H149.568Z" fill="#0093E6"/>
</g>
<path d="M96.6966 185.892L94.863 168.353L111.083 122.781C112.964 124.889 115.126 126.566 117.571 127.812C120.016 129.058 122.461 129.825 124.905 130.112L109.391 173.672L96.6966 185.892ZM161.013 185.892L148.319 173.672L132.804 130.112C135.249 129.825 137.694 129.058 140.138 127.812C142.583 126.566 144.746 124.889 146.626 122.781L162.846 168.353L161.013 185.892ZM128.855 124.65C123.307 124.65 118.558 122.637 114.609 118.612C110.66 114.586 108.685 109.746 108.685 104.092C108.685 99.4912 109.908 95.5138 112.353 92.1593C114.797 88.8049 117.712 86.4568 121.097 85.115V71.1701H136.612V85.115C139.997 86.4568 142.912 88.8049 145.357 92.1593C147.802 95.5138 149.024 99.4912 149.024 104.092C149.024 109.746 147.049 114.586 143.1 118.612C139.151 122.637 134.402 124.65 128.855 124.65ZM128.855 108.692C130.077 108.692 131.135 108.237 132.028 107.326C132.922 106.416 133.368 105.338 133.368 104.092C133.368 102.846 132.922 101.767 132.028 100.857C131.135 99.9464 130.077 99.4912 128.855 99.4912C127.632 99.4912 126.575 99.9464 125.681 100.857C124.788 101.767 124.341 102.846 124.341 104.092C124.341 105.338 124.788 106.416 125.681 107.326C126.575 108.237 127.632 108.692 128.855 108.692Z" fill="white"/>
<rect x="92.7385" y="205.012" width="117.909" height="33.9917" fill="#004972"/>
<path d="M104 221.513C104 219.593 104.364 217.922 105.092 216.499C105.821 215.077 106.83 213.971 108.121 213.183C109.429 212.394 110.943 212 112.665 212C114.469 212 116.017 212.42 117.308 213.26C118.599 214.1 119.625 215.282 120.386 216.808L116.811 218.736C116.348 217.811 115.777 217.125 115.098 216.679C114.436 216.217 113.633 215.985 112.69 215.985C111.763 215.985 110.96 216.217 110.281 216.679C109.619 217.125 109.098 217.759 108.717 218.582C108.353 219.405 108.171 220.373 108.171 221.487C108.171 222.618 108.353 223.595 108.717 224.418C109.098 225.241 109.619 225.884 110.281 226.346C110.96 226.792 111.763 227.015 112.69 227.015C113.65 227.015 114.461 226.792 115.123 226.346C115.801 225.884 116.372 225.189 116.836 224.264L120.411 226.192C119.65 227.735 118.615 228.926 117.308 229.766C116 230.589 114.461 231 112.69 231C110.968 231 109.454 230.606 108.146 229.817C106.839 229.029 105.821 227.923 105.092 226.501C104.364 225.078 104 223.415 104 221.513Z" fill="white"/>
<path d="M121.772 221.513C121.772 219.593 122.136 217.922 122.865 216.499C123.593 215.077 124.602 213.971 125.893 213.183C127.201 212.394 128.716 212 130.437 212C132.241 212 133.789 212.42 135.08 213.26C136.371 214.1 137.397 215.282 138.158 216.808L134.583 218.736C134.12 217.811 133.549 217.125 132.87 216.679C132.208 216.217 131.405 215.985 130.462 215.985C129.535 215.985 128.732 216.217 128.053 216.679C127.391 217.125 126.87 217.759 126.489 218.582C126.125 219.405 125.943 220.373 125.943 221.487C125.943 222.618 126.125 223.595 126.489 224.418C126.87 225.241 127.391 225.884 128.053 226.346C128.732 226.792 129.535 227.015 130.462 227.015C131.422 227.015 132.233 226.792 132.895 226.346C133.573 225.884 134.145 225.189 134.608 224.264L138.183 226.192C137.422 227.735 136.387 228.926 135.08 229.766C133.772 230.589 132.233 231 130.462 231C128.74 231 127.226 230.606 125.918 229.817C124.611 229.029 123.593 227.923 122.865 226.501C122.136 225.078 121.772 223.415 121.772 221.513Z" fill="white"/>
<path d="M145.932 214.417H147.868L142.729 230.64H138.558L144.864 212.36H149.135L155.441 230.64H151.121L145.932 214.417ZM151.816 227.426H142.704V223.827H151.816V227.426Z" fill="white"/>
<path d="M168.804 221.487C168.804 219.807 168.374 218.513 167.513 217.605C166.669 216.696 165.461 216.242 163.888 216.242H161.43V226.758H163.888C165.461 226.758 166.669 226.304 167.513 225.395C168.374 224.487 168.804 223.184 168.804 221.487ZM171.932 226.424C171.237 227.778 170.219 228.823 168.879 229.56C167.554 230.28 165.966 230.64 164.112 230.64H157.334V212.36H164.112C165.966 212.36 167.554 212.72 168.879 213.44C170.219 214.16 171.237 215.205 171.932 216.576C172.644 217.931 173 219.567 173 221.487C173 223.407 172.644 225.052 171.932 226.424Z" fill="white"/>
</g>
<defs>
<filter id="filter0_d_512_284" x="120.368" y="-21.2" width="111.479" height="113.072" filterUnits="userSpaceOnUse" color-interpolation-filters="sRGB">
<feFlood flood-opacity="0" result="BackgroundImageFix"/>
<feColorMatrix in="SourceAlpha" type="matrix" values="0 0 0 0 0 0 0 0 0 0 0 0 0 0 0 0 0 0 127 0" result="hardAlpha"/>
<feOffset dx="-4" dy="4"/>
<feGaussianBlur stdDeviation="12.6"/>
<feComposite in2="hardAlpha" operator="out"/>
<feColorMatrix type="matrix" values="0 0 0 0 0 0 0 0 0 0 0 0 0 0 0 0 0 0 0.25 0"/>
<feBlend mode="normal" in2="BackgroundImageFix" result="effect1_dropShadow_512_284"/>
<feBlend mode="normal" in="SourceGraphic" in2="effect1_dropShadow_512_284" result="shape"/>
</filter>
<linearGradient id="paint0_linear_512_284" x1="46" y1="256" x2="278.94" y2="106.184" gradientUnits="userSpaceOnUse">
<stop stop-color="#00A3FF"/>
<stop offset="1" stop-color="#004369"/>
</linearGradient>
<clipPath id="clip0_512_284">
<rect width="256" height="256" fill="white"/>
</clipPath>
</defs>
</svg>
