<svg width="24" height="24" viewBox="0 0 24 24" fill="none" xmlns="http://www.w3.org/2000/svg">
<path fill-rule="evenodd" clip-rule="evenodd" d="M4.26035 4.26035C4.60748 3.91322 5.1703 3.91322 5.51743 4.26035L12.6285 11.3715C12.9757 11.7186 12.9757 12.2814 12.6285 12.6285L5.51743 19.7397C5.1703 20.0868 4.60748 20.0868 4.26035 19.7397C3.91322 19.3925 3.91322 18.8297 4.26035 18.4826L10.7429 12L4.26035 5.51743C3.91322 5.1703 3.91322 4.60748 4.26035 4.26035ZM11.3715 4.26035C11.7186 3.91322 12.2814 3.91322 12.6285 4.26035L19.7397 11.3715C20.0868 11.7186 20.0868 12.2814 19.7397 12.6285L12.6285 19.7397C12.2814 20.0868 11.7186 20.0868 11.3715 19.7397C11.0243 19.3925 11.0243 18.8297 11.3715 18.4826L17.854 12L11.3715 5.51743C11.0243 5.1703 11.0243 4.60748 11.3715 4.26035Z" fill="#E9E9E9"/>
</svg>
