<svg width="24" height="24" viewBox="0 0 24 24" fill="none" xmlns="http://www.w3.org/2000/svg">
<path d="M20 7.2H4C4 5.92 5.06667 5.6 5.6 5.6H10.4C10.4 5.06667 10.72 4 12 4C13.28 4 13.6 5.06667 13.6 5.6H18.4C19.68 5.6 20 6.66667 20 7.2Z" fill="#E9E9E9"/>
<path d="M7.76629 19.3315L5.75522 9.73152C5.67395 9.24389 6.04999 8.8 6.54434 8.8H17.4556C17.95 8.8 18.326 9.24389 18.2447 9.73152L15.9891 19.3315C15.9248 19.7173 15.5911 20 15.2 20H8.5554C8.16433 20 7.83058 19.7173 7.76629 19.3315Z" fill="#E9E9E9"/>
</svg>

