<svg width="24" height="24" viewBox="0 0 24 24" fill="none" xmlns="http://www.w3.org/2000/svg">
<path d="M14.7734 18.7879H22.6928M22.6928 18.7879L19.2988 15.3939M22.6928 18.7879L19.2988 22.1819" stroke="white" stroke-width="1.5"/>
<path d="M20.4303 10.8687V5.21204H2.3291V18.7879L13.0075 18.7879M7.60137 9.51206V8.63328C7.60137 8.38074 7.20352 7.81507 6.47005 7.81507C5.73658 7.81507 5.33873 8.2387 5.33873 8.63328V10.3897C5.33873 10.8514 5.56499 11.7747 6.47005 11.7747C7.37511 11.7747 7.60137 12.906 7.60137 13.4717V14.603C7.60137 14.9801 7.37511 15.7343 6.47005 15.7343C5.56499 15.7343 5.33873 14.9801 5.33873 14.603M9.86402 7.1239L10.9953 16.1745L12.6923 7.1239M17.2176 9.51206V8.63328C17.2176 8.36054 16.9914 7.81507 16.0863 7.81507C15.1812 7.81507 14.955 8.36054 14.955 8.63328V14.603C14.955 14.9801 15.1812 15.7343 16.0863 15.7343C16.9914 15.7343 17.2176 14.603 17.2176 14.603V12.2149H16.0863" stroke="white" stroke-width="1.5"/>
</svg>
