<svg width="24" height="24" viewBox="0 0 24 24" fill="none" xmlns="http://www.w3.org/2000/svg">
<path fill-rule="evenodd" clip-rule="evenodd" d="M4 5.04348C4 4.46718 4.46718 4 5.04348 4H18.9565C19.5328 4 20 4.46718 20 5.04348C20 5.61978 19.5328 6.08696 18.9565 6.08696H5.04348C4.46718 6.08696 4 5.61978 4 5.04348ZM4 12C4 11.4237 4.46718 10.9565 5.04348 10.9565H18.9565C19.5328 10.9565 20 11.4237 20 12C20 12.5763 19.5328 13.0435 18.9565 13.0435H5.04348C4.46718 13.0435 4 12.5763 4 12ZM4 18.9565C4 18.3802 4.46718 17.913 5.04348 17.913H18.9565C19.5328 17.913 20 18.3802 20 18.9565C20 19.5328 19.5328 20 18.9565 20H5.04348C4.46718 20 4 19.5328 4 18.9565Z" fill="#E9E9E9"/>
</svg>
