<svg width="24" height="24" viewBox="0 0 24 24" fill="none" xmlns="http://www.w3.org/2000/svg">
<path fill-rule="evenodd" clip-rule="evenodd" d="M6.46423 1.6333C6.81808 1.6333 7.10493 1.92015 7.10493 2.274V4.07407H8.94937C9.30322 4.07407 9.59007 4.36092 9.59007 4.71477C9.59007 5.06862 9.30322 5.35547 8.94937 5.35547H7.10493V7.15554C7.10493 7.50939 6.81808 7.79624 6.46423 7.79624C6.11038 7.79624 5.82353 7.50939 5.82353 7.15554V5.35547H3.97908C3.62523 5.35547 3.33838 5.06862 3.33838 4.71477C3.33838 4.36092 3.62523 4.07407 3.97908 4.07407H5.82353V2.274C5.82353 1.92015 6.11038 1.6333 6.46423 1.6333ZM10.5997 4.71477C10.5997 4.36092 10.8865 4.07407 11.2404 4.07407H12.6771C12.845 4.07407 13.0062 4.14 13.126 4.25766L18.0963 9.1392C18.219 9.25967 18.2881 9.42438 18.2881 9.59631V18.139C18.2881 19.1777 17.434 20.0001 16.4048 20.0001H7.7068C6.67763 20.0001 5.82353 19.1777 5.82353 18.139V9.59631C5.82353 9.24246 6.11038 8.95561 6.46423 8.95561C6.81808 8.95561 7.10493 9.24246 7.10493 9.59631V18.139C7.10493 18.4483 7.36346 18.7187 7.7068 18.7187H16.4048C16.7481 18.7187 17.0067 18.4483 17.0067 18.139V10.237H13.9197C12.8905 10.237 12.0364 9.41461 12.0364 8.37592V5.35547H11.2404C10.8865 5.35547 10.5997 5.06862 10.5997 4.71477ZM13.3178 6.24207L16.0807 8.95561H13.9197C13.5763 8.95561 13.3178 8.68524 13.3178 8.37592V6.24207Z" fill="#E9E9E9"/>
</svg>

