<svg width="24" height="24" viewBox="0 0 24 24" fill="none" xmlns="http://www.w3.org/2000/svg">
<path fill-rule="evenodd" clip-rule="evenodd" d="M6.81147 5.23077C5.94352 5.23077 5.23075 5.94204 5.23075 6.83077V16.8067L6.90591 13.4978C7.38503 12.5515 8.35163 11.9527 9.41073 11.9527H16.6537V9.10296C16.6537 8.21423 15.9409 7.50296 15.073 7.50296H12.3683C11.6313 7.50296 10.9246 7.21162 10.3996 6.69307L9.37945 5.68559C9.08364 5.39344 8.68726 5.23077 8.27554 5.23077H6.81147ZM17.8845 12.021V9.10296C17.8845 7.54465 16.6308 6.27219 15.073 6.27219H12.3683C11.9566 6.27219 11.5602 6.10952 11.2644 5.81737L10.2443 4.80989C9.71923 4.29134 9.01258 4 8.27554 4H6.81147C5.25368 4 4 5.27246 4 6.83077V19.3846C4 19.7245 4.27551 20 4.61538 20H15.9247C16.9838 20 17.9504 19.4012 18.4296 18.4548L19.6995 15.9464C20.5243 14.3171 19.5635 12.4032 17.8845 12.021ZM5.61667 18.7692H15.9247C16.5158 18.7692 17.0601 18.435 17.3315 17.8989L18.6014 15.3905C19.1161 14.374 18.3798 13.1834 17.2691 13.1834H9.41073C8.81969 13.1834 8.27538 13.5177 8.00396 14.0538L5.61667 18.7692Z" fill="#E9E9E9"/>
</svg>

