<svg width="24" height="24" viewBox="0 0 24 24" fill="none" xmlns="http://www.w3.org/2000/svg">
<path d="M15.6841 16.8421C15.6841 16.1446 15.915 15.4667 16.3408 14.9143C16.7666 14.3618 17.3633 13.9659 18.0378 13.7883C18.7123 13.6107 19.4267 13.6614 20.0693 13.9325C20.712 14.2036 21.2468 14.6798 21.5903 15.2868C21.9338 15.8939 22.0667 16.5975 21.9682 17.288C21.8697 17.9786 21.5454 18.617 21.0458 19.1038C20.5463 19.5906 19.8996 19.8983 19.2068 19.9788C18.514 20.0594 17.814 19.9084 17.216 19.5492" stroke="white" stroke-width="1.5"/>
<path d="M15.6841 12.6316V16.3158H18.842" stroke="white" stroke-width="1.5"/>
<path d="M12.5263 13.6843H2M2 13.6843L6.73684 4.21057H16.7368L21.4737 11.0527M2 13.6843V18.9474H12.5263" stroke="white" stroke-width="1.5"/>
</svg>
