<svg width="24" height="24" viewBox="0 0 24 24" fill="none" xmlns="http://www.w3.org/2000/svg">
<path fill-rule="evenodd" clip-rule="evenodd" d="M2.72663 1.57544L2.72656 21.7317H12.5482C12.2709 21.1824 12.0766 20.5841 11.9817 19.9532H8.65488V13.4321H14.9735V13.8756C15.5193 13.573 16.1179 13.354 16.752 13.236V11.6536H6.87639V19.9532H4.50506L4.50512 3.35394H6.87645V7.83328H16.3618V4.61152L19.3259 7.57568L19.3259 13.3224C19.9671 13.4875 20.5664 13.7571 21.1044 14.1121L21.1044 6.83901L15.8409 1.57544H2.72663ZM8.65495 6.05478V3.35394H14.5833V6.05478H8.65495Z" fill="white"/>
<path d="M17.8436 15.507V22.6209M17.8436 22.6209L14.2866 19.0639M17.8436 22.6209L21.4006 19.0639" stroke="white" stroke-width="1.5"/>
</svg>
