<svg width="24" height="24" viewBox="0 0 24 24" fill="none" xmlns="http://www.w3.org/2000/svg">
<path fill-rule="evenodd" clip-rule="evenodd" d="M14.4167 7.1127C12.3997 5.09577 9.12963 5.09577 7.1127 7.1127C5.09577 9.12963 5.09577 12.3997 7.1127 14.4167C9.12963 16.4336 12.3997 16.4336 14.4167 14.4167C16.4336 12.3997 16.4336 9.12963 14.4167 7.1127ZM5.98133 5.98133C8.6231 3.33956 12.9063 3.33956 15.548 5.98133C17.9984 8.4317 18.1759 12.2942 16.0806 14.9492L19.7657 18.6343C20.0781 18.9467 20.0781 19.4533 19.7657 19.7657C19.4533 20.0781 18.9467 20.0781 18.6343 19.7657L14.9492 16.0806C12.2942 18.1759 8.4317 17.9984 5.98133 15.548C3.33956 12.9063 3.33956 8.6231 5.98133 5.98133Z" fill="#E9E9E9"/>
</svg>
