<svg width="24" height="24" viewBox="0 0 24 24" fill="none" xmlns="http://www.w3.org/2000/svg">
<path d="M4.52321 4.83001L9.4679 2L10.8483 4.37008C11.6505 4.25122 12.4602 4.25936 13.2478 4.38672L14.6114 2.04551L19.2367 4.69274L17.9059 6.9778C18.2128 7.33353 18.4914 7.72214 18.736 8.14222C18.9817 8.56403 19.1826 8.99929 19.3401 9.44259H22V14.6068L19.3192 14.6068C19.0344 15.3929 18.6208 16.1353 18.0875 16.7999L19.4679 19.17L14.5232 22L13.1407 19.6262C12.2796 19.7525 11.4101 19.7325 10.5686 19.5759L9.23671 21.8627L4.61137 19.2155L5.97479 16.8745C5.71486 16.5581 5.47692 16.2171 5.2645 15.8524C5.02896 15.448 4.83458 15.0312 4.68007 14.6068L2 14.6068L2 9.44259H4.6617C4.94567 8.63979 5.3636 7.88147 5.90571 7.20376L4.52321 4.83001Z" stroke="white" stroke-width="1.5"/>
<path d="M14.8526 10.3648C15.7731 11.9453 15.2269 13.9662 13.6325 14.8786C12.0382 15.7911 9.9996 15.2496 9.07913 13.6692C8.15865 12.0887 8.7049 10.0678 10.2992 9.15532C11.8935 8.24284 13.9322 8.78435 14.8526 10.3648Z" stroke="white" stroke-width="1.5"/>
</svg>
