<svg width="24" height="24" viewBox="0 0 24 24" fill="none" xmlns="http://www.w3.org/2000/svg">
<path fill-rule="evenodd" clip-rule="evenodd" d="M5.5929 7.02504C6.81468 5.32812 8.84559 4 12 4C15.1544 4 17.1853 5.32812 18.4071 7.02504C19.6063 8.69059 20 10.6708 20 12V18.5641C20 19.3571 19.3571 20 18.5641 20H16.5128C15.7198 20 15.0769 19.3571 15.0769 18.5641V12C15.0769 11.4831 14.9168 10.694 14.4544 10.0519C14.0147 9.44111 13.2764 8.92308 12 8.92308C10.7236 8.92308 9.98532 9.44111 9.54556 10.0519C9.08321 10.694 8.92308 11.4831 8.92308 12V18.5641C8.92308 19.3571 8.2802 20 7.48718 20H5.4359C4.64287 20 4 19.3571 4 18.5641V12C4 10.6708 4.39371 8.69059 5.5929 7.02504ZM6.59171 7.74419C5.57552 9.15557 5.23077 10.8677 5.23077 12V14.6667H7.69231V12C7.69231 11.2861 7.9014 10.229 8.54675 9.33274C9.21468 8.40505 10.3225 7.69231 12 7.69231C13.6775 7.69231 14.7853 8.40505 15.4533 9.33274C16.0986 10.229 16.3077 11.2861 16.3077 12V14.6667H18.7692V12C18.7692 10.8677 18.4245 9.15557 17.4083 7.74419C16.4147 6.36419 14.7533 5.23077 12 5.23077C9.24672 5.23077 7.58532 6.36419 6.59171 7.74419ZM18.7692 15.8974H16.3077V18.5641C16.3077 18.6774 16.3995 18.7692 16.5128 18.7692H18.5641C18.6774 18.7692 18.7692 18.6774 18.7692 18.5641V15.8974ZM7.69231 15.8974H5.23077V18.5641C5.23077 18.6774 5.32261 18.7692 5.4359 18.7692H7.48718C7.60047 18.7692 7.69231 18.6774 7.69231 18.5641V15.8974Z" fill="#E9E9E9"/>
</svg>

