<svg width="24" height="24" viewBox="0 0 24 24" fill="none" xmlns="http://www.w3.org/2000/svg">
<path fill-rule="evenodd" clip-rule="evenodd" d="M5.66914 4C4.7473 4 4 4.7473 4 5.66914V9.98517C4 10.4279 4.17585 10.8524 4.48888 11.1654L12.8346 19.5111C13.4864 20.163 14.5432 20.163 15.1951 19.5111L19.5111 15.1951C20.163 14.5432 20.163 13.4864 19.5111 12.8346L11.1654 4.48888C10.8524 4.17586 10.4279 4 9.98517 4H5.66914ZM8.17285 9.56379C8.94104 9.56379 9.56379 8.94104 9.56379 8.17284C9.56379 7.40465 8.94104 6.7819 8.17285 6.7819C7.40465 6.7819 6.7819 7.40465 6.7819 8.17284C6.7819 8.94104 7.40465 9.56379 8.17285 9.56379Z" fill="#E9E9E9"/>
</svg>

