<svg width="24" height="24" viewBox="0 0 24 24" fill="none" xmlns="http://www.w3.org/2000/svg">
<path fill-rule="evenodd" clip-rule="evenodd" d="M9.9736 4.18024C10.2139 4.42056 10.2139 4.8102 9.9736 5.05053L6.10105 8.92308H14.4615C15.3805 8.92308 16.7453 9.19371 17.898 10.0237C19.0821 10.8762 20 12.2917 20 14.4615C20 16.6313 19.0821 18.0469 17.898 18.8994C16.7453 19.7294 15.3805 20 14.4615 20H12C11.6601 20 11.3846 19.7245 11.3846 19.3846C11.3846 19.0447 11.6601 18.7692 12 18.7692H14.4615C15.1836 18.7692 16.2803 18.5476 17.1789 17.9006C18.0461 17.2762 18.7692 16.2302 18.7692 14.4615C18.7692 12.6929 18.0461 11.6469 17.1789 11.0225C16.2803 10.3755 15.1836 10.1538 14.4615 10.1538H6.10105L9.9736 14.0264C10.2139 14.2667 10.2139 14.6564 9.9736 14.8967C9.73328 15.137 9.34364 15.137 9.10332 14.8967L4.18024 9.9736C3.93992 9.73328 3.93992 9.34364 4.18024 9.10332L9.10332 4.18024C9.34364 3.93992 9.73328 3.93992 9.9736 4.18024Z" fill="#E9E9E9"/>
</svg>

