<svg width="24" height="24" viewBox="0 0 24 24" fill="none" xmlns="http://www.w3.org/2000/svg">
<path fill-rule="evenodd" clip-rule="evenodd" d="M15.0749 5.90015C17.3488 8.17409 17.5818 11.7161 15.7739 14.2499C15.7964 14.269 15.8183 14.2891 15.8395 14.3103L19.6623 18.1332C19.9171 18.388 20.2739 19.0506 19.6623 19.6623C19.0506 20.2739 18.388 19.9171 18.1332 19.6623L14.3103 15.8395C14.2891 15.8183 14.269 15.7964 14.2499 15.7739C11.7161 17.5818 8.17409 17.3488 5.90015 15.0749C3.36662 12.5414 3.36662 8.43369 5.90015 5.90015C8.43369 3.36662 12.5414 3.36662 15.0749 5.90015ZM7.2 9.6C6.75817 9.6 6.4 9.95817 6.4 10.4C6.4 10.8418 6.75817 11.2 7.2 11.2H13.6C14.0418 11.2 14.4 10.8418 14.4 10.4C14.4 9.95817 14.0418 9.6 13.6 9.6H7.2Z" fill="#E9E9E9"/>
</svg>

