<svg width="24" height="24" viewBox="0 0 24 24" fill="none" xmlns="http://www.w3.org/2000/svg">
<path d="M12.9934 4C13.5697 4 14.0369 4.47969 14.0369 5.07143V10.4286H18.9566C19.5328 10.4286 20 10.9083 20 11.5V17.9286C20 18.5203 19.5328 19 18.9566 19H5.04397C4.73879 19 4.44875 18.863 4.25052 18.6247C4.05241 18.3865 3.96511 18.0706 4.01275 17.7612L6.00046 4.90402C6.0809 4.38364 6.51855 4 7.03167 4H12.9934ZM6.26675 16.8571H17.9131V12.5714H12.9934C12.4174 12.5711 11.95 12.0915 11.95 11.5V6.14286H7.92159L6.26675 16.8571Z" fill="#E9E9E9"/>
</svg>
