<svg width="24" height="24" viewBox="0 0 24 24" fill="none" xmlns="http://www.w3.org/2000/svg">
<rect x="5.94556" y="9.45996" width="1.24365" height="5.19922" rx="0.621826" fill="#FF4343"/>
<path d="M8.50984 12.8224L9.99385 6.77327C10.0331 6.61326 10.1836 6.5 10.3571 6.5H13.6793C13.936 6.5 14.1159 6.73991 14.0314 6.9695L12.7197 10.5342C12.6352 10.7638 12.8151 11.0037 13.0718 11.0037H15.1264C15.4317 11.0037 15.6077 11.3322 15.4273 11.5656L10.954 17.3542C10.7239 17.6519 10.2268 17.4582 10.2843 17.0933L10.8256 13.661C10.8593 13.4475 10.6847 13.2555 10.4568 13.2555H8.87306C8.63302 13.2555 8.45551 13.0438 8.50984 12.8224Z" fill="#FF4343"/>
<path fill-rule="evenodd" clip-rule="evenodd" d="M8.60192 8.25L8.84715 7.25H6C4.89543 7.25 4 8.14543 4 9.25V14.75C4 15.8546 4.89543 16.75 6 16.75H9.32644L9.48412 15.75H6.5C5.67157 15.75 5 15.0784 5 14.25V9.75C5 8.92157 5.67157 8.25 6.5 8.25H8.60192ZM13.4574 15.75H17.5C18.3284 15.75 19 15.0784 19 14.25V9.75C19 8.92157 18.3284 8.25 17.5 8.25H14.6256L14.9697 7.31445L14.9892 7.25H18C19.1046 7.25 20 8.14543 20 9.25V10.25H20.5C20.7761 10.25 21 10.4739 21 10.75V13.25C21 13.5261 20.7761 13.75 20.5 13.75H20V14.75C20 15.8546 19.1046 16.75 18 16.75H12.6847L13.4574 15.75Z" fill="#FF4343"/>
</svg>
