<svg width="24" height="24" viewBox="0 0 24 24" fill="none" xmlns="http://www.w3.org/2000/svg">
<rect x="5.94556" y="9.45996" width="1.24365" height="5.19922" rx="0.621826" fill="#FF4343"/>
<path fill-rule="evenodd" clip-rule="evenodd" d="M4 9.25C4 8.14543 4.89543 7.25 6 7.25H10.0675L10.1231 8.25H6.5C5.67157 8.25 5 8.92157 5 9.75V14.25C5 15.0784 5.67157 15.75 6.5 15.75H10.4409C10.2146 16.0309 10.0627 16.374 10.0155 16.75H6C4.89543 16.75 4 15.8546 4 14.75V9.25ZM13.9845 16.75H18C19.1046 16.75 20 15.8546 20 14.75V13.75H20.5C20.7761 13.75 21 13.5261 21 13.25V10.75C21 10.4739 20.7761 10.25 20.5 10.25H20V9.25C20 8.14543 19.1046 7.25 18 7.25H13.9325L13.8769 8.25H17.5C18.3284 8.25 19 8.92157 19 9.75V14.25C19 15.0784 18.3284 15.75 17.5 15.75H13.5591C13.7854 16.0309 13.9373 16.374 13.9845 16.75Z" fill="#FF4343"/>
<path d="M12 15C11.7195 15 11.4878 14.7809 11.4723 14.5008L11.0555 6.99846C11.0253 6.45622 11.4569 6 12 6C12.5431 6 12.9747 6.45622 12.9445 6.99846L12.5277 14.5008C12.5122 14.7809 12.2805 15 12 15Z" fill="#FF4343"/>
<path d="M13 17C13 17.5523 12.5523 18 12 18C11.4477 18 11 17.5523 11 17C11 16.4477 11.4477 16 12 16C12.5523 16 13 16.4477 13 17Z" fill="#FF4343"/>
</svg>
