<svg width="24" height="24" viewBox="0 0 24 24" fill="none" xmlns="http://www.w3.org/2000/svg">
<path d="M8.04492 9.45996C8.13032 9.45996 8.21286 9.47205 8.29199 9.49219L7.53418 12.585C7.31109 13.4955 8.03741 14.2413 8.8457 14.2549C8.66341 14.4995 8.37347 14.6592 8.04492 14.6592H6.9502C6.39791 14.6592 5.9502 14.2115 5.9502 13.6592V10.46C5.9502 9.90768 6.39791 9.45996 6.9502 9.45996H8.04492Z" fill="#43FF78"/>
<path d="M9.04492 13.2568H8.86816L8.78125 13.2471C8.58744 13.2035 8.45766 13.0168 8.50488 12.8232L9.04492 10.6221V13.2568Z" fill="#43FF78"/>
<path d="M8.50984 12.8224L9.99385 6.77327C10.0331 6.61326 10.1836 6.5 10.3571 6.5H13.6793C13.936 6.5 14.1159 6.73991 14.0314 6.9695L12.7197 10.5342C12.6352 10.7638 12.8151 11.0037 13.0718 11.0037H15.1264C15.4317 11.0037 15.6077 11.3322 15.4273 11.5656L10.954 17.3542C10.7239 17.6519 10.2268 17.4582 10.2843 17.0933L10.8256 13.661C10.8593 13.4475 10.6847 13.2555 10.4568 13.2555H8.87306C8.63302 13.2555 8.45551 13.0438 8.50984 12.8224Z" fill="#43FF78"/>
<path fill-rule="evenodd" clip-rule="evenodd" d="M8.60192 8.25L8.84715 7.25H6C4.89543 7.25 4 8.14543 4 9.25V14.75C4 15.8546 4.89543 16.75 6 16.75H9.32644L9.48412 15.75H6.5C5.67157 15.75 5 15.0784 5 14.25V9.75C5 8.92157 5.67157 8.25 6.5 8.25H8.60192ZM13.4574 15.75H17.5C18.3284 15.75 19 15.0784 19 14.25V9.75C19 8.92157 18.3284 8.25 17.5 8.25H14.6256L14.9697 7.31445L14.9892 7.25H18C19.1046 7.25 20 8.14543 20 9.25V10.25H20.5C20.7761 10.25 21 10.4739 21 10.75V13.25C21 13.5261 20.7761 13.75 20.5 13.75H20V14.75C20 15.8546 19.1046 16.75 18 16.75H12.6847L13.4574 15.75Z" fill="#43FF78"/>
</svg>
