<svg width="24" height="24" viewBox="0 0 24 24" fill="none" xmlns="http://www.w3.org/2000/svg">
<path fill-rule="evenodd" clip-rule="evenodd" d="M4 9.25C4 8.14543 4.89543 7.25 6 7.25H18C19.1046 7.25 20 8.14543 20 9.25V10.25H20.5C20.7761 10.25 21 10.4739 21 10.75V13.25C21 13.5261 20.7761 13.75 20.5 13.75H20V14.75C20 15.8546 19.1046 16.75 18 16.75H6C4.89543 16.75 4 15.8546 4 14.75V9.25ZM6.5 8.25H17.5C18.3284 8.25 19 8.92157 19 9.75V14.25C19 15.0784 18.3284 15.75 17.5 15.75H6.5C5.67157 15.75 5 15.0784 5 14.25V9.75C5 8.92157 5.67157 8.25 6.5 8.25Z" fill="#E9E9E9"/>
<rect x="5.94556" y="9.45996" width="3.09497" height="5.19922" rx="1" fill="#E9E9E9"/>
</svg>
