<svg width="24" height="24" viewBox="0 0 24 24" fill="none" xmlns="http://www.w3.org/2000/svg">
<path d="M5 6.98307C5 6.61488 5.29101 6.31641 5.65 6.31641C6.00899 6.31641 6.3 6.61488 6.3 6.98307V18.6667H15.1562L15.287 18.6797C15.5834 18.7417 15.8062 19.011 15.8062 19.3333C15.8062 19.6556 15.5834 19.9249 15.287 19.987L15.1562 20H5.65C5.29101 20 5 19.7015 5 19.3333V6.98307ZM8.49375 16.3503H16.7V9.19271H13.6937C13.3348 9.19271 13.0437 8.89423 13.0437 8.52604V5.33333H8.49375V16.3503ZM14.3437 7.85938H15.8126L14.3437 6.30859V7.85938ZM18 17.0169C18 17.3851 17.709 17.6836 17.35 17.6836H7.84375C7.48476 17.6836 7.19375 17.3851 7.19375 17.0169V4.66667C7.19375 4.29848 7.48476 4 7.84375 4H13.6937C13.8693 4 14.0373 4.0728 14.1597 4.20182L17.8159 8.0612C17.9337 8.18556 17.9999 8.35266 18 8.52604V17.0169Z" fill="#E9E9E9"/>
</svg>
