<svg width="24" height="24" viewBox="0 0 24 24" fill="none" xmlns="http://www.w3.org/2000/svg">
<path d="M15.9697 4.23486C16.1614 3.99844 16.4922 3.92721 16.7617 4.08252C17.0307 4.23784 17.15 4.5679 17.0625 4.86377L17.0127 4.98877L12.7256 13.1509L14.2363 16.0259C14.6728 15.2148 15.502 14.6667 16.4541 14.6665C17.8599 14.6665 19 15.8608 19 17.3335C18.9997 18.806 17.8598 19.9995 16.4541 19.9995C15.4676 19.9993 14.6138 19.4101 14.1914 18.5503L12 14.5356L9.80762 18.5503C9.38516 19.4098 8.53224 19.9993 7.5459 19.9995C6.14024 19.9995 5.00026 18.806 5 17.3335C5 15.8608 6.14008 14.6665 7.5459 14.6665C8.49782 14.6667 9.32618 15.215 9.7627 16.0259L11.2725 13.1509L6.9873 4.98877L6.9375 4.86377C6.84997 4.5679 6.96928 4.23784 7.23828 4.08252C7.50783 3.92721 7.83856 3.99844 8.03027 4.23486L8.10352 4.34521L11.999 11.7671L15.8965 4.34521L15.9697 4.23486ZM7.5459 16.0005C6.84299 16.0005 6.27246 16.5971 6.27246 17.3335C6.27272 18.0696 6.84315 18.6665 7.5459 18.6665C8.24844 18.6662 8.8181 18.0695 8.81836 17.3335C8.81836 16.5973 8.2486 16.0007 7.5459 16.0005ZM16.4541 16.0005C15.7514 16.0007 15.1816 16.5973 15.1816 17.3335C15.1819 18.0695 15.7516 18.6662 16.4541 18.6665C17.1569 18.6665 17.7273 18.0696 17.7275 17.3335C17.7275 16.5971 17.157 16.0005 16.4541 16.0005Z" fill="#E9E9E9"/>
</svg>
