<svg width="24" height="24" viewBox="0 0 24 24" fill="none" xmlns="http://www.w3.org/2000/svg">
<path fill-rule="evenodd" clip-rule="evenodd" d="M12 4C12.8346 4 13.5414 4.51879 13.801 5.24038C13.8361 5.23455 13.8722 5.23077 13.9091 5.23077H18.3636C18.7151 5.23077 19 5.50629 19 5.84615V17.5385C19 18.4775 18.5809 19.1234 18.0194 19.5144C17.4902 19.8828 16.8746 20 16.4545 20H7.54545C6.57444 20 5.90648 19.5947 5.50213 19.0517C5.12115 18.54 5 17.9446 5 17.5385V5.84615C5 5.50629 5.28491 5.23077 5.63636 5.23077H10.0909C10.1274 5.23077 10.163 5.23468 10.1978 5.24038C10.4572 4.5186 11.1653 4 12 4ZM6.27273 17.5385C6.27273 17.7477 6.34323 18.0754 6.53498 18.3329C6.70339 18.559 6.98947 18.7692 7.54545 18.7692H16.4545C16.6709 18.7692 17.0098 18.7011 17.2761 18.5156C17.5098 18.3528 17.7273 18.0761 17.7273 17.5385V6.46154H16.4545V8.92308C16.4545 9.26294 16.1696 9.53846 15.8182 9.53846H8.18182C7.83036 9.53846 7.54545 9.26294 7.54545 8.92308V6.46154H6.27273V17.5385ZM12 5.23077C11.6485 5.23077 11.3636 5.50629 11.3636 5.84615C11.3636 6.18602 11.6485 6.46154 12 6.46154C12.3515 6.46154 12.6364 6.18602 12.6364 5.84615C12.6364 5.50629 12.3515 5.23077 12 5.23077Z" fill="#E9E9E9"/>
</svg>
