<svg width="334" height="100" viewBox="0 0 334 100" fill="none" xmlns="http://www.w3.org/2000/svg">
<g clip-path="url(#clip0_159_58)">
<rect x="5" y="5" width="90" height="90" rx="45" fill="url(#paint0_linear_159_58)"/>
<path d="M50.5 8L54.5678 35.9964L71.1802 13.0972L61.7714 39.7772L87.1228 27.2211L66.3929 46.4726L94.6755 47.1361L67.3736 54.5488L92.1082 68.2799L64.4887 62.1557L80.009 85.8087L58.3991 67.5505L61.1495 95.7069L50.5 69.4975L39.8505 95.7069L42.6009 67.5505L20.991 85.8087L36.5113 62.1557L8.89178 68.2799L33.6264 54.5488L6.32446 47.1361L34.6071 46.4726L13.8772 27.2211L39.2286 39.7772L29.8198 13.0972L46.4322 35.9964L50.5 8Z" fill="#FF8A00"/>
<circle cx="50.5" cy="55.5" r="23.5" fill="#FF9900"/>
<rect x="1" y="56" width="95" height="50" fill="#8D6848"/>
<path d="M74 55.5C74 61.7326 71.5241 67.7099 67.117 72.117C62.7099 76.5241 56.7326 79 50.5 79C44.2674 79 38.2901 76.5241 33.883 72.117C29.4759 67.7099 27 61.7326 27 55.5L50.5 55.5H74Z" fill="#FF9900" fill-opacity="0.4"/>
<path d="M82 40V39.9552C87.6065 39.4499 92 34.738 92 29C92 22.9249 87.0751 18 81 18C75.933 18 71.6662 21.426 70.3896 26.0879C68.9677 24.7909 67.0762 24 65 24C60.5817 24 57 27.5817 57 32C57 36.0796 60.0537 39.446 64 39.9381V40H82Z" fill="#D9D9D9" fill-opacity="0.4"/>
<path d="M29 48V47.9552C34.6065 47.4499 39 42.738 39 37C39 30.9249 34.0751 26 28 26C22.933 26 18.6662 29.426 17.3896 34.0879C15.9677 32.7909 14.0762 32 12 32C7.58172 32 4 35.5817 4 40C4 44.0796 7.05369 47.446 11 47.9381V48H29Z" fill="#D9D9D9" fill-opacity="0.4"/>
<path d="M34.5 62H16L19 69H31.5L34.5 62Z" fill="#84550F"/>
<path d="M52.5 64H97.5" stroke="#BF7B3C" stroke-opacity="0.5"/>
<path d="M23 72H68" stroke="#BF7B3C" stroke-opacity="0.5"/>
<path d="M52 82H97" stroke="#BF7B3C" stroke-opacity="0.5"/>
<path d="M6 89H51" stroke="#BF7B3C" stroke-opacity="0.5"/>
</g>
<path d="M141.752 48.5421C141.752 51.7749 140.557 54.3066 138.166 56.1372C135.775 57.9678 132.482 58.8832 128.288 58.8832C122.173 58.8832 117.41 56.6436 114 52.1644L119.88 47.0815C122.388 50.1196 125.368 51.6386 128.817 51.6386C131.326 51.6386 132.58 50.7428 132.58 48.9511C132.58 48.1721 131.972 47.5879 130.757 47.1984C129.542 46.8089 128.072 46.4778 126.347 46.2052C124.623 45.9325 122.878 45.543 121.114 45.0367C119.39 44.4914 117.92 43.4982 116.705 42.0571C115.49 40.577 114.882 38.649 114.882 36.2731C114.882 33.1182 116.019 30.567 118.292 28.6196C120.605 26.6332 123.76 25.6399 127.759 25.6399C130.581 25.6399 133.168 26.2242 135.52 27.3927C137.911 28.5611 139.91 30.1581 141.517 32.1834L135.814 37.3247C133.462 34.6372 130.659 33.2935 127.406 33.2935C124.936 33.2935 123.702 34.1309 123.702 35.8057C123.702 36.5457 124.133 37.1495 124.995 37.6168C125.897 38.0453 127.014 38.3374 128.347 38.4932C129.719 38.6101 131.169 38.8632 132.698 39.2527C134.266 39.6422 135.716 40.1291 137.049 40.7133C138.421 41.2586 139.538 42.2129 140.4 43.5761C141.302 44.9004 141.752 46.5557 141.752 48.5421Z" fill="url(#paint1_linear_159_58)"/>
<path d="M181.417 58.2989L172.009 58.2405L171.833 51.8723C168.932 55.962 165.169 58.0068 160.544 58.0068C156.937 58.0068 154.154 57.072 152.194 55.2024C150.274 53.3329 149.176 50.6649 148.902 47.1984C148.784 46.0299 148.725 44.433 148.725 42.4076L148.902 27.2174L158.662 27.0421L158.545 43.0503C158.545 47.062 160.25 49.0679 163.66 49.0679C165.228 49.0679 166.796 48.4447 168.364 47.1984C169.971 45.952 171.068 44.394 171.656 42.5245L171.598 27.2758L181.358 27.5095L181.417 58.2989Z" fill="url(#paint2_linear_159_58)"/>
<path d="M223.235 40.7717C223.235 45.6793 222.999 51.1322 222.529 57.1304L213.063 56.8383C213.298 54.034 213.415 49.1458 213.415 42.1739C213.415 39.9149 212.906 38.2206 211.887 37.091C210.907 35.9226 209.496 35.3383 207.653 35.3383C206.007 35.3383 204.478 35.981 203.067 37.2663C201.656 38.5516 200.5 40.2654 199.598 42.4076L199.833 57.7147L190.367 58.1236L189.955 24.5299L199.304 24.2962L199.422 32.2418C202.479 28.2301 206.144 26.2242 210.417 26.2242C214.572 26.2242 217.747 27.529 219.942 30.1386C222.137 32.7092 223.235 36.2536 223.235 40.7717Z" fill="url(#paint3_linear_159_58)"/>
<path d="M257.165 48.5421C257.165 51.7749 255.97 54.3066 253.579 56.1372C251.188 57.9678 247.895 58.8832 243.701 58.8832C237.586 58.8832 232.823 56.6436 229.413 52.1644L235.293 47.0815C237.801 50.1196 240.78 51.6386 244.23 51.6386C246.739 51.6386 247.993 50.7428 247.993 48.9511C247.993 48.1721 247.385 47.5879 246.17 47.1984C244.955 46.8089 243.485 46.4778 241.76 46.2052C240.036 45.9325 238.291 45.543 236.527 45.0367C234.803 44.4914 233.333 43.4982 232.118 42.0571C230.902 40.577 230.295 38.649 230.295 36.2731C230.295 33.1182 231.432 30.567 233.705 28.6196C236.018 26.6332 239.173 25.6399 243.172 25.6399C245.994 25.6399 248.581 26.2242 250.933 27.3927C253.324 28.5611 255.323 30.1581 256.93 32.1834L251.227 37.3247C248.875 34.6372 246.072 33.2935 242.819 33.2935C240.349 33.2935 239.114 34.1309 239.114 35.8057C239.114 36.5457 239.546 37.1495 240.408 37.6168C241.31 38.0453 242.427 38.3374 243.759 38.4932C245.131 38.6101 246.582 38.8632 248.11 39.2527C249.678 39.6422 251.129 40.1291 252.462 40.7133C253.833 41.2586 254.951 42.2129 255.813 43.5761C256.715 44.9004 257.165 46.5557 257.165 48.5421Z" fill="url(#paint4_linear_159_58)"/>
<path d="M293.89 42.1739C293.89 43.3034 293.811 44.5693 293.655 45.9715L272.546 46.2052C272.86 47.6463 273.624 48.8342 274.839 49.769C276.055 50.6649 277.544 51.1128 279.308 51.1128C282.444 51.1128 285.384 50.0611 288.128 47.9579L292.42 54.0924C290.852 55.6504 288.833 56.8578 286.364 57.7147C283.933 58.5716 281.327 59 278.544 59C273.683 59 269.763 57.5783 266.784 54.7351C263.805 51.8528 262.316 47.8605 262.316 42.7582C262.316 38.0453 263.825 34.2088 266.843 31.2486C269.861 28.2495 273.703 26.75 278.367 26.75C283.267 26.75 287.069 28.1522 289.774 30.9565C292.518 33.7219 293.89 37.4611 293.89 42.1739ZM284.247 39.019C283.973 37.6558 283.345 36.5652 282.366 35.7473C281.425 34.9293 280.19 34.5204 278.661 34.5204C277.054 34.5204 275.702 34.9683 274.604 35.8641C273.546 36.721 272.88 37.8116 272.605 39.1359L284.247 39.019Z" fill="url(#paint5_linear_159_58)"/>
<path d="M320 57.1304C317.687 57.7536 315.61 58.0652 313.767 58.0652C310.357 58.0652 307.633 57.072 305.595 55.0856C303.596 53.0602 302.616 49.9638 302.655 45.7962L302.772 32.8845L297.775 33.0014L297.481 25.1141L302.772 24.8804L302.831 16.2337L312.356 16V24.7052L319.53 24.4715L319.882 32.4171L312.356 32.6508L312.239 43.7514C312.2 46.322 312.827 48.0747 314.12 49.0095C315.453 49.9053 317.354 50.2169 319.824 49.9443L320 57.1304Z" fill="url(#paint6_linear_159_58)"/>
<path d="M121.808 78.6C121.808 79.4747 121.499 80.152 120.88 80.632C120.272 81.1013 119.451 81.336 118.416 81.336C116.816 81.336 115.595 80.76 114.752 79.608L115.92 78.52C116.624 79.3627 117.493 79.784 118.528 79.784C118.944 79.784 119.269 79.688 119.504 79.496C119.739 79.304 119.856 79.0373 119.856 78.696C119.856 78.4613 119.733 78.28 119.488 78.152C119.253 78.0133 118.955 77.9227 118.592 77.88C118.229 77.8373 117.84 77.768 117.424 77.672C117.008 77.576 116.619 77.4587 116.256 77.32C115.893 77.1813 115.589 76.9413 115.344 76.6C115.109 76.248 114.992 75.8107 114.992 75.288C114.992 74.4667 115.285 73.8 115.872 73.288C116.459 72.7653 117.253 72.504 118.256 72.504C119.632 72.504 120.747 73.032 121.6 74.088L120.448 75.208C119.829 74.4933 119.077 74.136 118.192 74.136C117.755 74.136 117.424 74.232 117.2 74.424C116.976 74.6053 116.864 74.8507 116.864 75.16C116.864 75.416 116.987 75.6187 117.232 75.768C117.477 75.9067 117.781 76.0027 118.144 76.056C118.507 76.0987 118.901 76.168 119.328 76.264C119.765 76.3493 120.165 76.4613 120.528 76.6C120.891 76.728 121.195 76.9627 121.44 77.304C121.685 77.6453 121.808 78.0773 121.808 78.6Z" fill="url(#paint7_linear_159_58)"/>
<path d="M125.728 68.888C125.974 69.1227 126.096 69.4107 126.096 69.752C126.096 70.0933 125.974 70.3867 125.728 70.632C125.483 70.8667 125.179 70.984 124.816 70.984C124.454 70.984 124.155 70.8667 123.92 70.632C123.686 70.3973 123.568 70.104 123.568 69.752C123.568 69.4 123.686 69.112 123.92 68.888C124.155 68.6533 124.454 68.536 124.816 68.536C125.179 68.536 125.483 68.6533 125.728 68.888ZM126.224 80.936L124.24 81L123.936 72.84L125.936 72.808L126.224 80.936Z" fill="url(#paint8_linear_159_58)"/>
<path d="M143.564 76.456C143.564 77.768 143.511 79.2133 143.404 80.792L141.436 80.744C141.543 79.1867 141.596 77.8747 141.596 76.808C141.596 76.008 141.42 75.3947 141.068 74.968C140.727 74.5413 140.215 74.328 139.532 74.328C139.031 74.328 138.562 74.4987 138.124 74.84C137.698 75.1813 137.388 75.6293 137.196 76.184L137.132 81.08L135.148 81.064L135.212 76.664C135.223 76.056 135.063 75.5653 134.732 75.192C134.412 74.808 133.948 74.616 133.34 74.616C132.338 74.616 131.527 75.208 130.908 76.392L130.812 80.968H128.876L128.972 71.512L130.892 71.528L130.876 74.392C131.228 73.8907 131.66 73.4907 132.172 73.192C132.695 72.8933 133.255 72.744 133.852 72.744C134.492 72.744 135.058 72.888 135.548 73.176C136.05 73.464 136.423 73.8693 136.668 74.392C137.479 73.1333 138.546 72.504 139.868 72.504C141.074 72.504 141.991 72.8507 142.62 73.544C143.25 74.2373 143.564 75.208 143.564 76.456Z" fill="url(#paint9_linear_159_58)"/>
<path d="M154.893 76.872C154.893 78.152 154.53 79.176 153.805 79.944C153.079 80.7013 152.114 81.08 150.909 81.08C149.789 81.08 148.909 80.6427 148.269 79.768L148.445 84.328L146.413 84.344L146.141 72.52L148.157 72.488L148.189 74.408C148.871 73.3093 149.81 72.76 151.005 72.76C152.21 72.76 153.159 73.1333 153.853 73.88C154.546 74.6267 154.893 75.624 154.893 76.872ZM152.797 76.952C152.797 76.2587 152.594 75.6987 152.189 75.272C151.794 74.8453 151.255 74.632 150.573 74.632C149.901 74.632 149.341 74.8613 148.893 75.32C148.455 75.7787 148.237 76.3493 148.237 77.032C148.237 77.704 148.45 78.264 148.877 78.712C149.303 79.1493 149.847 79.368 150.509 79.368C151.213 79.368 151.767 79.1547 152.173 78.728C152.589 78.2907 152.797 77.6987 152.797 76.952Z" fill="url(#paint10_linear_159_58)"/>
<path d="M159.161 68.376L159.017 81.048L157.017 80.968L157.161 68.312L159.161 68.376Z" fill="url(#paint11_linear_159_58)"/>
<path d="M169.46 76.904C169.46 77.2453 169.444 77.5387 169.412 77.784L163.38 77.864C163.487 78.3973 163.732 78.824 164.116 79.144C164.5 79.4533 164.98 79.608 165.556 79.608C166.463 79.608 167.236 79.272 167.876 78.6L168.932 79.768C168.559 80.248 168.063 80.6213 167.444 80.888C166.836 81.1547 166.175 81.288 165.46 81.288C164.223 81.288 163.215 80.9147 162.436 80.168C161.658 79.4107 161.268 78.376 161.268 77.064C161.268 75.8587 161.658 74.8667 162.436 74.088C163.226 73.3093 164.218 72.92 165.412 72.92C166.671 72.92 167.658 73.2827 168.372 74.008C169.098 74.7227 169.46 75.688 169.46 76.904ZM167.492 76.312C167.428 75.7893 167.215 75.3733 166.852 75.064C166.5 74.744 166.036 74.584 165.46 74.584C164.863 74.584 164.383 74.7547 164.02 75.096C163.658 75.4373 163.439 75.864 163.364 76.376L167.492 76.312Z" fill="url(#paint12_linear_159_58)"/>
<path d="M177.364 68.376L177.22 81.048L175.22 80.968L175.364 68.312L177.364 68.376Z" fill="url(#paint13_linear_159_58)"/>
<path d="M187.743 76.936C187.743 78.184 187.349 79.1867 186.559 79.944C185.781 80.7013 184.789 81.08 183.583 81.08C182.346 81.08 181.343 80.6907 180.575 79.912C179.818 79.1333 179.439 78.1307 179.439 76.904C179.439 75.6987 179.834 74.696 180.623 73.896C181.413 73.0853 182.399 72.68 183.583 72.68C184.831 72.68 185.834 73.08 186.591 73.88C187.359 74.68 187.743 75.6987 187.743 76.936ZM185.791 76.904C185.791 76.2427 185.594 75.688 185.199 75.24C184.805 74.792 184.277 74.568 183.615 74.568C182.943 74.568 182.399 74.7867 181.983 75.224C181.578 75.6613 181.375 76.2267 181.375 76.92C181.375 77.624 181.573 78.1947 181.967 78.632C182.373 79.0587 182.922 79.272 183.615 79.272C184.287 79.272 184.815 79.0587 185.199 78.632C185.594 78.2053 185.791 77.6293 185.791 76.904Z" fill="url(#paint14_linear_159_58)"/>
<path d="M197.812 72.28L197.748 79.192C197.727 80.8773 197.38 82.1627 196.708 83.048C196.047 83.944 194.927 84.392 193.348 84.392C191.759 84.392 190.543 83.8693 189.7 82.824L190.852 81.592C191.45 82.328 192.25 82.696 193.252 82.696C194.095 82.696 194.714 82.424 195.108 81.88C195.514 81.336 195.727 80.4987 195.748 79.368C195.076 80.2213 194.164 80.648 193.012 80.648C191.892 80.648 190.98 80.2853 190.276 79.56C189.572 78.824 189.22 77.896 189.22 76.776C189.22 75.624 189.583 74.6587 190.308 73.88C191.034 73.0907 191.967 72.696 193.108 72.696C193.674 72.696 194.196 72.8187 194.676 73.064C195.156 73.3093 195.546 73.656 195.844 74.104L195.86 72.232L197.812 72.28ZM195.796 76.68C195.796 76.0293 195.572 75.5013 195.124 75.096C194.676 74.68 194.116 74.472 193.444 74.472C192.783 74.472 192.26 74.6907 191.876 75.128C191.492 75.5653 191.3 76.1093 191.3 76.76C191.3 77.4533 191.508 77.9973 191.924 78.392C192.351 78.776 192.884 78.968 193.524 78.968C194.196 78.968 194.74 78.7547 195.156 78.328C195.583 77.9013 195.796 77.352 195.796 76.68Z" fill="url(#paint15_linear_159_58)"/>
<path d="M202.228 68.888C202.474 69.1227 202.596 69.4107 202.596 69.752C202.596 70.0933 202.474 70.3867 202.228 70.632C201.983 70.8667 201.679 70.984 201.316 70.984C200.954 70.984 200.655 70.8667 200.42 70.632C200.186 70.3973 200.068 70.104 200.068 69.752C200.068 69.4 200.186 69.112 200.42 68.888C200.655 68.6533 200.954 68.536 201.316 68.536C201.679 68.536 201.983 68.6533 202.228 68.888ZM202.724 80.936L200.74 81L200.436 72.84L202.436 72.808L202.724 80.936Z" fill="url(#paint16_linear_159_58)"/>
<path d="M212.192 79.528C211.414 80.552 210.299 81.064 208.848 81.064C207.59 81.064 206.587 80.6747 205.84 79.896C205.094 79.1173 204.72 78.088 204.72 76.808C204.72 75.6027 205.126 74.6 205.936 73.8C206.747 72.9893 207.76 72.584 208.976 72.584C210.16 72.584 211.104 73 211.808 73.832L210.768 75.272C210.267 74.792 209.702 74.552 209.072 74.552C208.379 74.552 207.824 74.7707 207.408 75.208C206.992 75.6347 206.784 76.2 206.784 76.904C206.784 77.576 206.976 78.1253 207.36 78.552C207.755 78.968 208.272 79.176 208.912 79.176C209.819 79.176 210.528 78.8613 211.04 78.232L212.192 79.528Z" fill="url(#paint17_linear_159_58)"/>
<path d="M223.949 78.6C223.949 79.4747 223.639 80.152 223.021 80.632C222.413 81.1013 221.591 81.336 220.557 81.336C218.957 81.336 217.735 80.76 216.893 79.608L218.061 78.52C218.765 79.3627 219.634 79.784 220.669 79.784C221.085 79.784 221.41 79.688 221.645 79.496C221.879 79.304 221.997 79.0373 221.997 78.696C221.997 78.4613 221.874 78.28 221.629 78.152C221.394 78.0133 221.095 77.9227 220.733 77.88C220.37 77.8373 219.981 77.768 219.565 77.672C219.149 77.576 218.759 77.4587 218.397 77.32C218.034 77.1813 217.73 76.9413 217.485 76.6C217.25 76.248 217.133 75.8107 217.133 75.288C217.133 74.4667 217.426 73.8 218.013 73.288C218.599 72.7653 219.394 72.504 220.397 72.504C221.773 72.504 222.887 73.032 223.741 74.088L222.589 75.208C221.97 74.4933 221.218 74.136 220.333 74.136C219.895 74.136 219.565 74.232 219.341 74.424C219.117 74.6053 219.005 74.8507 219.005 75.16C219.005 75.416 219.127 75.6187 219.373 75.768C219.618 75.9067 219.922 76.0027 220.285 76.056C220.647 76.0987 221.042 76.168 221.469 76.264C221.906 76.3493 222.306 76.4613 222.669 76.6C223.031 76.728 223.335 76.9627 223.581 77.304C223.826 77.6453 223.949 78.0773 223.949 78.6Z" fill="url(#paint18_linear_159_58)"/>
<path d="M227.869 68.888C228.114 69.1227 228.237 69.4107 228.237 69.752C228.237 70.0933 228.114 70.3867 227.869 70.632C227.623 70.8667 227.319 70.984 226.957 70.984C226.594 70.984 226.295 70.8667 226.061 70.632C225.826 70.3973 225.709 70.104 225.709 69.752C225.709 69.4 225.826 69.112 226.061 68.888C226.295 68.6533 226.594 68.536 226.957 68.536C227.319 68.536 227.623 68.6533 227.869 68.888ZM228.365 80.936L226.381 81L226.077 72.84L228.077 72.808L228.365 80.936Z" fill="url(#paint19_linear_159_58)"/>
<path d="M245.705 76.456C245.705 77.768 245.652 79.2133 245.545 80.792L243.577 80.744C243.684 79.1867 243.737 77.8747 243.737 76.808C243.737 76.008 243.561 75.3947 243.209 74.968C242.868 74.5413 242.356 74.328 241.673 74.328C241.172 74.328 240.702 74.4987 240.265 74.84C239.838 75.1813 239.529 75.6293 239.337 76.184L239.273 81.08L237.289 81.064L237.353 76.664C237.364 76.056 237.204 75.5653 236.873 75.192C236.553 74.808 236.089 74.616 235.481 74.616C234.478 74.616 233.668 75.208 233.049 76.392L232.953 80.968H231.017L231.113 71.512L233.033 71.528L233.017 74.392C233.369 73.8907 233.801 73.4907 234.313 73.192C234.836 72.8933 235.396 72.744 235.993 72.744C236.633 72.744 237.198 72.888 237.689 73.176C238.19 73.464 238.564 73.8693 238.809 74.392C239.62 73.1333 240.686 72.504 242.009 72.504C243.214 72.504 244.132 72.8507 244.761 73.544C245.39 74.2373 245.705 75.208 245.705 76.456Z" fill="url(#paint20_linear_159_58)"/>
<path d="M256.473 81.336L254.553 81.272L254.505 79.352C253.684 80.5467 252.66 81.144 251.433 81.144C249.257 81.144 248.196 79.896 248.249 77.4L248.345 72.856H250.345L250.265 77.304C250.244 78.6373 250.815 79.304 251.977 79.304C252.468 79.304 252.943 79.1387 253.401 78.808C253.86 78.4667 254.212 78.024 254.457 77.48L254.409 72.92L256.425 72.984L256.473 81.336Z" fill="url(#paint21_linear_159_58)"/>
<path d="M261.364 68.376L261.22 81.048L259.22 80.968L259.364 68.312L261.364 68.376Z" fill="url(#paint22_linear_159_58)"/>
<path d="M272.143 81.112L270.239 81.144L270.207 79.544C269.898 80.0347 269.493 80.4187 268.991 80.696C268.501 80.9627 267.946 81.096 267.327 81.096C266.122 81.096 265.173 80.728 264.479 79.992C263.786 79.2453 263.439 78.232 263.439 76.952C263.439 75.736 263.813 74.744 264.559 73.976C265.306 73.1973 266.245 72.808 267.375 72.808C268.57 72.808 269.493 73.3093 270.143 74.312L270.111 72.44L272.047 72.456L272.143 81.112ZM269.519 78.712C269.946 78.2427 270.159 77.672 270.159 77C270.159 76.328 269.935 75.7627 269.487 75.304C269.05 74.8347 268.495 74.6 267.823 74.6C267.13 74.6 266.57 74.824 266.143 75.272C265.717 75.7093 265.503 76.28 265.503 76.984C265.503 77.72 265.717 78.312 266.143 78.76C266.581 79.1973 267.146 79.416 267.839 79.416C268.533 79.416 269.093 79.1813 269.519 78.712Z" fill="url(#paint23_linear_159_58)"/>
<path d="M279.435 79.352L279.371 80.984C278.87 81.0373 278.523 81.064 278.331 81.064C276.23 81.064 275.195 79.9387 275.227 77.688L275.275 73.688L274.011 73.72L273.915 72.072L275.275 72.008L275.307 69.576L277.259 69.528L277.243 71.944L279.243 71.88L279.355 73.544L277.227 73.624L277.179 77.336C277.169 78.136 277.345 78.6853 277.707 78.984C278.081 79.272 278.657 79.3947 279.435 79.352Z" fill="url(#paint24_linear_159_58)"/>
<path d="M289.087 76.936C289.087 78.184 288.693 79.1867 287.903 79.944C287.125 80.7013 286.133 81.08 284.927 81.08C283.69 81.08 282.687 80.6907 281.919 79.912C281.162 79.1333 280.783 78.1307 280.783 76.904C280.783 75.6987 281.178 74.696 281.967 73.896C282.757 73.0853 283.743 72.68 284.927 72.68C286.175 72.68 287.178 73.08 287.935 73.88C288.703 74.68 289.087 75.6987 289.087 76.936ZM287.135 76.904C287.135 76.2427 286.938 75.688 286.543 75.24C286.149 74.792 285.621 74.568 284.959 74.568C284.287 74.568 283.743 74.7867 283.327 75.224C282.922 75.6613 282.719 76.2267 282.719 76.92C282.719 77.624 282.917 78.1947 283.311 78.632C283.717 79.0587 284.266 79.272 284.959 79.272C285.631 79.272 286.159 79.0587 286.543 78.632C286.938 78.2053 287.135 77.6293 287.135 76.904Z" fill="url(#paint25_linear_159_58)"/>
<path d="M296.324 72.648L296.18 74.632C296.041 74.6 295.86 74.584 295.636 74.584C294.559 74.584 293.791 75.2507 293.332 76.584L293.604 80.84L291.636 80.92L291.076 72.312L293.028 72.216L293.188 74.568C293.828 73.2133 294.66 72.536 295.684 72.536C295.887 72.536 296.1 72.5733 296.324 72.648Z" fill="url(#paint26_linear_159_58)"/>
<defs>
<linearGradient id="paint0_linear_159_58" x1="50" y1="-38.5" x2="50" y2="60.5" gradientUnits="userSpaceOnUse">
<stop stop-color="#00B3FF"/>
<stop offset="1" stop-color="#FF9900"/>
</linearGradient>
<linearGradient id="paint1_linear_159_58" x1="114" y1="59" x2="320" y2="16" gradientUnits="userSpaceOnUse">
<stop stop-color="#FF8A00"/>
<stop offset="1" stop-color="#C79141"/>
</linearGradient>
<linearGradient id="paint2_linear_159_58" x1="114" y1="59" x2="320" y2="16" gradientUnits="userSpaceOnUse">
<stop stop-color="#FF8A00"/>
<stop offset="1" stop-color="#C79141"/>
</linearGradient>
<linearGradient id="paint3_linear_159_58" x1="114" y1="59" x2="320" y2="16" gradientUnits="userSpaceOnUse">
<stop stop-color="#FF8A00"/>
<stop offset="1" stop-color="#C79141"/>
</linearGradient>
<linearGradient id="paint4_linear_159_58" x1="114" y1="59" x2="320" y2="16" gradientUnits="userSpaceOnUse">
<stop stop-color="#FF8A00"/>
<stop offset="1" stop-color="#C79141"/>
</linearGradient>
<linearGradient id="paint5_linear_159_58" x1="114" y1="59" x2="320" y2="16" gradientUnits="userSpaceOnUse">
<stop stop-color="#FF8A00"/>
<stop offset="1" stop-color="#C79141"/>
</linearGradient>
<linearGradient id="paint6_linear_159_58" x1="114" y1="59" x2="320" y2="16" gradientUnits="userSpaceOnUse">
<stop stop-color="#FF8A00"/>
<stop offset="1" stop-color="#C79141"/>
</linearGradient>
<linearGradient id="paint7_linear_159_58" x1="114.752" y1="84.392" x2="267.307" y2="9.33474" gradientUnits="userSpaceOnUse">
<stop stop-color="#FF8A00"/>
<stop offset="1" stop-color="#C79141"/>
</linearGradient>
<linearGradient id="paint8_linear_159_58" x1="114.752" y1="84.392" x2="267.307" y2="9.33474" gradientUnits="userSpaceOnUse">
<stop stop-color="#FF8A00"/>
<stop offset="1" stop-color="#C79141"/>
</linearGradient>
<linearGradient id="paint9_linear_159_58" x1="114.752" y1="84.392" x2="267.307" y2="9.33474" gradientUnits="userSpaceOnUse">
<stop stop-color="#FF8A00"/>
<stop offset="1" stop-color="#C79141"/>
</linearGradient>
<linearGradient id="paint10_linear_159_58" x1="114.752" y1="84.392" x2="267.307" y2="9.33474" gradientUnits="userSpaceOnUse">
<stop stop-color="#FF8A00"/>
<stop offset="1" stop-color="#C79141"/>
</linearGradient>
<linearGradient id="paint11_linear_159_58" x1="114.752" y1="84.392" x2="267.307" y2="9.33474" gradientUnits="userSpaceOnUse">
<stop stop-color="#FF8A00"/>
<stop offset="1" stop-color="#C79141"/>
</linearGradient>
<linearGradient id="paint12_linear_159_58" x1="114.752" y1="84.392" x2="267.307" y2="9.33474" gradientUnits="userSpaceOnUse">
<stop stop-color="#FF8A00"/>
<stop offset="1" stop-color="#C79141"/>
</linearGradient>
<linearGradient id="paint13_linear_159_58" x1="114.752" y1="84.392" x2="267.307" y2="9.33474" gradientUnits="userSpaceOnUse">
<stop stop-color="#FF8A00"/>
<stop offset="1" stop-color="#C79141"/>
</linearGradient>
<linearGradient id="paint14_linear_159_58" x1="114.752" y1="84.392" x2="267.307" y2="9.33474" gradientUnits="userSpaceOnUse">
<stop stop-color="#FF8A00"/>
<stop offset="1" stop-color="#C79141"/>
</linearGradient>
<linearGradient id="paint15_linear_159_58" x1="114.752" y1="84.392" x2="267.307" y2="9.33474" gradientUnits="userSpaceOnUse">
<stop stop-color="#FF8A00"/>
<stop offset="1" stop-color="#C79141"/>
</linearGradient>
<linearGradient id="paint16_linear_159_58" x1="114.752" y1="84.392" x2="267.307" y2="9.33474" gradientUnits="userSpaceOnUse">
<stop stop-color="#FF8A00"/>
<stop offset="1" stop-color="#C79141"/>
</linearGradient>
<linearGradient id="paint17_linear_159_58" x1="114.752" y1="84.392" x2="267.307" y2="9.33474" gradientUnits="userSpaceOnUse">
<stop stop-color="#FF8A00"/>
<stop offset="1" stop-color="#C79141"/>
</linearGradient>
<linearGradient id="paint18_linear_159_58" x1="114.752" y1="84.392" x2="267.307" y2="9.33474" gradientUnits="userSpaceOnUse">
<stop stop-color="#FF8A00"/>
<stop offset="1" stop-color="#C79141"/>
</linearGradient>
<linearGradient id="paint19_linear_159_58" x1="114.752" y1="84.392" x2="267.307" y2="9.33474" gradientUnits="userSpaceOnUse">
<stop stop-color="#FF8A00"/>
<stop offset="1" stop-color="#C79141"/>
</linearGradient>
<linearGradient id="paint20_linear_159_58" x1="114.752" y1="84.392" x2="267.307" y2="9.33474" gradientUnits="userSpaceOnUse">
<stop stop-color="#FF8A00"/>
<stop offset="1" stop-color="#C79141"/>
</linearGradient>
<linearGradient id="paint21_linear_159_58" x1="114.752" y1="84.392" x2="267.307" y2="9.33474" gradientUnits="userSpaceOnUse">
<stop stop-color="#FF8A00"/>
<stop offset="1" stop-color="#C79141"/>
</linearGradient>
<linearGradient id="paint22_linear_159_58" x1="114.752" y1="84.392" x2="267.307" y2="9.33474" gradientUnits="userSpaceOnUse">
<stop stop-color="#FF8A00"/>
<stop offset="1" stop-color="#C79141"/>
</linearGradient>
<linearGradient id="paint23_linear_159_58" x1="114.752" y1="84.392" x2="267.307" y2="9.33474" gradientUnits="userSpaceOnUse">
<stop stop-color="#FF8A00"/>
<stop offset="1" stop-color="#C79141"/>
</linearGradient>
<linearGradient id="paint24_linear_159_58" x1="114.752" y1="84.392" x2="267.307" y2="9.33474" gradientUnits="userSpaceOnUse">
<stop stop-color="#FF8A00"/>
<stop offset="1" stop-color="#C79141"/>
</linearGradient>
<linearGradient id="paint25_linear_159_58" x1="114.752" y1="84.392" x2="267.307" y2="9.33474" gradientUnits="userSpaceOnUse">
<stop stop-color="#FF8A00"/>
<stop offset="1" stop-color="#C79141"/>
</linearGradient>
<linearGradient id="paint26_linear_159_58" x1="114.752" y1="84.392" x2="267.307" y2="9.33474" gradientUnits="userSpaceOnUse">
<stop stop-color="#FF8A00"/>
<stop offset="1" stop-color="#C79141"/>
</linearGradient>
<clipPath id="clip0_159_58">
<rect x="5" y="5" width="90" height="90" rx="45" fill="white"/>
</clipPath>
</defs>
</svg>
