<svg width="24" height="24" viewBox="0 0 24 24" fill="none" xmlns="http://www.w3.org/2000/svg">
<path fill-rule="evenodd" clip-rule="evenodd" d="M13.4994 4.49995C13.4755 4.59152 13.4918 4.69576 13.5143 4.75493L16.3725 12.2654C16.4341 12.4273 16.5194 12.4725 16.5881 12.4908C16.6789 12.5149 16.7823 12.4985 16.8409 12.4758L17.5178 12.2137C17.7901 12.1083 18.2172 12.0318 18.6539 12.1377L15.545 3.96865C15.4834 3.80681 15.3982 3.76156 15.3294 3.74329C15.2387 3.71917 15.1353 3.7356 15.0767 3.75831L13.7229 4.2825C13.5624 4.34462 13.5175 4.43059 13.4994 4.49995ZM19.8597 13.2654L16.2219 3.70656C16.0757 3.32219 15.8053 3.11342 15.5141 3.03606C15.2449 2.96455 14.9838 3.01089 14.8168 3.07554L13.463 3.59972C13.082 3.74727 12.875 4.01994 12.7983 4.3137C12.7274 4.58524 12.7733 4.84859 12.8374 5.01702L12.9673 5.35841L5.183 8.37246C4.90321 8.4808 4.5222 8.72224 4.26754 9.1141C4.00038 9.52517 3.89013 10.0771 4.14034 10.7346L7.77807 20.2934C7.92435 20.6778 8.19467 20.8866 8.4859 20.9639C8.75511 21.0355 9.0162 20.9891 9.18318 20.9245L10.537 20.4003C10.918 20.2527 11.125 19.9801 11.2017 19.6863C11.2726 19.4148 11.2267 19.1514 11.1626 18.983L11.0327 18.6416L18.817 15.6275C19.0968 15.5192 19.4778 15.2778 19.7325 14.8859C19.9996 14.4748 20.1099 13.9229 19.8597 13.2654ZM10.7728 17.9588L18.5572 14.9448C18.7286 14.8784 18.9726 14.7212 19.1261 14.485C19.2671 14.268 19.3483 13.9624 19.1828 13.5275C19.0172 13.0925 18.7542 12.9203 18.5055 12.8542C18.2347 12.7822 17.9491 12.8301 17.7776 12.8964L17.1007 13.1585C16.9338 13.2232 16.6727 13.2695 16.4035 13.198C16.1122 13.1207 15.8419 12.9119 15.6956 12.5275L13.2272 6.04118L5.44284 9.05523C5.27136 9.12163 5.02744 9.27883 4.87392 9.51505C4.73289 9.73205 4.65172 10.0376 4.81724 10.4725C4.98277 10.9075 5.24578 11.0797 5.49453 11.1458C5.76532 11.2178 6.05088 11.1699 6.22235 11.1036L6.89925 10.8415C7.06623 10.7768 7.32732 10.7305 7.59652 10.802C7.88776 10.8793 8.15808 11.0881 8.30436 11.4725L10.7728 17.9588ZM5.34613 11.8623L8.45497 20.0313C8.51656 20.1932 8.60179 20.2384 8.67055 20.2567C8.76134 20.2808 8.86468 20.2644 8.92334 20.2417L10.2771 19.7175C10.4376 19.6554 10.4825 19.5694 10.5006 19.5C10.5245 19.4085 10.5082 19.3042 10.4857 19.2451L7.62746 11.7346C7.56586 11.5727 7.48063 11.5275 7.41187 11.5092C7.32109 11.4851 7.21774 11.5015 7.15909 11.5242L6.48219 11.7863C6.20992 11.8917 5.78282 11.9682 5.34613 11.8623Z" fill="#E9E9E9"/>
<path d="M12.0017 9.45337C11.894 9.17056 12.0341 8.85329 12.3144 8.74473C12.5948 8.63616 12.9094 8.77742 13.017 9.06024L13.6666 10.7672C13.7742 11.05 13.6342 11.3673 13.3538 11.4758C13.0734 11.5844 12.7589 11.4431 12.6512 11.1603L12.0017 9.45337Z" fill="#E9E9E9"/>
<path d="M9.46328 10.4362C9.35565 10.1534 9.49569 9.83613 9.77607 9.72757C10.0565 9.61901 10.371 9.76027 10.4786 10.0431L11.1282 11.75C11.2359 12.0328 11.0958 12.3501 10.8154 12.4587C10.535 12.5672 10.2205 12.426 10.1129 12.1431L9.46328 10.4362Z" fill="#E9E9E9"/>
</svg>
