<svg width="24" height="24" viewBox="0 0 24 24" fill="none" xmlns="http://www.w3.org/2000/svg">
<path d="M5.38724 12.0608L6.72238 10.7256C7.02395 10.4245 7.51294 10.4242 7.81437 10.7256C8.1158 11.0271 8.11556 11.5161 7.81437 11.8176L6.47924 13.1528C6.12426 13.5078 5.69062 14.1679 5.57386 14.9369C5.46426 15.6588 5.62088 16.5408 6.54002 17.46C7.45916 18.3791 8.34117 18.5357 9.06313 18.4261C9.83213 18.3094 10.4922 17.8757 10.8472 17.5208L12.1824 16.1856C12.4839 15.8844 12.9729 15.8842 13.2744 16.1856C13.5758 16.4871 13.5755 16.976 13.2744 17.2776L11.9392 18.6128C11.4044 19.1475 10.4566 19.7757 9.29454 19.9522C8.08537 20.1357 6.71274 19.8167 5.44803 18.552C4.18331 17.2873 3.86435 15.9146 4.04784 14.7055C4.22428 13.5434 4.85249 12.5956 5.38724 12.0608ZM8.11723 14.7908L14.7908 8.11723C15.0923 7.8158 15.5813 7.81572 15.8828 8.11723C16.1843 8.41874 16.1842 8.90767 15.8828 9.20923L9.20923 15.8828C8.90767 16.1842 8.41874 16.1843 8.11723 15.8828C7.81572 15.5813 7.8158 15.0923 8.11723 14.7908ZM16.1856 12.1824L17.5208 10.8472C17.8757 10.4922 18.3094 9.83213 18.4261 9.06313C18.5357 8.34117 18.3791 7.45916 17.46 6.54002C16.5408 5.62088 15.6588 5.46426 14.9369 5.57386C14.1679 5.69062 13.5078 6.12426 13.1528 6.47924L11.8176 7.81437C11.5161 8.11556 11.0271 8.1158 10.7256 7.81437C10.4242 7.51294 10.4245 7.02395 10.7256 6.72238L12.0608 5.38724C12.5956 4.85249 13.5434 4.22428 14.7055 4.04784C15.9146 3.86435 17.2873 4.18331 18.552 5.44803C19.8167 6.71274 20.1357 8.08537 19.9522 9.29454C19.7757 10.4566 19.1475 11.4044 18.6128 11.9392L17.2776 13.2744C16.976 13.5755 16.4871 13.5758 16.1856 13.2744C15.8842 12.9729 15.8844 12.4839 16.1856 12.1824Z" fill="#E9E9E9"/>
</svg>
