<svg width="24" height="24" viewBox="0 0 24 24" fill="none" xmlns="http://www.w3.org/2000/svg">
<path d="M20 8V20H4V8V6H7M8 12H16M9 10L8 9L14.5 3L18 7L14.5 10" stroke="white" stroke-width="1.5"/>
<path d="M12.5 15.4174V15.1603C12.5 15.0255 12.3441 14.8376 12 14.8376M12 14.8376C11.6559 14.8376 11.5 15.0449 11.5 15.1603V15.6021C11.5 15.7372 11.6 16.0073 12 16.0073C12.4 16.0073 12.5 16.2397 12.5 16.5037V16.9066C12.5 17.017 12.4 17.2376 12 17.2376M12 14.8376V14.4376V14.0376M12 17.2376C11.6 17.2376 11.5 17.017 11.5 16.9066V16.5757M12 17.2376V18.0376" stroke="white" stroke-width="0.5"/>
</svg>
