<svg width="24" height="24" viewBox="0 0 24 24" fill="none" xmlns="http://www.w3.org/2000/svg">
<path fill-rule="evenodd" clip-rule="evenodd" d="M12 5.37143C8.33914 5.37143 5.37143 8.33914 5.37143 12C5.37143 15.6609 8.33914 18.6286 12 18.6286C15.6609 18.6286 18.6286 15.6609 18.6286 12C18.6286 8.33914 15.6609 5.37143 12 5.37143ZM4 12C4 7.58172 7.58172 4 12 4C16.4183 4 20 7.58172 20 12C20 16.4183 16.4183 20 12 20C7.58172 20 4 16.4183 4 12Z" fill="#E9E9E9"/>
<path d="M11.3878 13.6544C11.3878 13.3526 11.4164 13.0894 11.4737 12.8649C11.5382 12.6405 11.642 12.4315 11.7852 12.238C11.9356 12.0368 12.1396 11.8355 12.3974 11.6343C12.7053 11.3789 12.938 11.166 13.0955 10.9957C13.2531 10.8255 13.3605 10.659 13.4177 10.4965C13.475 10.3262 13.5037 10.1289 13.5037 9.9044C13.5037 9.53288 13.364 9.23489 13.0848 9.01043C12.8055 8.77823 12.4475 8.66213 12.0107 8.66213C11.6599 8.66213 11.3269 8.75888 11.0119 8.95238C10.704 9.13814 10.4605 9.41291 10.2815 9.77669L9.5619 9.21941C9.84116 8.71631 10.1956 8.34479 10.6252 8.10485C11.062 7.85717 11.5525 7.73333 12.0967 7.73333C12.5692 7.73333 12.981 7.82234 13.3318 8.00036C13.6827 8.17838 13.9548 8.42993 14.1481 8.75501C14.3414 9.08009 14.4381 9.45935 14.4381 9.89279C14.4381 10.1869 14.3951 10.4539 14.3092 10.6939C14.2233 10.9261 14.0729 11.166 13.8581 11.4137C13.6505 11.6536 13.3569 11.9323 12.9774 12.2496C12.7912 12.4044 12.6409 12.5437 12.5263 12.6676C12.4117 12.7914 12.3294 12.9346 12.2793 13.0971C12.2291 13.2597 12.2041 13.4764 12.2041 13.7473V14.1188H11.3878V13.6544ZM11.2052 15.6165C11.2052 15.4153 11.2589 15.2566 11.3663 15.1405C11.4809 15.0244 11.6277 14.9663 11.8067 14.9663C11.9928 14.9663 12.1396 15.0244 12.247 15.1405C12.3544 15.2566 12.4081 15.4153 12.4081 15.6165C12.4081 15.81 12.3544 15.9687 12.247 16.0925C12.1396 16.2086 11.9928 16.2667 11.8067 16.2667C11.6277 16.2667 11.4809 16.2086 11.3663 16.0925C11.2589 15.9687 11.2052 15.81 11.2052 15.6165Z" fill="#E9E9E9"/>
</svg>

