<svg width="32" height="32" viewBox="0 0 32 32" fill="none" xmlns="http://www.w3.org/2000/svg">
<path d="M21.2105 10.4252C21.2105 10.3428 21.2391 10.2088 21.3107 10.109C21.365 10.0334 21.4596 9.95017 21.6842 9.95017H23.5789C23.661 9.95017 23.7947 9.97877 23.8943 10.0506C23.9697 10.1051 24.0526 10.2 24.0526 10.4252V20.0002H25V10.4252C25 9.89036 24.7672 9.51025 24.4478 9.27969C24.1526 9.06656 23.8126 9.00017 23.5789 9.00017H21.6842C21.1509 9.00017 20.7718 9.23364 20.5419 9.55387C20.3294 9.84988 20.2632 10.1908 20.2632 10.4252V10.9002H9.36842C8.97683 10.9002 8.39999 11.0141 7.90743 11.3697C7.39073 11.7428 7 12.3604 7 13.2752V20.0002H7.94737V15.2088C8.4309 15.5423 8.98737 15.6502 9.36842 15.6502H10.3158C10.3979 15.6502 10.5316 15.6788 10.6311 15.7506C10.7065 15.8051 10.7895 15.9 10.7895 16.1252V20.0002H11.7368V16.1252C11.7368 15.5904 11.504 15.2103 11.1847 14.9797C10.8895 14.7666 10.5495 14.7002 10.3158 14.7002H9.36842C9.12843 14.7002 8.7579 14.6241 8.46099 14.4097C8.18822 14.2128 7.94737 13.8804 7.94737 13.2752C7.94737 12.67 8.18822 12.3376 8.46099 12.1406C8.7579 11.9263 9.12843 11.8502 9.36842 11.8502H20.2632V20.0002H21.2105V10.4252Z" fill="#676767"/>
<path d="M13.375 16.0802C13.375 15.8703 13.2071 15.7002 13 15.7002C12.7929 15.7002 12.625 15.8703 12.625 16.0802V17.3602C12.625 17.5476 12.6774 17.8204 12.8457 18.0572C13.0277 18.3134 13.3278 18.5002 13.75 18.5002C14.1722 18.5002 14.4723 18.3134 14.6543 18.0572C14.8226 17.8204 14.875 17.5476 14.875 17.3602V16.0802C14.875 15.8703 14.7071 15.7002 14.5 15.7002C14.2929 15.7002 14.125 15.8703 14.125 16.0802V17.3602C14.125 17.426 14.1024 17.5333 14.0457 17.6131C14.0027 17.6736 13.9278 17.7402 13.75 17.7402C13.5722 17.7402 13.4973 17.6736 13.4543 17.6131C13.3976 17.5333 13.375 17.426 13.375 17.3602V16.0802Z" fill="#676767"/>
<path d="M17.5 16.0802C17.5 15.8703 17.3321 15.7002 17.125 15.7002C16.9179 15.7002 16.75 15.8703 16.75 16.0802V17.3602C16.75 17.5476 16.8024 17.8204 16.9707 18.0572C17.1527 18.3134 17.4528 18.5002 17.875 18.5002C18.2972 18.5002 18.5973 18.3134 18.7793 18.0572C18.9476 17.8204 19 17.5476 19 17.3602V16.0802C19 15.8703 18.8321 15.7002 18.625 15.7002C18.4179 15.7002 18.25 15.8703 18.25 16.0802V17.3602C18.25 17.426 18.2274 17.5333 18.1707 17.6131C18.1277 17.6736 18.0528 17.7402 17.875 17.7402C17.6972 17.7402 17.6223 17.6736 17.5793 17.6131C17.5226 17.5333 17.5 17.426 17.5 17.3602V16.0802Z" fill="#676767"/>
<path fill-rule="evenodd" clip-rule="evenodd" d="M0.5 20.0002C0.5 19.724 0.723858 19.5002 1 19.5002H31C31.2761 19.5002 31.5 19.724 31.5 20.0002C31.5 20.2763 31.2761 20.5002 31 20.5002H1C0.723858 20.5002 0.5 20.2763 0.5 20.0002Z" fill="#676767"/>
<path d="M8.858 10.353L8.60214 10.0377L8.59779 8.12449L8.58671 8.11084L7.6855 8.84217L7.343 8.42012L8.88102 7.17202L9.16005 7.51587L9.19833 9.35418L9.20941 9.36784L10.1181 8.63047L10.4606 9.05252L8.858 10.353Z" fill="#676767"/>
<path d="M10.718 8.15676L10.6332 7.75966L11.4981 6.0531L11.4944 6.0359L10.3594 6.27826L10.2459 5.74671L12.183 5.33309L12.2754 5.76615L11.4748 7.4214L11.4785 7.4386L12.6229 7.19423L12.7364 7.72579L10.718 8.15676Z" fill="#676767"/>
<path d="M13.3725 7.04426L13.4772 6.65195L15.0227 5.5242L15.0273 5.50721L13.906 5.20775L14.0462 4.68262L15.9598 5.19368L15.8456 5.62151L14.3806 6.73271L14.3761 6.7497L15.5067 7.05164L15.3664 7.57677L13.3725 7.04426Z" fill="#676767"/>
</svg>
