<svg width="24" height="24" viewBox="0 0 24 24" fill="none" xmlns="http://www.w3.org/2000/svg">
<path d="M4.82833 16.2651C4.63883 16.0756 4.33161 16.0756 4.14212 16.2651C3.95263 16.4546 3.95263 16.7618 4.14212 16.9513L7.00131 19.8105C7.25397 20.0632 7.6636 20.0632 7.91626 19.8105L19.8105 7.91626C20.0632 7.6636 20.0632 7.25397 19.8105 7.00131L16.9513 4.14212C16.7618 3.95263 16.4546 3.95263 16.2651 4.14212C16.0756 4.33161 16.0756 4.63883 16.2651 4.82833L17.7519 6.31511C17.8783 6.44154 17.8783 6.64615 17.7519 6.77258C17.6255 6.89901 17.4208 6.89901 17.2944 6.77258L15.6933 5.17143C15.5669 5.0451 15.3621 5.0451 15.2358 5.17143C15.1095 5.29776 15.1095 5.50257 15.2358 5.6289L15.922 6.31511C16.0484 6.44154 16.0484 6.64615 15.922 6.77258C15.8921 6.80251 15.8577 6.82529 15.8213 6.84115C15.7033 6.89208 15.561 6.86908 15.4645 6.77258L14.7783 6.08637C14.652 5.96004 14.4472 5.96004 14.3209 6.08637C14.1945 6.2127 14.1945 6.41752 14.3209 6.54384L15.0071 7.23005C15.0567 7.27964 15.0868 7.34151 15.0975 7.40585C15.1141 7.50547 15.0837 7.6109 15.0071 7.68752C14.8806 7.81395 14.676 7.81395 14.5496 7.68752L13.8634 7.00131C13.7371 6.87499 13.5322 6.87499 13.4059 7.00131C13.2796 7.12764 13.2796 7.33246 13.4059 7.45878L14.0921 8.14499C14.2185 8.27142 14.2185 8.47603 14.0921 8.60246C13.9657 8.72889 13.7611 8.72889 13.6346 8.60246L12.9484 7.91626C12.8221 7.78993 12.6173 7.78993 12.491 7.91626C12.3646 8.04258 12.3646 8.2474 12.491 8.37373L14.0921 9.97488C14.2185 10.1013 14.2185 10.3059 14.0921 10.4323C13.9657 10.5588 13.7611 10.5588 13.6346 10.4323L12.0335 8.8312C11.9072 8.70487 11.7024 8.70487 11.576 8.8312C11.4497 8.95753 11.4497 9.16234 11.576 9.28867L12.2622 9.97488C12.3056 10.0182 12.3339 10.0703 12.3476 10.1254C12.3741 10.232 12.3456 10.349 12.2622 10.4323C12.1358 10.5588 11.9312 10.5588 11.8048 10.4323L11.1186 9.74614C10.9922 9.61981 10.7874 9.61981 10.6611 9.74614C10.5348 9.87247 10.5348 10.0773 10.6611 10.2036L11.3473 10.8898C11.4737 11.0162 11.4737 11.2209 11.3473 11.3473C11.2209 11.4737 11.0162 11.4737 10.8898 11.3473L10.2036 10.6611C10.0773 10.5348 9.87247 10.5348 9.74614 10.6611C9.61981 10.7874 9.61981 10.9922 9.74614 11.1186L10.4323 11.8048C10.5588 11.9312 10.5588 12.1358 10.4323 12.2622C10.3059 12.3887 10.1013 12.3887 9.97488 12.2622L9.28867 11.576C9.16234 11.4497 8.95753 11.4497 8.8312 11.576C8.70487 11.7024 8.70487 11.9072 8.8312 12.0335L10.4323 13.6346C10.5588 13.7611 10.5588 13.9657 10.4323 14.0921C10.3059 14.2185 10.1013 14.2185 9.97488 14.0921L8.37373 12.491C8.2474 12.3646 8.04258 12.3646 7.91626 12.491C7.78993 12.6173 7.78993 12.8221 7.91626 12.9484L8.60246 13.6346C8.72889 13.7611 8.72889 13.9657 8.60246 14.0921C8.47603 14.2185 8.27142 14.2185 8.14499 14.0921L7.45878 13.4059C7.33246 13.2796 7.12764 13.2796 7.00131 13.4059C6.87499 13.5322 6.87499 13.7371 7.00131 13.8634L7.68752 14.5496C7.81395 14.676 7.81395 14.8806 7.68752 15.0071C7.64709 15.0475 7.59884 15.0752 7.54769 15.0897C7.43823 15.1205 7.31583 15.0928 7.23005 15.0071L6.54384 14.3209C6.41752 14.1945 6.2127 14.1945 6.08637 14.3209C5.96004 14.4472 5.96004 14.652 6.08637 14.7783L6.77258 15.4645C6.89901 15.591 6.89901 15.7956 6.77258 15.922C6.64615 16.0484 6.44154 16.0484 6.31511 15.922L5.6289 15.2358C5.50257 15.1095 5.29776 15.1095 5.17143 15.2358C5.0451 15.3621 5.0451 15.5669 5.17143 15.6933L6.77258 17.2944C6.89901 17.4208 6.89901 17.6255 6.77258 17.7519C6.64615 17.8783 6.44154 17.8783 6.31511 17.7519L4.82833 16.2651Z" fill="#E9E9E9"/>
</svg>

