<svg width="24" height="24" viewBox="0 0 24 24" fill="none" xmlns="http://www.w3.org/2000/svg">
<path fill-rule="evenodd" clip-rule="evenodd" d="M4.27429 12.6622C3.90857 12.2965 3.90857 11.7035 4.27429 11.3378L6.48164 9.13045C6.84736 8.76473 7.44032 8.76473 7.80604 9.13045C8.17177 9.49618 8.17177 10.0891 7.80604 10.4549L7.1974 11.0635H11.0635V7.1974L10.4549 7.80604C10.0891 8.17177 9.49618 8.17177 9.13045 7.80604C8.76473 7.44032 8.76473 6.84736 9.13045 6.48164L11.3378 4.27429C11.7035 3.90857 12.2965 3.90857 12.6622 4.27429L14.8695 6.48164C15.2353 6.84736 15.2353 7.44032 14.8695 7.80604C14.5038 8.17177 13.9109 8.17177 13.5451 7.80604L12.9365 7.1974V11.0635H16.8026L16.194 10.4549C15.8282 10.0891 15.8282 9.49618 16.194 9.13045C16.5597 8.76473 17.1526 8.76473 17.5184 9.13045L19.7257 11.3378C20.0914 11.7035 20.0914 12.2965 19.7257 12.6622L17.5184 14.8695C17.1526 15.2353 16.5597 15.2353 16.194 14.8695C15.8282 14.5038 15.8282 13.9109 16.194 13.5451L16.8026 12.9365L12.9365 12.9365V16.8026L13.5451 16.194C13.9109 15.8282 14.5038 15.8282 14.8695 16.194C15.2353 16.5597 15.2353 17.1526 14.8695 17.5184L12.6622 19.7257C12.2965 20.0914 11.7035 20.0914 11.3378 19.7257L9.13045 17.5184C8.76473 17.1526 8.76473 16.5597 9.13045 16.194C9.49618 15.8282 10.0891 15.8282 10.4549 16.194L11.0635 16.8026V12.9365H7.1974L7.80604 13.5451C8.17177 13.9109 8.17177 14.5038 7.80604 14.8695C7.44032 15.2353 6.84736 15.2353 6.48164 14.8695L4.27429 12.6622Z" fill="#E9E9E9"/>
</svg>

