<svg width="24" height="24" viewBox="0 0 24 24" fill="none" xmlns="http://www.w3.org/2000/svg">
<path d="M4 4.71516C4.21038 8.08298 5.75097 13.7633 7.98151 15.9938C10.3852 18.3975 13.5901 18.3975 15.1926 18.3975L16.7951 20L20 16.7951L18.3975 15.1926C18.3975 15.1074 18.398 15.018 18.3985 14.9249C18.4069 13.2676 18.4214 10.4091 15.9938 7.98152C13.7633 5.75097 8.08296 4.21038 4.71515 4L10.6083 9.8931C10.6896 9.85032 10.7737 9.81459 10.8597 9.7859C11.4519 9.58826 12.1312 9.72517 12.6027 10.1966C13.2671 10.8611 13.2671 11.9383 12.6027 12.6027C11.9383 13.2671 10.8611 13.2671 10.1966 12.6027C9.72517 12.1312 9.58826 11.4519 9.7859 10.8597C9.81459 10.7737 9.85032 10.6896 9.8931 10.6083L4 4.71516Z" fill="#E9E9E9"/>
</svg>

