<svg width="256" height="256" viewBox="0 0 256 256" fill="none" xmlns="http://www.w3.org/2000/svg">
<g clip-path="url(#clip0_860_493)">
<path d="M210.647 63.2033L149.568 0H46V256H210.647V63.2033Z" fill="url(#paint0_linear_860_493)"/>
<g filter="url(#filter0_d_860_493)">
<path d="M149.568 62.6722V0L210.647 62.6722H149.568Z" fill="#343434"/>
</g>
<rect x="92.7385" y="205.012" width="117.909" height="33.9917" fill="#202020"/>
<path d="M127.5 83C101.64 83 83 101.575 83 127.084C83 152.854 101.64 171.037 127.5 171.037H129.994C135.507 171.037 140.102 167.243 139.971 161.095C139.839 154.947 135.376 151.023 129.994 151.023H127.5C113.717 151.023 104.265 140.95 104.265 127.084C104.265 113.349 113.717 102.884 127.5 102.884C141.414 102.884 150.735 113.349 150.735 127.084C150.735 130.093 149.947 134.017 149.291 136.241C147.715 142.127 150.603 146.444 156.904 148.145C163.205 149.584 168.324 147.36 169.768 141.473C171.475 135.718 172 131.401 172 127.084C172 101.445 153.36 83 127.5 83ZM162.499 169.991C166.569 165.805 166.437 159.918 162.106 155.47C157.905 151.153 151.604 151.153 147.404 155.34C143.203 159.526 143.466 165.543 147.797 169.729C152.26 174.046 158.299 174.046 162.499 169.991Z" fill="#E9E9E9"/>
<path d="M112.598 227.821L109.763 224.487L112.04 222.591L114.899 225.994L115.527 226.451L118.455 229.899L115.922 232L112.9 228.438L112.598 227.821ZM114.388 221.427C114.388 220.422 114.21 219.554 113.853 218.823C113.512 218.093 113.024 217.529 112.389 217.133C111.754 216.722 111.002 216.517 110.135 216.517C109.267 216.517 108.515 216.722 107.88 217.133C107.245 217.529 106.749 218.093 106.393 218.823C106.052 219.554 105.881 220.422 105.881 221.427C105.881 222.447 106.052 223.33 106.393 224.076C106.749 224.822 107.245 225.4 107.88 225.811C108.515 226.207 109.267 226.405 110.135 226.405C111.064 226.405 111.839 226.215 112.459 225.834C113.094 225.454 113.574 224.898 113.9 224.167C114.225 223.421 114.388 222.508 114.388 221.427ZM117.641 224.806C117.239 225.842 116.665 226.74 115.922 227.501C115.193 228.247 114.333 228.833 113.342 229.26C112.366 229.671 111.297 229.876 110.135 229.876C108.523 229.876 107.105 229.526 105.881 228.826C104.673 228.125 103.72 227.143 103.023 225.88C102.341 224.601 102 223.117 102 221.427C102 219.737 102.341 218.26 103.023 216.996C103.704 215.733 104.657 214.751 105.881 214.05C107.105 213.35 108.523 213 110.135 213C111.746 213 113.164 213.35 114.388 214.05C115.612 214.751 116.557 215.733 117.223 216.996C117.905 218.26 118.246 219.737 118.246 221.427C118.246 222.645 118.044 223.771 117.641 224.806Z" fill="white"/>
<path d="M120.673 213.32H126.6C128.645 213.32 130.249 213.815 131.411 214.804C132.573 215.778 133.154 217.118 133.154 218.823C133.154 220.178 132.766 221.282 131.992 222.135C131.232 222.987 130.179 223.566 128.831 223.87L127.971 224.053C127.785 224.099 127.622 224.137 127.483 224.167C127.343 224.182 127.173 224.205 126.971 224.236H123.601V220.947H126.46C127.436 220.947 128.165 220.764 128.645 220.399C129.125 220.018 129.365 219.47 129.365 218.755C129.365 218.054 129.125 217.522 128.645 217.156C128.165 216.791 127.436 216.608 126.46 216.608H124.438V229.556H120.673V213.32ZM126.297 222.683L129.853 222.386L133.572 229.556H129.528L126.297 222.683Z" fill="white"/>
<path d="M147.387 221.427C147.387 220.437 147.217 219.577 146.876 218.846C146.535 218.115 146.047 217.552 145.412 217.156C144.792 216.745 144.056 216.54 143.204 216.54C142.351 216.54 141.608 216.745 140.972 217.156C140.337 217.552 139.849 218.115 139.508 218.846C139.167 219.577 138.997 220.437 138.997 221.427C138.997 222.431 139.167 223.299 139.508 224.03C139.849 224.761 140.337 225.332 140.972 225.743C141.608 226.139 142.351 226.337 143.204 226.337C144.056 226.337 144.792 226.139 145.412 225.743C146.047 225.332 146.535 224.761 146.876 224.03C147.217 223.299 147.387 222.431 147.387 221.427ZM150.292 225.88C149.626 227.143 148.681 228.125 147.457 228.826C146.233 229.526 144.815 229.876 143.204 229.876C141.592 229.876 140.174 229.526 138.95 228.826C137.742 228.125 136.789 227.143 136.092 225.88C135.41 224.601 135.069 223.117 135.069 221.427C135.069 219.737 135.41 218.26 136.092 216.996C136.773 215.733 137.726 214.751 138.95 214.05C140.174 213.35 141.592 213 143.204 213C144.815 213 146.233 213.35 147.457 214.05C148.681 214.751 149.626 215.733 150.292 216.996C150.974 218.26 151.315 219.737 151.315 221.427C151.315 223.117 150.974 224.601 150.292 225.88Z" fill="white"/>
<path d="M153.045 221.45C153.045 219.744 153.386 218.26 154.068 216.996C154.749 215.733 155.694 214.751 156.903 214.05C158.127 213.35 159.545 213 161.156 213C162.845 213 164.294 213.373 165.502 214.119C166.711 214.865 167.672 215.915 168.384 217.27L165.037 218.983C164.604 218.161 164.069 217.552 163.434 217.156C162.814 216.745 162.063 216.54 161.179 216.54C160.312 216.54 159.56 216.745 158.925 217.156C158.305 217.552 157.817 218.115 157.461 218.846C157.12 219.577 156.949 220.437 156.949 221.427C156.949 222.431 157.12 223.299 157.461 224.03C157.817 224.761 158.305 225.332 158.925 225.743C159.56 226.139 160.312 226.337 161.179 226.337C162.078 226.337 162.837 226.139 163.457 225.743C164.092 225.332 164.627 224.715 165.061 223.893L168.408 225.606C167.695 226.976 166.726 228.034 165.502 228.78C164.278 229.511 162.837 229.876 161.179 229.876C159.568 229.876 158.15 229.526 156.926 228.826C155.702 228.125 154.749 227.143 154.068 225.88C153.386 224.616 153.045 223.139 153.045 221.45Z" fill="white"/>
<path d="M175.661 215.147H177.474L172.663 229.556H168.758L174.662 213.32H178.659L184.563 229.556H180.519L175.661 215.147ZM181.169 226.702H172.64V223.505H181.169V226.702Z" fill="white"/>
<path d="M197.072 221.427C197.072 219.935 196.669 218.785 195.864 217.978C195.073 217.171 193.942 216.768 192.47 216.768H190.169V226.108H192.47C193.942 226.108 195.073 225.705 195.864 224.898C196.669 224.091 197.072 222.934 197.072 221.427ZM200.001 225.811C199.35 227.014 198.397 227.943 197.142 228.597C195.902 229.237 194.415 229.556 192.68 229.556H186.335V213.32H192.68C194.415 213.32 195.902 213.639 197.142 214.279C198.397 214.918 199.35 215.847 200.001 217.065C200.667 218.268 201 219.722 201 221.427C201 223.132 200.667 224.593 200.001 225.811Z" fill="white"/>
</g>
<defs>
<filter id="filter0_d_860_493" x="120.368" y="-21.2" width="111.479" height="113.072" filterUnits="userSpaceOnUse" color-interpolation-filters="sRGB">
<feFlood flood-opacity="0" result="BackgroundImageFix"/>
<feColorMatrix in="SourceAlpha" type="matrix" values="0 0 0 0 0 0 0 0 0 0 0 0 0 0 0 0 0 0 127 0" result="hardAlpha"/>
<feOffset dx="-4" dy="4"/>
<feGaussianBlur stdDeviation="12.6"/>
<feComposite in2="hardAlpha" operator="out"/>
<feColorMatrix type="matrix" values="0 0 0 0 0 0 0 0 0 0 0 0 0 0 0 0 0 0 0.25 0"/>
<feBlend mode="normal" in2="BackgroundImageFix" result="effect1_dropShadow_860_493"/>
<feBlend mode="normal" in="SourceGraphic" in2="effect1_dropShadow_860_493" result="shape"/>
</filter>
<linearGradient id="paint0_linear_860_493" x1="46" y1="256" x2="278.94" y2="106.184" gradientUnits="userSpaceOnUse">
<stop stop-color="#2F2F2F"/>
<stop offset="1" stop-color="#2E2E2E"/>
</linearGradient>
<clipPath id="clip0_860_493">
<rect width="256" height="256" fill="white"/>
</clipPath>
</defs>
</svg>
