<svg width="24" height="24" viewBox="0 0 24 24" fill="none" xmlns="http://www.w3.org/2000/svg">
<path fill-rule="evenodd" clip-rule="evenodd" d="M6.20819 5.23077C6.12535 5.23077 6.05133 5.29946 6.05133 5.39271V18.6073C6.05133 18.7005 6.12535 18.7692 6.20819 18.7692H7.63374V14.6235C7.63374 13.8581 8.25121 13.2308 9.02138 13.2308H14.9787C15.7489 13.2308 16.3663 13.8581 16.3663 14.6235V18.7692H17.7919C17.8747 18.7692 17.9488 18.7005 17.9488 18.6073V8.63476C17.9488 8.58986 17.9307 8.5477 17.9001 8.51757L16.3663 7.00774V8.45344C16.3663 9.2188 15.7489 9.84615 14.9787 9.84615H9.02138C8.25121 9.84615 7.63374 9.2188 7.63374 8.45344V5.23077H6.20819ZM8.86451 5.23077V8.45344C8.86451 8.54669 8.93854 8.61538 9.02138 8.61538H14.9787C15.0615 8.61538 15.1356 8.54669 15.1356 8.45344V5.79621L14.6066 5.27552C14.577 5.24638 14.5381 5.23077 14.4984 5.23077H8.86451ZM16.1827 5.09991L18.7635 7.64046C19.0301 7.90281 19.1795 8.26133 19.1795 8.63476V18.6073C19.1795 19.3726 18.5621 20 17.7919 20H6.20819C5.43802 20 4.82056 19.3727 4.82056 18.6073V5.39271C4.82056 4.62735 5.43802 4 6.20819 4H14.4984C14.8623 4 15.211 4.14346 15.47 4.39841L16.1827 5.09991ZM15.1356 18.7692V14.6235C15.1356 14.5302 15.0615 14.4615 14.9787 14.4615H9.02138C8.93854 14.4615 8.86451 14.5302 8.86451 14.6235V18.7692H15.1356Z" fill="#E9E9E9"/>
</svg>

