<svg width="24" height="24" viewBox="0 0 24 24" fill="none" xmlns="http://www.w3.org/2000/svg">
<path fill-rule="evenodd" clip-rule="evenodd" d="M18.9832 4.04315C19.2221 3.95852 19.4919 3.99786 19.698 4.1535C19.9043 4.30934 20.0152 4.55848 19.9988 4.81171L19.9832 4.91815L16.9363 19.3937C16.8731 19.6938 16.6359 19.9284 16.3347 19.9865C16.0336 20.0444 15.7265 19.9155 15.5564 19.6603L13.7029 16.8791L10.533 19.0988C10.3005 19.2615 9.99669 19.2822 9.74489 19.1516C9.49291 19.0204 9.33375 18.7598 9.33375 18.4758V13.8039L4.65504 13.1349C4.32822 13.0881 4.06777 12.8353 4.01149 12.5099C3.95564 12.1849 4.11621 11.861 4.40797 11.7072L18.8836 4.08808L18.9832 4.04315ZM7.19801 11.9582L9.96754 12.3537L14.3259 10.176C14.6089 10.0345 14.9506 10.0819 15.1834 10.2961C15.416 10.5102 15.4912 10.8462 15.3738 11.1398L13.9988 14.5754L15.8181 17.3058L18.158 6.18964L7.19801 11.9582Z" fill="#E9E9E9"/>
</svg>
