<svg width="24" height="24" viewBox="0 0 24 24" fill="none" xmlns="http://www.w3.org/2000/svg">
<path fill-rule="evenodd" clip-rule="evenodd" d="M11.9952 4C13.1342 4.0001 14.0168 4.2789 14.4815 5.0797C14.6865 5.43284 14.7667 5.82273 14.8038 6.18199C14.813 6.27128 14.8199 6.36289 14.825 6.456L18.6148 5.95652C19.0394 5.90057 19.4304 6.18918 19.488 6.60117C19.5457 7.01315 19.2483 7.3925 18.8237 7.44846L14.1685 8.06197L14.1498 8.06422L5.35679 9.01221C4.93092 9.05812 4.54732 8.76035 4.5 8.34713C4.45268 7.9339 4.75956 7.5617 5.18543 7.51578L9.49815 7.05082C9.43079 6.46789 9.49985 5.88573 9.73607 5.37689C10.118 4.55416 10.9095 4.00034 11.9952 4ZM11.0401 6.88459L13.2805 6.64304C13.2763 6.53204 13.2698 6.42896 13.2598 6.33191C13.2322 6.06425 13.1831 5.91094 13.1295 5.81844C13.077 5.72798 12.9251 5.50576 11.9954 5.50563M11.0401 6.88459C10.999 6.5296 11.0464 6.22026 11.1509 5.99525C11.2861 5.70387 11.5297 5.50587 11.9954 5.50563M6.63987 9.89685C7.0612 9.82114 7.46601 10.0912 7.54403 10.5L9.15313 18.2891C9.17583 18.4081 9.28276 18.4944 9.40743 18.4944H14.5829C14.7076 18.4944 14.8145 18.4081 14.8372 18.2891L16.363 10.5C16.441 10.0912 16.8458 9.82114 17.2671 9.89685C17.6885 9.97256 17.9668 10.3653 17.8887 10.7742L16.363 18.5633C16.2041 19.3959 15.4556 20 14.5829 20H9.40743C8.53474 20 7.78627 19.3959 7.62737 18.5633L6.01827 10.7742C5.94024 10.3653 6.21855 9.97256 6.63987 9.89685ZM10.4435 10.9662C10.872 10.9662 11.2193 11.3033 11.2193 11.719V15.0649C11.2193 15.4806 10.872 15.8177 10.4435 15.8177C10.015 15.8177 9.66761 15.4806 9.66761 15.0649V11.719C9.66761 11.3033 10.015 10.9662 10.4435 10.9662ZM13.5469 10.9662C13.9754 10.9662 14.3227 11.3033 14.3227 11.719V15.0649C14.3227 15.4806 13.9754 15.8177 13.5469 15.8177C13.1184 15.8177 12.771 15.4806 12.771 15.0649V11.719C12.771 11.3033 13.1184 10.9662 13.5469 10.9662Z" fill="#E9E9E9"/>
</svg>
