<svg width="24" height="24" viewBox="0 0 24 24" fill="none" xmlns="http://www.w3.org/2000/svg">
<path fill-rule="evenodd" clip-rule="evenodd" d="M4.18024 4.18024C4.42056 3.93992 4.8102 3.93992 5.05053 4.18024L12 11.1297L18.9495 4.18024C19.1898 3.93992 19.5794 3.93992 19.8198 4.18024C20.0601 4.42056 20.0601 4.8102 19.8198 5.05053L12.8703 12L19.8198 18.9495C20.0601 19.1898 20.0601 19.5794 19.8198 19.8198C19.5794 20.0601 19.1898 20.0601 18.9495 19.8198L12 12.8703L5.05053 19.8198C4.8102 20.0601 4.42056 20.0601 4.18024 19.8198C3.93992 19.5794 3.93992 19.1898 4.18024 18.9495L11.1297 12L4.18024 5.05053C3.93992 4.8102 3.93992 4.42056 4.18024 4.18024Z" fill="#E9E9E9"/>
</svg>

