<svg width="24" height="24" viewBox="0 0 24 24" fill="none" xmlns="http://www.w3.org/2000/svg">
<path d="M15.7113 17.3069C16.0123 17.2778 16.9331 16.7729 17.3559 16.5241L16.8787 16.151C15.9368 16.5051 13.6246 17.2229 11.9112 17.2608C10.1978 17.2986 7.85328 16.5367 6.89518 16.151L6.54087 16.4906C6.73203 16.6701 7.72463 17.1135 8.19704 17.3127L7.08321 18.9707C5.69176 18.865 3.15915 17.2733 2.06678 16.4906C1.51283 9.76775 4.57292 6.17904 5.06635 5.29568C5.43546 5.02589 7.94197 4.31948 9.14909 4L9.64899 5.09401C10.1446 5.02936 11.2909 4.89361 11.9112 4.86776C12.5316 4.8419 13.689 5.00782 14.1902 5.09401L14.7522 4C15.7407 4 18.1498 4.77155 18.7973 5.29568C20.1451 6.3866 22.0419 11.3533 21.7368 16.4906C21.5266 16.9986 18.4647 18.6382 16.7369 19L15.7113 17.3373" stroke="white" stroke-width="1.5"/>
<circle cx="8.65381" cy="12.2966" r="1.86279" stroke="white" stroke-width="1.5"/>
<circle cx="15.4233" cy="12.2966" r="1.86279" stroke="white" stroke-width="1.5"/>
</svg>
