<svg width="24" height="24" viewBox="0 0 24 24" fill="none" xmlns="http://www.w3.org/2000/svg">
<path fill-rule="evenodd" clip-rule="evenodd" d="M11.5649 4.18024C11.8052 3.93992 12.1948 3.93992 12.4351 4.18024L15.7172 7.46229C15.9575 7.70262 15.9575 8.09226 15.7172 8.33258C15.4769 8.5729 15.0872 8.5729 14.8469 8.33258L12.6154 6.10105V16.1026C12.6154 16.4424 12.3399 16.7179 12 16.7179C11.6601 16.7179 11.3846 16.4424 11.3846 16.1026V6.10105L9.15309 8.33258C8.91277 8.5729 8.52313 8.5729 8.28281 8.33258C8.04248 8.09226 8.04248 7.70262 8.28281 7.46229L11.5649 4.18024ZM4 12.8205C4 11.5743 5.01023 10.5641 6.25641 10.5641H7.07692C7.41679 10.5641 7.69231 10.8396 7.69231 11.1795C7.69231 11.5194 7.41679 11.7949 7.07692 11.7949H6.25641C5.68996 11.7949 5.23077 12.2541 5.23077 12.8205V17.7436C5.23077 18.31 5.68996 18.7692 6.25641 18.7692H17.7436C18.31 18.7692 18.7692 18.31 18.7692 17.7436V12.8205C18.7692 12.2541 18.31 11.7949 17.7436 11.7949H16.9231C16.5832 11.7949 16.3077 11.5194 16.3077 11.1795C16.3077 10.8396 16.5832 10.5641 16.9231 10.5641H17.7436C18.9898 10.5641 20 11.5743 20 12.8205V17.7436C20 18.9898 18.9898 20 17.7436 20H6.25641C5.01023 20 4 18.9898 4 17.7436V12.8205Z" fill="#E9E9E9"/>
</svg>

