<svg width="24" height="24" viewBox="0 0 24 24" fill="none" xmlns="http://www.w3.org/2000/svg">
<path fill-rule="evenodd" clip-rule="evenodd" d="M20 7.42857C20 5.14286 18.8571 4 16.5714 4H7.42857C5.14286 4 4 5.14286 4 7.42857V16.5714C4 18.8571 5.14286 20 7.42857 20H16.5714C18.8571 20 20 18.8571 20 16.6266V7.42857ZM18.8571 7.42857C18.8571 6.16621 17.8338 5.14286 16.5714 5.14286H7.42857C6.16621 5.14286 5.14286 6.16621 5.14286 7.42857V16.5714C5.14286 17.8338 6.16621 18.8571 7.42857 18.8571H16.5714C17.8338 18.8571 18.8571 17.8338 18.8571 16.5714V7.42857Z" fill="#E9E9E9"/>
<path d="M14.233 17.515H7.22564C6.76924 17.515 6.49702 17.0063 6.75018 16.6266L10.2539 11.371C10.4801 11.0317 10.9786 11.0317 11.2048 11.371L14.7085 16.6266C14.9617 17.0063 14.6894 17.515 14.233 17.515Z" fill="#E9E9E9"/>
<path d="M16.1372 17.2498L13.0311 12.5815C12.9102 12.3998 12.9033 12.165 13.0135 11.9766L13.2899 11.5038C13.5108 11.1259 14.057 11.1265 14.2771 11.5048L17.2684 16.6459C17.49 17.0269 17.2152 17.5047 16.7745 17.5047H16.613C16.4217 17.5047 16.2431 17.4091 16.1372 17.2498Z" fill="#E9E9E9"/>
<path d="M16.6173 8.47182C16.6173 9.45095 15.8235 10.2447 14.8444 10.2447C13.8653 10.2447 13.0715 9.45095 13.0715 8.47182C13.0715 7.49269 13.8653 6.69894 14.8444 6.69894C15.8235 6.69894 16.6173 7.49269 16.6173 8.47182Z" fill="#E9E9E9"/>
</svg>

