<svg width="24" height="24" viewBox="0 0 24 24" fill="none" xmlns="http://www.w3.org/2000/svg">
<g clip-path="url(#clip0_498_420)">
<path d="M2 22L4 16L6 18M2 22L8 20L6 18M2 22L6 18M6 18L18 6M18 6L22 2M18 6L16 4L22 2M18 6L20 8L22 2" stroke="white" stroke-width="1.5"/>
<path d="M16 17H14L16 14V20M21 12.5H18.7794V16.2634H19.5C19.8333 16.2634 20.5 16.5634 20.5 17.7634C20.5 18.9634 19.8333 19.2634 19.5 19.2634C19.2598 19.2634 18.7794 19.0634 18.7794 18.2634" stroke="white" stroke-width="1.5"/>
</g>
<defs>
<clipPath id="clip0_498_420">
<rect width="24" height="24" fill="white"/>
</clipPath>
</defs>
</svg>
