<svg width="24" height="24" viewBox="0 0 24 24" fill="none" xmlns="http://www.w3.org/2000/svg">
<path fill-rule="evenodd" clip-rule="evenodd" d="M10.3981 4.71918C10.4993 5.04364 10.3183 5.38869 9.99386 5.48989C8.89005 5.83415 7.89233 6.45584 7.0957 7.29596C6.29907 8.13609 5.73005 9.16669 5.44293 10.2898C5.15581 11.4128 5.16018 12.5909 5.45563 13.7118C5.75107 14.8327 6.32772 15.8591 7.13057 16.6932C7.9334 17.5274 8.9357 18.1416 10.042 18.4776C11.1484 18.8136 12.322 18.8603 13.4514 18.6132C14.5808 18.3661 15.6285 17.8334 16.4947 17.0657C17.3609 16.2979 18.0168 15.3207 18.3999 14.2268C18.5122 13.906 18.8633 13.7371 19.1841 13.8494C19.5049 13.9617 19.6738 14.3128 19.5615 14.6336C19.1091 15.9253 18.3344 17.0797 17.311 17.9867C16.2876 18.8938 15.0495 19.5234 13.7145 19.8155C12.3795 20.1076 10.9921 20.0525 9.68435 19.6553C8.37665 19.2581 7.19225 18.5322 6.24379 17.5467C5.29534 16.5612 4.61436 15.349 4.2655 14.0255C3.91665 12.702 3.91149 11.311 4.25051 9.98492C4.58953 8.65882 5.26149 7.44159 6.20261 6.4491C7.14372 5.4566 8.3227 4.72185 9.62741 4.31493C9.95187 4.21374 10.2969 4.39473 10.3981 4.71918ZM11.9999 7.28218C12.3398 7.28218 12.6153 7.5577 12.6153 7.89757V11.7452L14.8966 14.0265C15.1369 14.2668 15.1369 14.6564 14.8966 14.8967C14.6563 15.1371 14.2666 15.1371 14.0263 14.8967L11.5648 12.4352C11.4494 12.3198 11.3845 12.1633 11.3845 12.0001V7.89757C11.3845 7.5577 11.6601 7.28218 11.9999 7.28218Z" fill="#E9E9E9"/>
<path fill-rule="evenodd" clip-rule="evenodd" d="M12.2332 4.54554C12.2718 4.20787 12.5769 3.96543 12.9145 4.00404C13.3808 4.05735 13.8386 4.15128 14.2834 4.28346C14.6092 4.38029 14.7948 4.72288 14.698 5.04867C14.6011 5.37445 14.2586 5.56006 13.9328 5.46323C13.5565 5.35141 13.1692 5.27195 12.7747 5.22684C12.437 5.18824 12.1946 4.8832 12.2332 4.54554ZM15.9118 5.65585C16.1143 5.38295 16.4998 5.32594 16.7727 5.52852C17.1451 5.80496 17.4949 6.11482 17.8174 6.45572C18.1402 6.79695 18.4305 7.16389 18.6863 7.55166C18.8734 7.83538 18.7951 8.21707 18.5114 8.4042C18.2277 8.59132 17.846 8.51303 17.6589 8.22931C17.4424 7.90103 17.1966 7.59041 16.9233 7.30154C16.6503 7.01295 16.3542 6.7507 16.0391 6.51677C15.7662 6.31419 15.7092 5.92875 15.9118 5.65585ZM19.0521 9.65284C19.3827 9.57388 19.7147 9.77786 19.7937 10.1084C19.9015 10.5601 19.9707 11.0227 19.999 11.4916C20.0194 11.8309 19.761 12.1225 19.4218 12.143C19.0825 12.1635 18.7909 11.905 18.7704 11.5658C18.7465 11.1686 18.6879 10.7768 18.5966 10.3943C18.5176 10.0638 18.7216 9.73179 19.0521 9.65284Z" fill="#E9E9E9"/>
</svg>

