<svg width="24" height="24" viewBox="0 0 24 24" fill="none" xmlns="http://www.w3.org/2000/svg">
<path d="M11.3845 4.91104C11.3845 4.58793 11.4921 4.36368 11.6372 4.22031C11.7844 4.07476 11.9829 4 12.1846 4C12.3863 4 12.5848 4.07476 12.732 4.22031C12.8771 4.36368 12.9847 4.58793 12.9847 4.91103L12.9846 13.076C12.9846 13.1893 13.0758 13.2811 13.1883 13.2811C13.3008 13.2811 13.392 13.1893 13.392 13.076L13.3921 6.47965C13.3921 6.15655 13.4997 5.9323 13.6448 5.78893C13.7921 5.64338 13.9905 5.56862 14.1922 5.56862C14.394 5.56862 14.5924 5.64338 14.7397 5.78893C14.8847 5.9323 14.9924 6.15655 14.9924 6.47965L14.9922 13.076C14.9922 13.1893 15.0834 13.2811 15.1959 13.2811C15.3084 13.2811 15.3996 13.1893 15.3996 13.076L15.3998 8.44042C15.3998 8.11732 15.5074 7.89306 15.6524 7.74969C15.7997 7.60414 15.9981 7.52938 16.1999 7.52938C16.4016 7.52938 16.6001 7.60414 16.7473 7.74969C16.8924 7.89306 17 8.11732 17 8.44042L16.9998 15.5562C16.9998 17.0516 16.5317 18.1547 15.7506 18.8855C14.967 19.6185 13.8438 20 12.4918 20C11.1302 20 10.2737 19.7179 9.66713 19.2193C9.05524 18.7163 8.66796 17.9701 8.29403 16.972C7.70934 15.4114 7.31561 14.5274 7.06607 14.0311C6.94125 13.7829 6.85152 13.6296 6.79092 13.5362C6.76055 13.4894 6.73704 13.4569 6.71961 13.4346C6.71087 13.4234 6.70354 13.4146 6.6975 13.4078L6.69324 13.4031C6.22076 12.8349 6.02859 12.3611 6.00305 12.0159C5.97811 11.6788 6.10889 11.4688 6.29826 11.3662C6.49824 11.2578 6.81144 11.2433 7.18641 11.41C7.55605 11.5743 7.97036 11.91 8.3483 12.4668L8.73931 13.2395C8.74931 13.2592 8.76241 13.2772 8.77813 13.2927C8.87152 13.385 8.93244 13.4556 8.97177 13.5026L8.98887 13.5232C9.00129 13.5382 9.0136 13.5531 9.0225 13.5632C9.02861 13.5702 9.04162 13.5848 9.05776 13.5984C9.06542 13.6048 9.08292 13.6189 9.10798 13.6304C9.13089 13.6409 9.18989 13.6629 9.26132 13.6384C9.33822 13.6121 9.37299 13.5521 9.38607 13.5201C9.3985 13.4896 9.40096 13.4631 9.40175 13.4523C9.40344 13.4291 9.40138 13.408 9.40056 13.3996C9.3994 13.3877 9.39708 13.3697 9.39485 13.3523L9.39159 13.3264C9.38492 13.2716 9.3767 13.1894 9.3767 13.076L9.37677 5.63509C9.37677 5.31199 9.48439 5.08773 9.62945 4.94436C9.77671 4.79881 9.97514 4.72405 10.1769 4.72405C10.3786 4.72405 10.5771 4.7988 10.7243 4.94436C10.8694 5.08773 10.977 5.312 10.977 5.63509L10.9771 5.64055L10.9769 13.076C10.9769 13.1893 11.0681 13.2811 11.1806 13.2811C11.2931 13.2811 11.3843 13.1893 11.3843 13.076L11.3845 4.91104Z" fill="#E9E9E9"/>
</svg>

