<svg width="24" height="24" viewBox="0 0 24 24" fill="none" xmlns="http://www.w3.org/2000/svg">
<path d="M10.608 13.3113L10.6082 3.36032M10.6082 3.36032L10.6081 4.24276C10.6081 2.42898 8.14418 2.429 8.14418 4.24276L8.1441 13.3113C8.1441 13.9159 8.32158 13.875 7.83459 13.3971L7.34751 12.4412C5.3995 9.57358 2.507 11.0074 4.91289 13.875C4.91289 13.875 5.39972 14.353 6.83145 18.1479C7.75523 20.5965 8.80844 22 12.2172 22C15.6259 22 17.9998 20.0882 17.9998 16.3341L18 7.66176C18 5.848 15.5361 5.848 15.5361 7.66176M10.6082 3.36032C10.6082 1.54656 13.0721 1.54656 13.0721 3.36032V5.27208M13.072 13.3113L13.0721 5.27208M13.0721 5.27208C13.0721 3.45832 15.5361 3.45832 15.5361 5.27208V7.66176M15.5359 13.3113L15.5361 7.66176" stroke="white" stroke-width="1.5" stroke-linejoin="round"/>
</svg>
