<svg width="24" height="24" viewBox="0 0 24 24" fill="none" xmlns="http://www.w3.org/2000/svg">
<path fill-rule="evenodd" clip-rule="evenodd" d="M14.0264 4.18024C13.7861 4.42056 13.7861 4.8102 14.0264 5.05053L17.8989 8.92308H9.53846C8.61947 8.92308 7.25469 9.19371 6.10197 10.0237C4.91787 10.8762 4 12.2917 4 14.4615C4 16.6313 4.91787 18.0469 6.10197 18.8994C7.25469 19.7294 8.61947 20 9.53846 20H12C12.3399 20 12.6154 19.7245 12.6154 19.3846C12.6154 19.0447 12.3399 18.7692 12 18.7692H9.53846C8.81642 18.7692 7.71967 18.5476 6.82111 17.9006C5.95393 17.2762 5.23077 16.2302 5.23077 14.4615C5.23077 12.6929 5.95393 11.6469 6.82111 11.0225C7.71967 10.3755 8.81642 10.1538 9.53846 10.1538H17.8989L14.0264 14.0264C13.7861 14.2667 13.7861 14.6564 14.0264 14.8967C14.2667 15.137 14.6564 15.137 14.8967 14.8967L19.8198 9.9736C20.0601 9.73328 20.0601 9.34364 19.8198 9.10332L14.8967 4.18024C14.6564 3.93992 14.2667 3.93992 14.0264 4.18024Z" fill="#E9E9E9"/>
</svg>

