<svg width="24" height="24" viewBox="0 0 24 24" fill="none" xmlns="http://www.w3.org/2000/svg">
<path d="M12.344 16.3074C12.0877 16.5909 11.6722 16.5909 11.416 16.3074C11.1597 16.0238 11.1597 15.5641 11.416 15.2805C11.6722 14.997 12.0877 14.997 12.344 15.2805C12.6002 15.5641 12.6002 16.0238 12.344 16.3074Z" fill="#E9E9E9"/>
<path d="M11.88 12.4643C10.8357 12.4643 9.83429 12.9233 9.09592 13.7403L10.0239 14.7671C10.5162 14.2224 11.1838 13.9164 11.88 13.9164C12.5761 13.9164 13.2437 14.2224 13.736 14.7671L14.664 13.7403C13.9256 12.9233 12.9242 12.4643 11.88 12.4643Z" fill="#E9E9E9"/>
<path d="M7.23989 11.6866C8.47052 10.3249 10.1396 9.55993 11.88 9.55993C13.6203 9.55993 15.2894 10.3249 16.52 11.6866L15.5919 12.7135C14.6074 11.6241 13.2722 11.0121 11.8799 11.0121C10.4876 11.0121 9.15237 11.6241 8.16788 12.7134L7.23989 11.6866Z" fill="#E9E9E9"/>
<path d="M8.9342 4.50964C8.25468 3.83012 7.15295 3.83012 6.47343 4.50964L4.50964 6.47343C3.83012 7.15295 3.83012 8.25467 4.50964 8.9342L6.01879 10.4433C6.55696 9.86201 7.16457 9.36573 7.82283 8.96636L6.56028 7.70381L7.70381 6.56028L9.38026 8.23673C10.1774 7.96412 11.019 7.8199 11.8798 7.8199C12.0048 7.8199 12.1294 7.82294 12.2535 7.82898L8.9342 4.50964Z" fill="#E9E9E9"/>
<path d="M14.9145 16.058L13.7358 17.3622L13.7327 17.3588C13.7014 17.398 13.6687 17.4364 13.6347 17.4741C13.5401 17.5788 13.4388 17.673 13.3322 17.7568L15.0658 19.4904C15.3921 19.8167 15.8347 20 16.2962 20H18.26C19.221 20 20 19.221 20 18.26V16.2962C20 15.8347 19.8167 15.3921 19.4904 15.0658L17.5578 13.1332L16.0002 14.8567L17.68 16.5364V17.68H16.5364L14.9145 16.058Z" fill="#E9E9E9"/>
</svg>

