<svg width="24" height="24" viewBox="0 0 24 24" fill="none" xmlns="http://www.w3.org/2000/svg">
<path fill-rule="evenodd" clip-rule="evenodd" d="M6.66667 6.66667C5.19401 6.66667 4 7.86068 4 9.33333V17.3333C4 18.806 5.19401 20 6.66667 20H14.6667C16.1393 20 17.3333 18.806 17.3333 17.3333V9.33333C17.3333 7.86068 16.1393 6.66667 14.6667 6.66667H6.66667ZM6.66667 8C5.93034 8 5.33333 8.59701 5.33333 9.33333V17.3333C5.33333 18.0697 5.93034 18.6667 6.66667 18.6667H14.6667C15.403 18.6667 16 18.0697 16 17.3333V9.33333C16 8.59701 15.403 8 14.6667 8H6.66667Z" fill="#E9E9E9"/>
<path d="M20 7.33333V13.3333C20 14 19.3333 14.6667 18.6667 14.6667V8C18.6667 6.66667 17.3333 5.33333 16 5.33333H9.33333C9.33333 4.66667 10 4 10.6667 4H16.6667C18.1393 4 20 5.86068 20 7.33333Z" fill="#E9E9E9"/>
</svg>

