<svg width="24" height="24" viewBox="0 0 24 24" fill="none" xmlns="http://www.w3.org/2000/svg">
<path fill-rule="evenodd" clip-rule="evenodd" d="M5.15966 7.65699C5.09044 7.65699 5.02857 7.7144 5.02857 7.79233V18.8359C5.02857 18.9139 5.09044 18.9713 5.15966 18.9713H6.35102V15.5066C6.35102 14.867 6.86705 14.3427 7.51068 14.3427H12.4893C13.133 14.3427 13.649 14.867 13.649 15.5066V18.9713H14.8403C14.9096 18.9713 14.9714 18.9139 14.9714 18.8359V10.5018C14.9714 10.4642 14.9564 10.429 14.9308 10.4038L13.649 9.14203V10.3502C13.649 10.9898 13.133 11.5141 12.4893 11.5141H7.51068C6.86705 11.5141 6.35102 10.9898 6.35102 10.3502V7.65699H5.15966ZM7.37959 7.65699V10.3502C7.37959 10.4282 7.44146 10.4856 7.51068 10.4856H12.4893C12.5585 10.4856 12.6204 10.4282 12.6204 10.3502V8.12953L12.1784 7.69439C12.1536 7.67004 12.1211 7.65699 12.0879 7.65699H7.37959ZM13.4955 7.54763L15.6523 9.6708C15.8751 9.89005 16 10.1897 16 10.5018V18.8359C16 19.4756 15.484 19.9998 14.8403 19.9998H5.15966C4.51602 19.9998 4 19.4756 4 18.8359V7.79233C4 7.1527 4.51602 6.62842 5.15966 6.62842H12.0879C12.3921 6.62842 12.6835 6.74831 12.8999 6.96137L13.4955 7.54763ZM12.6204 18.9713V15.5066C12.6204 15.4287 12.5585 15.3713 12.4893 15.3713H7.51068C7.44146 15.3713 7.37959 15.4287 7.37959 15.5066V18.9713H12.6204Z" fill="#E9E9E9"/>
<path d="M9.1597 5.02857H9.04033H8.00781C8.02648 4.40516 8.528 4 9.1597 4H16.0879C16.3921 4 16.6835 4.11989 16.9 4.33296L17.4955 4.91921L19.6524 7.04238C19.8751 7.26163 20 7.56125 20 7.87334V16.2075C20 16.8471 19.484 17.3714 18.8404 17.3714H17.5V16.3429H17.649H18.8404C18.9096 16.3429 18.9715 16.2854 18.9715 16.2075V7.87334C18.9715 7.83581 18.9564 7.80058 18.9308 7.7754L17.649 6.51362V7.7218C17.649 8.21881 17.3375 8.64618 16.8966 8.81205C16.8367 8.73897 16.7727 8.66877 16.7047 8.60182L15.9482 7.85714H16.4894C16.5586 7.85714 16.6204 7.79973 16.6204 7.7218V5.50111L16.1784 5.06597C16.1537 5.04162 16.1211 5.02857 16.0879 5.02857H11.3796H10.3511H9.1597Z" fill="#E9E9E9"/>
</svg>

