<svg width="24" height="24" viewBox="0 0 24 24" fill="none" xmlns="http://www.w3.org/2000/svg">
<path fill-rule="evenodd" clip-rule="evenodd" d="M13.4296 5.89136C13.4271 5.60029 13.1782 5.37124 12.8794 5.37143L11.0071 5.37261C10.7139 5.37279 10.4709 5.60017 10.4734 5.88612C10.4803 6.6773 9.96692 7.31722 9.34172 7.65936C9.27172 7.69767 9.20274 7.73747 9.13483 7.77873C8.52638 8.14838 7.68122 8.27375 6.95275 7.87789C6.72581 7.75457 6.43463 7.82801 6.30302 8.04701L5.52125 9.3479C5.38343 9.57724 5.46881 9.86744 5.70672 9.99673C6.43227 10.391 6.74861 11.1377 6.7292 11.8187C6.7275 11.8782 6.7269 11.9381 6.72742 11.9982C6.72769 12.0291 6.72825 12.0599 6.7291 12.0906C6.74799 12.7722 6.43305 13.519 5.70964 13.9167C5.4657 14.0508 5.3807 14.3502 5.52546 14.5842L6.3833 15.9707C6.51709 16.187 6.80713 16.2576 7.03233 16.1338C7.75634 15.7357 8.60046 15.8543 9.21096 16.2212C9.28199 16.2639 9.35413 16.305 9.42733 16.3445C10.0547 16.6833 10.5722 17.3169 10.5791 18.106C10.5816 18.3985 10.8317 18.6288 11.1321 18.6286L13.0044 18.6274C13.296 18.6272 13.5378 18.401 13.5353 18.1165C13.5285 17.3254 14.0424 16.6858 14.6682 16.3446C14.7286 16.3116 14.7883 16.2775 14.8473 16.2423C15.4587 15.8773 16.3035 15.7551 17.0319 16.151C17.2649 16.2776 17.5639 16.2021 17.699 15.9774L18.481 14.676C18.6152 14.4527 18.532 14.1702 18.3005 14.0444C17.575 13.6501 17.2615 12.9018 17.2866 12.2211C17.2893 12.1484 17.2903 12.0753 17.2897 12.0018C17.289 11.9282 17.2867 11.855 17.2828 11.7822C17.2459 11.1018 17.5518 10.3498 18.2748 9.95224C18.4985 9.82923 18.5767 9.5544 18.4438 9.33954L17.5854 7.95221C17.4401 7.71726 17.1247 7.64032 16.8797 7.77502C16.1554 8.17326 15.312 8.06438 14.6921 7.71213C14.6558 7.69153 14.6193 7.67133 14.5825 7.65153C13.9546 7.31375 13.4364 6.68043 13.4296 5.89136ZM12.8785 4C13.9828 3.99931 14.8751 4.8419 14.8841 5.88018C14.8858 6.07969 15.0238 6.30998 15.3033 6.46034C15.3501 6.48555 15.3966 6.51126 15.4428 6.53749C15.7098 6.68919 15.9767 6.68392 16.147 6.59032C17.0886 6.07256 18.2934 6.3747 18.8418 7.26117L19.7002 8.6485C20.2363 9.515 19.9281 10.6308 19.0076 11.1369C18.8506 11.2232 18.7201 11.4301 18.7354 11.7123C18.7404 11.8046 18.7433 11.8974 18.7441 11.9906C18.745 12.0837 18.7436 12.1764 18.7402 12.2686C18.7296 12.5571 18.8644 12.7679 19.0268 12.8561C19.9536 13.3598 20.273 14.476 19.7465 15.3521L18.9645 16.6534C18.433 17.5378 17.2412 17.8476 16.3056 17.3392C16.1427 17.2506 15.8833 17.2471 15.6254 17.401C15.55 17.446 15.4736 17.4896 15.3963 17.5318C15.1204 17.6822 14.9881 17.9109 14.9898 18.1054C14.9988 19.1449 14.1113 19.9981 13.0054 19.9988L11.133 20C10.0271 20.0007 9.13356 19.1569 9.12458 18.1172C9.12284 17.9169 8.98456 17.6858 8.70452 17.5346C8.61133 17.4843 8.51953 17.432 8.42917 17.3777C8.17775 17.2266 7.92385 17.2312 7.76506 17.3185C6.84318 17.8253 5.6638 17.5295 5.12691 16.6618L4.26907 15.2752C3.72114 14.3896 4.03614 13.2493 4.97691 12.732C5.14566 12.6392 5.28325 12.4218 5.27506 12.1264C5.27399 12.0875 5.27327 12.0485 5.27294 12.0094C5.27228 11.9332 5.27304 11.8574 5.27519 11.7818C5.28352 11.4893 5.14651 11.2752 4.98041 11.1849C4.04723 10.6778 3.7256 9.55401 4.25575 8.67181L5.03751 7.37092C5.56551 6.49231 6.74957 6.18459 7.67906 6.68968C7.83845 6.77629 8.09384 6.77969 8.34699 6.62589C8.43381 6.57315 8.52203 6.52224 8.61157 6.47324C8.88797 6.32198 9.02062 6.09255 9.01893 5.8973C9.00993 4.85627 9.89869 4.00188 11.0062 4.00118L12.8785 4ZM13.8257 12.004C13.8172 11.0316 12.9771 10.2472 11.9573 10.2478C10.9418 10.2485 10.1217 11.0276 10.1301 11.996C10.1385 12.9684 10.9787 13.7528 11.9985 13.7522C13.014 13.7516 13.834 12.9724 13.8257 12.004ZM11.9563 8.87641C13.7808 8.87526 15.2653 10.2724 15.2801 11.9928C15.295 13.7172 13.8282 15.1225 11.9994 15.1236C10.175 15.1248 8.6905 13.7277 8.67562 12.0072C8.66072 10.2828 10.1275 8.87756 11.9563 8.87641Z" fill="#E9E9E9"/>
</svg>

