<svg width="24" height="24" viewBox="0 0 24 24" fill="none" xmlns="http://www.w3.org/2000/svg">
<path d="M15.3919 17.6102L17.7902 15.2203C19.3891 13.6271 21.6875 9.54444 18.09 5.95967C14.4926 2.37491 10.5953 4.46602 8.7966 6.2584L6.3983 8.64825M15.3919 17.6102L12.9936 20L10.7452 17.7595L13.1435 15.3697M15.3919 17.6102L13.1435 15.3697M13.1435 15.3697L15.5418 12.9798C16.3413 12.1832 17.4904 10.1419 15.6917 8.34951C13.893 6.55713 11.8444 7.70227 11.045 8.49888L8.64671 10.8887M8.64671 10.8887L6.24841 13.2786L4 11.0381L6.3983 8.64825M8.64671 10.8887L6.3983 8.64825" stroke="white" stroke-width="1.5"/>
<path d="M7 16L6 19H7.5L6.5 22" stroke="white" stroke-width="1.5"/>
</svg>
