<svg width="24" height="24" viewBox="0 0 24 24" fill="none" xmlns="http://www.w3.org/2000/svg">
<path d="M6.09529 4.184C6.247 4.06133 6.41622 4 6.60295 4C6.80135 4 6.97641 4.06133 7.12813 4.184C7.27984 4.2944 7.39072 4.44161 7.46074 4.62561L10.8219 15.2426C10.8219 15.2671 10.8277 15.2855 10.8394 15.2978L12.1873 19.5298C12.2573 19.7752 12.234 20.0144 12.1173 20.2474C12.0122 20.4682 11.843 20.6216 11.6096 20.7074C11.3879 20.7933 11.1661 20.781 10.9444 20.6706C10.7227 20.548 10.5768 20.364 10.5068 20.1186L9.35137 16.4938H3.87205L2.73417 20.1186C2.65248 20.364 2.50076 20.548 2.27902 20.6706C2.06895 20.781 1.84721 20.7933 1.6138 20.7074C1.38039 20.6216 1.20533 20.4682 1.08862 20.2474C0.983588 20.0144 0.971918 19.7752 1.05361 19.5298L2.38405 15.2978C2.39572 15.2855 2.40156 15.2671 2.40156 15.2426L5.78018 4.62561C5.83853 4.44161 5.94357 4.2944 6.09529 4.184ZM4.46724 14.6354H8.75617L6.62046 7.86406L4.46724 14.6354Z" fill="white"/>
<path d="M17.1555 8.82087C17.2722 8.74727 17.4006 8.71047 17.5407 8.71047H20.1665C20.3066 8.71047 20.435 8.74727 20.5517 8.82087L21.8646 9.53848C22.0397 9.62435 22.168 9.75928 22.2497 9.94329L22.9149 11.3785C22.9733 11.5134 23.0025 11.6545 23.0025 11.8017V13.2185C23.0025 13.2308 23.0025 13.2431 23.0025 13.2553V18.941C23.0025 18.9533 23.0025 18.9656 23.0025 18.9778V19.677C23.0025 19.9346 22.9149 20.1554 22.7399 20.3394C22.5765 20.5234 22.3723 20.6154 22.1272 20.6154C21.8938 20.6154 21.6954 20.5234 21.532 20.3394L21.2169 20.5234C21.0885 20.5848 20.9601 20.6154 20.8318 20.6154H17.5407C17.4006 20.6154 17.2722 20.5848 17.1555 20.5234L15.8426 19.8058C15.6675 19.7077 15.5392 19.5666 15.4575 19.3826L14.8098 17.9474C14.7397 17.8125 14.7047 17.6714 14.7047 17.5242V16.089C14.7047 15.9418 14.7397 15.8068 14.8098 15.6842L15.4575 14.2489C15.5392 14.0649 15.6675 13.9239 15.8426 13.8257L17.1555 13.1081C17.2722 13.0468 17.4006 13.0161 17.5407 13.0161H20.6217L21.2694 12.6481V11.5993L20.8493 11.0657L19.974 10.5873H17.7507L16.6129 11.2129C16.4028 11.3233 16.181 11.3417 15.9476 11.2681C15.7259 11.1822 15.5625 11.0228 15.4575 10.7897C15.3524 10.5566 15.3349 10.3174 15.405 10.0721C15.4866 9.82675 15.6325 9.64275 15.8426 9.52008L17.1555 8.82087ZM21.2694 14.7458L21.2169 14.7826C21.0885 14.8562 20.9601 14.893 20.8318 14.893H17.7507L16.8754 15.3714L16.4378 16.3098V17.3034L16.8754 18.2602L17.7507 18.7386H20.6217L21.2694 18.3706V14.7458Z" fill="white"/>
</svg>
