<svg width="24" height="24" viewBox="0 0 24 24" fill="none" xmlns="http://www.w3.org/2000/svg">
<path d="M16.3311 6.46932C16.3325 6.42416 16.3332 6.37883 16.3332 6.33333C16.3332 3.9401 14.3931 2 11.9998 2C9.6066 2 7.6665 3.9401 7.6665 6.33333C7.6665 6.37883 7.66721 6.42416 7.6686 6.46931C5.79854 6.94963 4.4165 8.64675 4.4165 10.6667C4.4165 13.0599 6.3566 15 8.74984 15C10.0441 15 11.2058 14.4326 11.9998 13.533C12.7939 14.4326 13.9556 15 15.2498 15C17.6431 15 19.5832 13.0599 19.5832 10.6667C19.5832 8.64675 18.2011 6.94963 16.3311 6.46932Z" stroke="white" stroke-width="1.5"/>
<path d="M12 10V22H8H16" stroke="white" stroke-width="1.5"/>
</svg>
