<svg width="24" height="24" viewBox="0 0 24 24" fill="none" xmlns="http://www.w3.org/2000/svg">
<path d="M13.8575 20.6844V12.7551C13.8575 12.4745 14.2135 12.3339 14.4217 12.5324L19.9026 17.757C20.1107 17.9555 19.9633 18.2948 19.6689 18.2948H17.299C17.2113 18.2948 17.1273 18.328 17.0653 18.387L14.4217 20.9071C14.2135 21.1055 13.8575 20.965 13.8575 20.6844Z" fill="#3A3A3A"/>
<path fill-rule="evenodd" clip-rule="evenodd" d="M4 4.97279C4 4.43553 4.4297 4 4.95976 4H6.49538C7.02544 4 7.45514 4.43553 7.45514 4.97279C7.45514 5.51005 7.02544 5.94558 6.49538 5.94558H5.91952V6.33469C5.91952 6.87195 5.48982 7.30748 4.95976 7.30748C4.4297 7.30748 4 6.87195 4 6.33469V4.97279ZM8.60685 4.97279C8.60685 4.43553 9.03655 4 9.56661 4H12.6378C13.1679 4 13.5976 4.43553 13.5976 4.97279C13.5976 5.51005 13.1679 5.94558 12.6378 5.94558H9.56661C9.03655 5.94558 8.60685 5.51005 8.60685 4.97279ZM14.7493 4.97279C14.7493 4.43553 15.179 4 15.7091 4H17.2447C17.7747 4 18.2044 4.43553 18.2044 4.97279V6.52925C18.2044 7.06651 17.7747 7.50204 17.2447 7.50204C16.7146 7.50204 16.2849 7.06651 16.2849 6.52925V5.94558H15.7091C15.179 5.94558 14.7493 5.51005 14.7493 4.97279ZM4.95976 8.08571C5.48982 8.08571 5.91952 8.52125 5.91952 9.0585V11.7823C5.91952 12.3196 5.48982 12.7551 4.95976 12.7551C4.4297 12.7551 4 12.3196 4 11.7823V9.0585C4 8.52125 4.4297 8.08571 4.95976 8.08571ZM17.2447 8.66939C17.7747 8.66939 18.2044 9.10492 18.2044 9.64217V11.1986C18.2044 11.7359 17.7747 12.1714 17.2447 12.1714C16.7146 12.1714 16.2849 11.7359 16.2849 11.1986V9.64217C16.2849 9.10492 16.7146 8.66939 17.2447 8.66939ZM4.95976 13.5333C5.48982 13.5333 5.91952 13.9689 5.91952 14.5061V14.8952H6.49538C7.02544 14.8952 7.45514 15.3308 7.45514 15.868C7.45514 16.4053 7.02544 16.8408 6.49538 16.8408H4.95976C4.4297 16.8408 4 16.4053 4 15.868V14.5061C4 13.9689 4.4297 13.5333 4.95976 13.5333ZM8.60685 15.868C8.60685 15.3308 9.03655 14.8952 9.56661 14.8952H11.1022C11.6323 14.8952 12.062 15.3308 12.062 15.868C12.062 16.4053 11.6323 16.8408 11.1022 16.8408H9.56661C9.03655 16.8408 8.60685 16.4053 8.60685 15.868Z" fill="#3A3A3A"/>
</svg>
